<svg preserveAspectRatio="none" width="100%" height="100%" overflow="visible" style="display: block;" viewBox="0 0 64 64" fill="none" xmlns="http://www.w3.org/2000/svg">
<g id="app" filter="url(#filter0_i_0_26)">
<rect width="64" height="64" rx="16" fill="var(--fill-0, #EAEAEA)" fill-opacity="0.1"/>
<path id="Vector" d="M24.8227 10.8411C26.589 10.1144 28.5119 9.85184 30.4083 10.0784C32.8528 10.3595 35.0308 11.3984 36.9424 13.1951C36.9668 13.2196 37.001 13.2367 37.0328 13.2464C37.0673 13.2549 37.1034 13.2549 37.1379 13.2464C39.6231 12.6047 42.2537 12.8422 44.5837 13.9187L44.6986 13.9724L44.9822 14.1118C47.4212 15.348 49.3236 17.4338 50.3306 19.976C50.8415 21.2227 51.0958 22.5207 51.1006 23.8749C51.1374 24.8821 51.027 25.8892 50.7731 26.8645C50.7606 26.9138 50.7607 26.9654 50.7735 27.0145C50.7864 27.0637 50.8114 27.1088 50.8464 27.1456C52.2984 28.6294 53.2615 30.3968 53.7382 32.4501C54.4447 35.9334 53.7211 39.0746 51.57 41.871L51.2375 42.2768C49.8128 43.9076 47.9429 45.0869 45.8573 45.6697C45.812 45.683 45.7705 45.7067 45.7361 45.739C45.7017 45.7713 45.6754 45.8112 45.6593 45.8555C45.1924 47.2024 44.7231 48.3562 43.8504 49.5075C41.6504 52.4091 38.4188 54.02 34.779 54.0004C31.8774 53.9858 29.3059 52.9249 27.0619 50.8177C27.0281 50.7861 26.9865 50.7641 26.9414 50.7538C26.8964 50.7435 26.8493 50.7453 26.8052 50.7591C25.8567 51.0646 24.8985 51.1086 23.8621 51.0964C22.2112 51.0832 20.5852 50.6936 19.1076 49.9573C17.5598 49.1903 16.2123 48.0729 15.172 46.6939C14.8005 46.2002 14.4313 45.7357 14.16 45.1857C13.7896 44.431 13.4869 43.6449 13.2556 42.8366C12.7672 40.9975 12.7554 39.0642 13.2213 37.2192C13.2367 37.1753 13.2417 37.1285 13.236 37.0823C13.2276 37.037 13.2044 36.9957 13.17 36.965C12.0408 35.8221 11.1778 34.444 10.6424 32.9292C10.2864 31.9961 10.0794 31.0128 10.0289 30.0154C9.94008 28.7017 10.0564 27.3822 10.3736 26.1043C11.1973 23.3861 12.774 21.252 15.0987 19.7047C15.6169 19.36 16.1082 19.0911 16.5678 18.898C17.0934 18.6805 17.6189 18.4971 18.1469 18.3431C18.1847 18.3314 18.2189 18.3106 18.2466 18.2824C18.2744 18.2543 18.2947 18.2197 18.3058 18.1818C18.7067 16.7421 19.3962 15.399 20.3323 14.234C21.5123 12.7356 23.059 11.5669 24.8227 10.8411ZM33.3343 36.6668C32.9371 36.6891 32.5634 36.8626 32.2901 37.1517C32.0167 37.4408 31.8644 37.8236 31.8644 38.2215C31.8644 38.6193 32.0167 39.0021 32.2901 39.2912C32.5634 39.5803 32.9371 39.7538 33.3343 39.7761H42.2224C42.4339 39.788 42.6456 39.7566 42.8445 39.6838C43.0434 39.6111 43.2254 39.4985 43.3794 39.3529C43.5333 39.2074 43.6559 39.032 43.7397 38.8374C43.8235 38.6429 43.8667 38.4333 43.8667 38.2215C43.8667 38.0096 43.8235 37.8 43.7397 37.6055C43.6559 37.4109 43.5333 37.2355 43.3794 37.09C43.2254 36.9445 43.0434 36.8319 42.8445 36.7591C42.6456 36.6863 42.4339 36.6549 42.2224 36.6668H33.3343ZM23.3512 25.2292C23.1396 24.8846 22.8024 24.6359 22.4107 24.5355C22.0191 24.4352 21.6037 24.4911 21.2526 24.6914C20.9014 24.8918 20.6419 25.2208 20.529 25.6091C20.4161 25.9973 20.4587 26.4142 20.6476 26.7716L23.757 32.2081L20.6623 37.4295C20.5581 37.6052 20.4896 37.7998 20.4606 38.002C20.4316 38.2042 20.4427 38.4102 20.4934 38.6081C20.544 38.8061 20.6331 38.9921 20.7556 39.1556C20.8781 39.3191 21.0316 39.4569 21.2074 39.561C21.3831 39.6652 21.5777 39.7337 21.7799 39.7627C21.9822 39.7917 22.1881 39.7805 22.3861 39.7299C22.584 39.6793 22.77 39.5902 22.9335 39.4677C23.097 39.3452 23.2348 39.1917 23.3389 39.0159L26.8932 33.0148C27.0333 32.7784 27.1083 32.509 27.1104 32.2342C27.1126 31.9594 27.0418 31.6889 26.9054 31.4503L23.3512 25.2292Z" fill="url(#paint0_linear_0_26)"/>
</g>
<defs>
<filter id="filter0_i_0_26" x="0" y="0" width="64" height="64" filterUnits="userSpaceOnUse" color-interpolation-filters="sRGB">
<feFlood flood-opacity="0" result="BackgroundImageFix"/>
<feBlend mode="normal" in="SourceGraphic" in2="BackgroundImageFix" result="shape"/>
<feColorMatrix in="SourceAlpha" type="matrix" values="0 0 0 0 0 0 0 0 0 0 0 0 0 0 0 0 0 0 127 0" result="hardAlpha"/>
<feMorphology radius="51" operator="dilate" in="SourceAlpha" result="effect1_innerShadow_0_26"/>
<feOffset dx="2" dy="-1"/>
<feGaussianBlur stdDeviation="5.45"/>
<feComposite in2="hardAlpha" operator="arithmetic" k2="-1" k3="1"/>
<feColorMatrix type="matrix" values="0 0 0 0 0 0 0 0 0 0 0 0 0 0 0 0 0 0 0.15 0"/>
<feBlend mode="normal" in2="shape" result="effect1_innerShadow_0_26"/>
</filter>
<linearGradient id="paint0_linear_0_26" x1="31.9997" y1="10.0002" x2="31.9997" y2="54.0004" gradientUnits="userSpaceOnUse">
<stop stop-color="#B1A7FF"/>
<stop offset="0.5" stop-color="#7A9DFF"/>
<stop offset="1" stop-color="#3941FF"/>
</linearGradient>
</defs>
</svg>
