<svg width="55.1461" height="56.0588" viewBox="0 0 55.1461 56.0588" fill="none" xmlns="http://www.w3.org/2000/svg">
<g filter="url(#cursor_pointer_shadow)">
<path d="M23.2787 32.2682C22.9987 31.9082 22.6487 31.1782 22.0387 30.2682C21.6887 29.7682 20.8287 28.8182 20.5687 28.3282C20.3812 28.0304 20.3268 27.6679 20.4187 27.3282C20.5756 26.6824 21.1882 26.254 21.8487 26.3282C22.3595 26.4308 22.8289 26.6812 23.1987 27.0482C23.4568 27.2914 23.6943 27.5556 23.9087 27.8382C24.0687 28.0382 24.1087 28.1182 24.2887 28.3482C24.4687 28.5782 24.5887 28.8082 24.4987 28.4682C24.4287 27.9682 24.3087 27.1282 24.1387 26.3782C24.0087 25.8082 23.9787 25.7182 23.8587 25.2882C23.7387 24.8582 23.6687 24.4982 23.5387 24.0082C23.4198 23.5268 23.3264 23.0395 23.2587 22.5482C23.1326 21.9199 23.2243 21.2674 23.5187 20.6982C23.8681 20.3696 24.3806 20.2828 24.8187 20.4782C25.2593 20.8036 25.5878 21.2579 25.7587 21.7782C26.0207 22.4186 26.1956 23.0913 26.2787 23.7782C26.4387 24.7782 26.7487 26.2382 26.7587 26.5382C26.7587 26.1682 26.6887 25.3882 26.7587 25.0382C26.828 24.6733 27.0816 24.3705 27.4287 24.2382C27.7265 24.1468 28.0415 24.1263 28.3487 24.1782C28.6587 24.243 28.9333 24.4214 29.1187 24.6782C29.3503 25.2616 29.4789 25.8808 29.4987 26.5082C29.5254 25.9588 29.6195 25.4147 29.7787 24.8882C29.9458 24.6528 30.1898 24.483 30.4687 24.4082C30.7993 24.3478 31.1381 24.3478 31.4687 24.4082C31.7398 24.4988 31.9769 24.6697 32.1487 24.8982C32.3604 25.4286 32.4886 25.9886 32.5287 26.5582C32.5287 26.6982 32.5987 26.1682 32.8187 25.8182C32.933 25.4788 33.2197 25.2262 33.5708 25.1555C33.9219 25.0848 34.284 25.2068 34.5208 25.4755C34.7576 25.7442 34.833 26.1188 34.7187 26.4582C34.7187 27.1082 34.7187 27.0782 34.7187 27.5182C34.7187 27.9582 34.7187 28.3482 34.7187 28.7182C34.6822 29.3034 34.602 29.885 34.4787 30.4582C34.3046 30.9653 34.0624 31.4464 33.7587 31.8882C33.2731 32.4282 32.8719 33.0384 32.5687 33.6982C32.4934 34.026 32.4598 34.362 32.4687 34.6982C32.4677 35.0089 32.508 35.3182 32.5887 35.6182C32.1798 35.6614 31.7675 35.6614 31.3587 35.6182C30.9687 35.5582 30.4887 34.7782 30.3587 34.5382C30.2943 34.4094 30.1627 34.3279 30.0187 34.3279C29.8746 34.3279 29.743 34.4094 29.6787 34.5382C29.4587 34.9182 28.9687 35.6082 28.6287 35.6482C27.9587 35.7282 26.5787 35.6482 25.4887 35.6482C25.4887 35.6482 25.6687 34.6482 25.2587 34.2882C24.8487 33.9282 24.4287 33.5082 24.1187 33.2282L23.2787 32.2682Z" fill="#FFFFFF"/>
<path fill-rule="evenodd" clip-rule="evenodd" d="M23.2787 32.2682C22.9987 31.9082 22.6487 31.1782 22.0387 30.2682C21.6887 29.7682 20.8287 28.8182 20.5687 28.3282C20.3812 28.0304 20.3268 27.6679 20.4187 27.3282C20.5756 26.6824 21.1882 26.254 21.8487 26.3282C22.3595 26.4308 22.8289 26.6812 23.1987 27.0482C23.4568 27.2914 23.6943 27.5556 23.9087 27.8382C24.0687 28.0382 24.1087 28.1182 24.2887 28.3482C24.4687 28.5782 24.5887 28.8082 24.4987 28.4682C24.4287 27.9682 24.3087 27.1282 24.1387 26.3782C24.0087 25.8082 23.9787 25.7182 23.8587 25.2882C23.7387 24.8582 23.6687 24.4982 23.5387 24.0082C23.4198 23.5268 23.3264 23.0395 23.2587 22.5482C23.1326 21.9199 23.2243 21.2674 23.5187 20.6982C23.8681 20.3696 24.3806 20.2828 24.8187 20.4782C25.2593 20.8036 25.5878 21.2579 25.7587 21.7782C26.0207 22.4186 26.1956 23.0913 26.2787 23.7782C26.4387 24.7782 26.7487 26.2382 26.7587 26.5382C26.7587 26.1682 26.6887 25.3882 26.7587 25.0382C26.828 24.6733 27.0816 24.3705 27.4287 24.2382C27.7265 24.1468 28.0415 24.1263 28.3487 24.1782C28.6587 24.243 28.9333 24.4214 29.1187 24.6782C29.3503 25.2616 29.4789 25.8808 29.4987 26.5082C29.5254 25.9588 29.6195 25.4147 29.7787 24.8882C29.9458 24.6528 30.1898 24.483 30.4687 24.4082C30.7993 24.3478 31.1381 24.3478 31.4687 24.4082C31.7398 24.4988 31.9769 24.6697 32.1487 24.8982C32.3604 25.4286 32.4886 25.9886 32.5287 26.5582C32.5287 26.6982 32.5987 26.1682 32.8187 25.8182C32.933 25.4788 33.2197 25.2262 33.5708 25.1555C33.9219 25.0848 34.284 25.2068 34.5208 25.4755C34.7576 25.7442 34.833 26.1188 34.7187 26.4582C34.7187 27.1082 34.7187 27.0782 34.7187 27.5182C34.7187 27.9582 34.7187 28.3482 34.7187 28.7182C34.6822 29.3034 34.602 29.885 34.4787 30.4582C34.3046 30.9653 34.0624 31.4464 33.7587 31.8882C33.2731 32.4282 32.8719 33.0384 32.5687 33.6982C32.4934 34.026 32.4598 34.362 32.4687 34.6982C32.4677 35.0089 32.508 35.3182 32.5887 35.6182C32.1798 35.6614 31.7675 35.6614 31.3587 35.6182C30.9687 35.5582 30.4887 34.7782 30.3587 34.5382C30.2943 34.4094 30.1627 34.3279 30.0187 34.3279C29.8746 34.3279 29.743 34.4094 29.6787 34.5382C29.4587 34.9182 28.9687 35.6082 28.6287 35.6482C27.9587 35.7282 26.5787 35.6482 25.4887 35.6482C25.4887 35.6482 25.6687 34.6482 25.2587 34.2882C24.8487 33.9282 24.4287 33.5082 24.1187 33.2282L23.2787 32.2682Z" stroke="#000000" stroke-width="0.75" stroke-linecap="round" stroke-linejoin="round"/>
<path d="M31.7587 32.8141V29.3623C31.7587 29.1557 31.5908 28.9882 31.3837 28.9882C31.1766 28.9882 31.0087 29.1557 31.0087 29.3623V32.8141C31.0087 33.0207 31.1766 33.1882 31.3837 33.1882C31.5908 33.1882 31.7587 33.0207 31.7587 32.8141Z" fill="#000000"/>
<path d="M29.7787 32.8128L29.7587 29.3593C29.7575 29.1532 29.5886 28.987 29.3815 28.9882C29.1744 28.9894 29.0075 29.1575 29.0087 29.3636L29.0287 32.8171C29.0299 33.0233 29.1987 33.1894 29.4058 33.1882C29.6129 33.187 29.7799 33.019 29.7787 32.8128Z" fill="#000000"/>
<path d="M27.0087 29.3672L27.0287 32.8136C27.0299 33.0217 27.1987 33.1894 27.4058 33.1882C27.613 33.187 27.7799 33.0173 27.7787 32.8092L27.7587 29.3628C27.7574 29.1547 27.5886 28.987 27.3815 28.9882C27.1744 28.9894 27.0075 29.1591 27.0087 29.3672Z" fill="#000000"/>
</g>
<defs>
<filter id="cursor_pointer_shadow" x="-4.99134" y="-4.01178" width="64" height="64" filterUnits="userSpaceOnUse" color-interpolation-filters="sRGB">
<feFlood flood-opacity="0" result="BackgroundImageFix"/>
<feColorMatrix in="SourceAlpha" type="matrix" values="0 0 0 0 0 0 0 0 0 0 0 0 0 0 0 0 0 0 127 0" result="hardAlpha"/>
<feMorphology radius="10" operator="dilate" in="SourceAlpha" result="effect1_dropShadow"/>
<feOffset/>
<feGaussianBlur stdDeviation="5"/>
<feComposite in2="hardAlpha" operator="out"/>
<feColorMatrix type="matrix" values="0 0 0 0 0 0 0 0 0 0 0 0 0 0 0 0 0 0 0.02 0"/>
<feBlend mode="normal" in2="BackgroundImageFix" result="effect1_dropShadow"/>
<feBlend mode="normal" in="SourceGraphic" in2="effect1_dropShadow" result="shape"/>
</filter>
</defs>
</svg>
