<svg preserveAspectRatio="none" width="100%" height="100%" overflow="visible" style="display: block;" viewBox="0 0 186 52" fill="none" xmlns="http://www.w3.org/2000/svg">
<g id="eero-logo">
<path id="path4" d="M15.1621 10.0011C13.064 9.97563 10.984 10.3913 9.05598 11.2212C7.2537 12.0093 5.62599 13.1493 4.26775 14.5747C2.90505 16.0277 1.84157 17.7358 1.1382 19.6014C0.374026 21.6211 -0.0114637 23.7649 0.0011241 25.9249C-0.0231728 28.1364 0.346584 30.3345 1.09299 32.4157C1.78173 34.3019 2.84657 36.0277 4.22255 37.4878C5.59697 38.9227 7.25507 40.0542 9.09075 40.8099C11.0939 41.6161 13.2366 42.0166 15.3951 41.9881C17.9628 42.0159 20.5073 41.4979 22.8608 40.4683C25.1565 39.3998 27.1027 37.7003 28.4731 35.567L25.7539 33.2802C24.6833 34.9599 23.1723 36.3118 21.3864 37.188C19.5501 38.1517 17.5095 38.6586 15.4368 38.666C13.0861 38.666 11.1423 38.2128 9.65755 37.317C6.99358 35.7667 5.04784 33.2248 4.24341 30.244C3.95125 29.1831 3.78435 28.0915 3.74616 26.9916V26.8626H29.419V24.2063C29.4147 22.4388 29.1065 20.6853 28.5079 19.0227C27.9053 17.3362 26.9818 15.7829 25.7887 14.4492C24.5404 13.0746 23.0197 11.9764 21.3238 11.2247C19.3755 10.3949 17.2752 9.98397 15.1586 10.0185L15.1621 10.0011ZM25.6739 23.5544H3.71486V23.4255C3.79172 22.6515 3.97304 21.8916 4.25384 21.1666C4.67314 19.9522 5.27976 18.8112 6.0516 17.7852C6.98947 16.5445 8.15858 15.4979 9.49411 14.7036C10.9407 13.8078 12.7801 13.3546 14.95 13.3546C17.77 13.3472 20.4865 14.4195 22.5444 16.3525C23.4952 17.2676 24.2686 18.3515 24.8255 19.5491C25.3837 20.7754 25.6685 22.1089 25.66 23.4568V23.5545L25.6739 23.5544ZM49.0378 10.0185C46.9398 9.99305 44.8597 10.4087 42.9317 11.2386C41.1294 12.0268 39.5017 13.1668 38.1435 14.5921C36.7808 16.0451 35.7173 17.7533 35.0139 19.6188C34.2561 21.6385 33.8765 23.7811 33.8942 25.9388C33.8699 28.1503 34.2397 30.3484 34.9861 32.4297C35.6639 34.3114 36.7155 36.0357 38.0774 37.4982C39.4518 38.9332 41.1099 40.0647 42.9456 40.8203C44.9488 41.6266 47.0915 42.0271 49.2499 41.9986C51.8176 42.0263 54.3621 41.5083 56.7156 40.4787C59.0114 39.4103 60.9575 37.7107 62.328 35.5775L59.6087 33.2907C58.5467 34.966 57.047 36.3175 55.2726 37.1984C53.4362 38.1621 51.3957 38.669 49.3229 38.6765C46.9723 38.6765 45.0285 38.2233 43.5437 37.3274C40.8797 35.7771 38.934 33.2352 38.1296 30.2544C37.8374 29.1936 37.6705 28.102 37.6323 27.0021V26.8731H63.3051V24.2168C63.2998 22.4453 62.9893 20.6881 62.3871 19.0227C61.7844 17.3362 60.8609 15.7829 59.6679 14.4492C58.4196 13.0746 56.8989 11.9764 55.203 11.2247C53.2547 10.3949 51.1544 9.98397 49.0378 10.0185ZM59.5531 23.5544H37.5906V23.4255C37.6674 22.6515 37.8487 21.8916 38.1296 21.1666C38.5489 19.9522 39.1555 18.8112 39.9273 17.7852C40.8652 16.5445 42.0343 15.4979 43.3698 14.7036C44.8164 13.8078 46.6559 13.3546 48.8257 13.3546C51.6457 13.3472 54.3622 14.4195 56.4201 16.3525C57.3709 17.2676 58.1443 18.3515 58.7012 19.5491C59.2594 20.7754 59.5442 22.1089 59.5357 23.4568V23.5545L59.5531 23.5544ZM97.0591 10.0185C94.8596 9.99805 92.6763 10.3979 90.6261 11.1968C88.7311 11.9333 87.0085 13.0549 85.5667 14.491C84.1526 15.9513 83.0364 17.6742 82.2806 19.563C80.7122 23.6994 80.7122 28.2689 82.2806 32.4053C83.0234 34.3071 84.141 36.0393 85.5667 37.4982C87.0047 38.9459 88.7278 40.0773 90.6261 40.8203C92.6763 41.6192 94.8596 42.0191 97.0591 41.9986C99.2457 42.0154 101.415 41.6118 103.45 40.8099C105.346 40.0618 107.068 38.9304 108.508 37.4863C109.949 36.0421 111.077 34.3161 111.824 32.4157C113.392 28.2794 113.392 23.7099 111.824 19.5735C111.077 17.6731 109.949 15.9471 108.508 14.503C107.068 13.0588 105.346 11.9275 103.45 11.1794C101.415 10.3797 99.2452 9.97969 97.0591 10.0011V10.0185ZM97.0591 38.6834C95.3113 38.7017 93.5793 38.3514 91.9753 37.6551C90.5135 37.021 89.1938 36.0987 88.0947 34.943C87.0177 33.7842 86.1892 32.4163 85.6606 30.9237C84.5457 27.7423 84.5457 24.2749 85.6606 21.0934C86.1892 19.6008 87.0177 18.2329 88.0947 17.0741C89.1911 15.9152 90.5115 14.9924 91.9753 14.362C95.2245 13.0167 98.8729 13.0167 102.122 14.362C103.584 14.9961 104.904 15.9184 106.003 17.0741C107.08 18.2329 107.908 19.6008 108.437 21.0934C109.552 24.2749 109.552 27.7423 108.437 30.9237C107.908 32.4163 107.08 33.7842 106.003 34.943C104.906 36.1019 103.586 37.0247 102.122 37.6551C100.524 38.3438 98.7988 38.6882 97.0591 38.666V38.6834ZM67.7143 41.2247H71.442V24.6002C71.4309 23.1633 71.6312 21.7327 72.0366 20.3544C72.4083 19.0853 73.0355 17.906 73.8795 16.8893C74.7384 15.881 75.8209 15.0882 77.0404 14.5747C78.4337 14.0038 79.9271 13.7193 81.4322 13.738V10.3079C77.096 10.4089 73.7091 11.7266 71.3481 14.2574C67.4674 18.4057 67.7213 24.4434 67.7213 24.4991V41.2317L67.7143 41.2247Z" fill="var(--fill-0, #1D262B)"/>
</g>
</svg>
