<svg preserveAspectRatio="none" width="100%" height="100%" overflow="visible" style="display: block;" viewBox="0 0 40 40" fill="none" xmlns="http://www.w3.org/2000/svg">
<g id="users">
<g id="base">
<path d="M23.3338 33.3333C25.1747 33.3333 26.7146 31.804 26.1309 30.0581C25.9962 29.6551 25.8365 29.2581 25.6522 28.8687C24.9821 27.4532 24 26.1671 22.7619 25.0838C21.5238 24.0004 20.0539 23.141 18.4362 22.5547C16.8186 21.9684 15.0847 21.6667 13.3338 21.6667C11.5828 21.6667 9.84901 21.9684 8.23134 22.5547C6.61366 23.141 5.14381 24.0004 3.90569 25.0838C2.66758 26.1671 1.68545 27.4532 1.01539 28.8687C0.831067 29.2581 0.671353 29.6551 0.536655 30.0581C-0.0470009 31.804 1.49283 33.3333 3.33378 33.3333H23.3338Z" fill="var(--fill-0, #FDFCFF)"/>
<path fill-rule="evenodd" clip-rule="evenodd" d="M28.2161 31.6667C28.0491 30.4884 27.7054 29.3327 27.192 28.2309C26.4382 26.6132 25.3333 25.1434 23.9404 23.9052C23.5447 23.5536 23.1281 23.2225 22.6925 22.9134C23.0731 22.7332 23.4659 22.5711 23.8691 22.4279C25.2846 21.9253 26.8017 21.6667 28.3338 21.6667C29.8659 21.6667 31.383 21.9253 32.7984 22.4279C34.2139 22.9304 35.5 23.667 36.5834 24.5956C37.6667 25.5242 38.5261 26.6266 39.1124 27.8398C39.204 28.0295 39.2887 28.2212 39.3664 28.4148C40.0518 30.1234 38.5081 31.6667 36.6671 31.6667H28.2161Z" fill="var(--fill-0, #FDFCFF)"/>
<path d="M34.1672 13.3333C34.1672 16.555 31.5555 19.1667 28.3339 19.1667C25.1122 19.1667 22.5006 16.555 22.5006 13.3333C22.5006 10.1117 25.1122 7.5 28.3339 7.5C31.5555 7.5 34.1672 10.1117 34.1672 13.3333Z" fill="var(--fill-0, #FDFCFF)"/>
<path d="M20.0004 11.6667C20.0004 15.3486 17.0157 18.3333 13.3338 18.3333C9.65188 18.3333 6.66712 15.3486 6.66712 11.6667C6.66712 7.98477 9.65188 5 13.3338 5C17.0157 5 20.0004 7.98477 20.0004 11.6667Z" fill="var(--fill-0, #FDFCFF)"/>
</g>
</g>
</svg>
