<svg preserveAspectRatio="none" width="100%" height="100%" overflow="visible" style="display: block;" viewBox="0 0 40 40" fill="none" xmlns="http://www.w3.org/2000/svg">
<g id="eye.off">
<g id="base">
<path fill-rule="evenodd" clip-rule="evenodd" d="M35.2629 7.1297C35.9892 6.41373 35.9892 5.25293 35.2629 4.53697C34.5366 3.82101 33.3591 3.82101 32.6329 4.53697L2.8773 33.8703C2.15103 34.5863 2.15103 35.7471 2.8773 36.463C3.60357 37.179 4.78108 37.179 5.50734 36.463L9.40167 32.624C12.34 34.623 15.8922 36.0833 20 36.0833C30.3587 36.0833 37.1848 26.7969 39.5415 23.0028C40.1528 22.0185 40.1528 20.8148 39.5415 19.8305C38.2162 17.6969 35.4775 13.8263 31.4919 10.8472L35.2629 7.1297ZM25.6312 16.6247L22.987 19.2314C23.4472 19.8417 23.7194 20.5978 23.7194 21.4167C23.7194 23.4417 22.0542 25.0833 20 25.0833C19.1694 25.0833 18.4023 24.8149 17.7833 24.3613L15.1391 26.968C16.4428 28.0784 18.1419 28.75 20 28.75C24.1084 28.75 27.4389 25.4668 27.4389 21.4167C27.4389 19.5849 26.7576 17.91 25.6312 16.6247Z" fill="var(--fill-0, #FDFCFF)"/>
<path d="M20 6.75C22.4095 6.75 24.6279 7.25245 26.6433 8.07136L20.5265 14.1014C20.3526 14.0894 20.177 14.0833 20 14.0833C15.8916 14.0833 12.5611 17.3666 12.5611 21.4167C12.5611 21.5912 12.5673 21.7642 12.5795 21.9357L5.26915 29.1423C3.00981 26.8458 1.38716 24.4979 0.458513 23.0028C-0.152838 22.0185 -0.152837 20.8148 0.458513 19.8305C2.81516 16.0364 9.64131 6.75 20 6.75Z" fill="var(--fill-0, #FDFCFF)"/>
</g>
</g>
</svg>
