<svg preserveAspectRatio="none" width="100%" height="100%" overflow="visible" style="display: block;" viewBox="0 0 40 40" fill="none" xmlns="http://www.w3.org/2000/svg">
<g id="link">
<g id="base">
<path fill-rule="evenodd" clip-rule="evenodd" d="M15.2859 24.7137C14.6351 24.0628 14.6351 23.0075 15.2859 22.3566L22.357 15.2856C23.0079 14.6347 24.0631 14.6347 24.714 15.2856C25.3649 15.9365 25.3649 16.9917 24.714 17.6426L17.6429 24.7137C16.9921 25.3645 15.9368 25.3645 15.2859 24.7137Z" fill="var(--fill-0, #FDFCFF)"/>
<path fill-rule="evenodd" clip-rule="evenodd" d="M10.5719 22.3572C8.6193 24.3098 8.6193 27.4757 10.5719 29.4283C12.5245 31.3809 15.6904 31.3809 17.643 29.4283L20 27.0713C20.6509 26.4204 21.7062 26.4204 22.357 27.0713C23.0079 27.7221 23.0079 28.7774 22.357 29.4283L20 31.7853C16.7456 35.0397 11.4693 35.0397 8.2149 31.7853C4.96053 28.5309 4.96053 23.2546 8.2149 20.0002L10.5719 17.6432C11.2228 16.9923 12.2781 16.9923 12.9289 17.6432C13.5798 18.294 13.5798 19.3493 12.9289 20.0002L10.5719 22.3572ZM17.643 12.9291C16.9921 12.2782 16.9921 11.223 17.643 10.5721L20 8.21507C23.2544 4.9607 28.5308 4.9607 31.7851 8.21507C35.0395 11.4694 35.0395 16.7458 31.7851 20.0002L29.4281 22.3572C28.7772 23.0081 27.722 23.0081 27.0711 22.3572C26.4202 21.7063 26.4202 20.6511 27.0711 20.0002L29.4281 17.6432C31.3807 15.6905 31.3807 12.5247 29.4281 10.5721C27.4755 8.61947 24.3097 8.61947 22.357 10.5721L20 12.9291C19.3491 13.58 18.2939 13.58 17.643 12.9291Z" fill="var(--fill-0, #FDFCFF)"/>
</g>
</g>
</svg>
