<svg preserveAspectRatio="none" width="100%" height="100%" overflow="visible" style="display: block;" viewBox="0 0 52 52" fill="none" xmlns="http://www.w3.org/2000/svg">
<g id="olympus-logo-hover">
<g id="Vector">
<path d="M23.3213 41.8926C24.4998 41.7788 25.6847 41.6651 26.8759 41.7441C34.2133 42.354 41.5506 42.9639 48.8912 43.5548C50.3643 43.4095 50.3802 46.3105 48.8753 46.1209C41.6615 46.7213 34.4477 47.3249 27.2371 47.9474C25.4819 48.1149 23.7268 47.84 21.9843 47.7136C15.6608 47.1416 9.3277 46.6834 3.00731 46.0987C1.8161 46.1999 1.94282 44.7683 2.09806 43.9909C2.38636 43.5896 2.91543 43.5801 3.3558 43.5264C10.0152 43.0081 16.6651 42.4235 23.3213 41.8926Z" fill="var(--fill-0, #334CE1)"/>
<path fill-rule="evenodd" clip-rule="evenodd" d="M23.5772 3.07996C30.1257 2.65966 37.254 3.82259 42.2881 8.33208C47.5377 13.0501 48.3139 21.7152 44.3062 27.4382C41.2078 31.8718 35.8188 34.0903 30.6104 34.7981C24.8001 35.5218 18.6318 35.0636 13.3727 32.3174C10.2711 30.7152 7.58137 28.1145 6.2761 24.8406C4.20732 19.8792 4.95816 13.7201 8.50329 9.60561C12.2163 5.28572 18.0362 3.44021 23.5772 3.07996ZM23.5487 9.72886C20.7259 10.4272 18.7173 13.0027 18.1375 15.7647C17.4817 18.9217 17.618 22.4578 19.3573 25.2609C22.0913 29.8304 29.812 29.8683 32.5905 25.3241C33.9433 23.2163 34.3361 20.625 34.2062 18.1601C34.0573 15.6098 33.2051 12.9617 31.2662 11.2046C29.1721 9.42865 26.1497 9.03995 23.5487 9.72886Z" fill="var(--fill-0, #334CE1)"/>
</g>
</g>
</svg>
