<svg width="80" height="80" viewBox="0 0 80 80" fill="none" xmlns="http://www.w3.org/2000/svg">
<g filter="url(#filter0_i_15544_921)">
<rect width="80" height="80" rx="16" fill="white" fill-opacity="0.1"/>
<g filter="url(#filter1_i_15544_921)">
<path d="M40 7.70117C57.6731 7.70117 72 22.0281 72 39.7012C72 57.3743 57.6731 71.7012 40 71.7012C22.327 71.7011 8 57.3742 8 39.7012C8 22.0281 22.327 7.70126 40 7.70117ZM40 29.0342C34.1091 29.0343 29.334 33.8102 29.334 39.7012C29.334 45.5921 34.1091 50.368 40 50.3682C45.891 50.3682 50.667 45.5922 50.667 39.7012C50.667 33.8101 45.891 29.0342 40 29.0342Z" fill="white"/>
</g>
</g>
<rect x="0.5" y="0.5" width="79" height="79" rx="15.5" fill="none" stroke="url(#glare_grad_15544_921)" stroke-width="1"/>
<defs>
<linearGradient id="glare_grad_15544_921" x1="0" y1="0" x2="1" y2="1" gradientUnits="objectBoundingBox">
<stop offset="0" stop-color="white" stop-opacity="1"/>
<stop offset="0.3" stop-color="white" stop-opacity="0"/>
<stop offset="0.7" stop-color="white" stop-opacity="0"/>
<stop offset="1" stop-color="white" stop-opacity="0.45"/>
<animateTransform attributeName="gradientTransform" attributeType="XML" type="rotate" from="0 0.5 0.5" to="360 0.5 0.5" dur="4s" repeatCount="indefinite"/>
</linearGradient>
<filter id="filter0_i_15544_921" x="0" y="0" width="80" height="80" filterUnits="userSpaceOnUse" color-interpolation-filters="sRGB">
<feFlood flood-opacity="0" result="BackgroundImageFix"/>
<feBlend mode="normal" in="SourceGraphic" in2="BackgroundImageFix" result="shape"/>
<feColorMatrix in="SourceAlpha" type="matrix" values="0 0 0 0 0 0 0 0 0 0 0 0 0 0 0 0 0 0 127 0" result="hardAlpha"/>
<feMorphology radius="51" operator="dilate" in="SourceAlpha" result="effect1_innerShadow_15544_921"/>
<feOffset dx="-5" dy="5"/>
<feGaussianBlur stdDeviation="12.5"/>
<feComposite in2="hardAlpha" operator="arithmetic" k2="-1" k3="1"/>
<feColorMatrix type="matrix" values="0 0 0 0 1 0 0 0 0 1 0 0 0 0 1 0 0 0 0.05 0"/>
<feBlend mode="normal" in2="shape" result="effect1_innerShadow_15544_921"/>
</filter>
<filter id="filter1_i_15544_921" x="7" y="6.70117" width="65" height="65" filterUnits="userSpaceOnUse" color-interpolation-filters="sRGB">
<feFlood flood-opacity="0" result="BackgroundImageFix"/>
<feBlend mode="normal" in="SourceGraphic" in2="BackgroundImageFix" result="shape"/>
<feColorMatrix in="SourceAlpha" type="matrix" values="0 0 0 0 0 0 0 0 0 0 0 0 0 0 0 0 0 0 127 0" result="hardAlpha"/>
<feOffset dx="-1" dy="-1"/>
<feGaussianBlur stdDeviation="2.65"/>
<feComposite in2="hardAlpha" operator="arithmetic" k2="-1" k3="1"/>
<feColorMatrix type="matrix" values="0 0 0 0 0 0 0 0 0 0 0 0 0 0 0 0 0 0 0.5 0"/>
<feBlend mode="normal" in2="shape" result="effect1_innerShadow_15544_921"/>
</filter>
</defs>
</svg>
