<svg preserveAspectRatio="none" width="100%" height="100%" overflow="visible" style="display: block;" viewBox="0 0 48.0001 1828" fill="none" xmlns="http://www.w3.org/2000/svg">
<g id="Ruller">
<rect x="2" y="6" width="44.0001" height="1724" fill="var(--fill-0, #0F0F0F)"/>
<rect x="2" y="6" width="44.0001" height="1724" stroke="var(--stroke-0, #3A3A3A)" stroke-width="4"/>
<line id="Line 10" y1="2" x2="24" y2="2" stroke="var(--stroke-0, #3A3A3A)" stroke-width="4"/>
<line id="Line 11" y1="98" x2="24" y2="98" stroke="var(--stroke-0, #3A3A3A)" stroke-width="4"/>
<line id="Line 13" y1="194" x2="24" y2="194" stroke="var(--stroke-0, #3A3A3A)" stroke-width="4"/>
<line id="Line 15" y1="290" x2="24" y2="290" stroke="var(--stroke-0, #3A3A3A)" stroke-width="4"/>
<line id="Line 17" y1="386" x2="24" y2="386" stroke="var(--stroke-0, #3A3A3A)" stroke-width="4"/>
<line id="Line 19" y1="482" x2="24" y2="482" stroke="var(--stroke-0, #3A3A3A)" stroke-width="4"/>
<line id="Line 21" y1="578" x2="24" y2="578" stroke="var(--stroke-0, #3A3A3A)" stroke-width="4"/>
<line id="Line 23" y1="674" x2="24" y2="674" stroke="var(--stroke-0, #3A3A3A)" stroke-width="4"/>
<line id="Line 25" y1="770" x2="24" y2="770" stroke="var(--stroke-0, #3A3A3A)" stroke-width="4"/>
<line id="Line 27" y1="866" x2="24" y2="866" stroke="var(--stroke-0, #3A3A3A)" stroke-width="4"/>
<line id="Line 29" y1="962" x2="24" y2="962" stroke="var(--stroke-0, #3A3A3A)" stroke-width="4"/>
<line id="Line 31" y1="1058" x2="24" y2="1058" stroke="var(--stroke-0, #3A3A3A)" stroke-width="4"/>
<line id="Line 33" y1="1154" x2="24" y2="1154" stroke="var(--stroke-0, #3A3A3A)" stroke-width="4"/>
<line id="Line 35" y1="1250" x2="24" y2="1250" stroke="var(--stroke-0, #3A3A3A)" stroke-width="4"/>
<line id="Line 36" y1="1346" x2="24" y2="1346" stroke="var(--stroke-0, #3A3A3A)" stroke-width="4"/>
<line id="Line 37" y1="1442" x2="24" y2="1442" stroke="var(--stroke-0, #3A3A3A)" stroke-width="4"/>
<line id="Line 38" y1="1538" x2="24" y2="1538" stroke="var(--stroke-0, #3A3A3A)" stroke-width="4"/>
<line id="Line 39" y1="1634" x2="24" y2="1634" stroke="var(--stroke-0, #3A3A3A)" stroke-width="4"/>
<line id="Line 40" y1="1730" x2="24" y2="1730" stroke="var(--stroke-0, #3A3A3A)" stroke-width="4"/>
<line id="Line 41" y1="1826" x2="24" y2="1826" stroke="var(--stroke-0, #3A3A3A)" stroke-width="4"/>
</g>
</svg>
