<svg preserveAspectRatio="none" width="100%" height="100%" overflow="visible" style="display: block;" viewBox="0 0 26.672 40" fill="none" xmlns="http://www.w3.org/2000/svg">
<g id="Figma-logo 1" clip-path="url(#clip0_0_39)">
<path id="path0_fill" d="M6.66931 40.0005C10.3493 40.0005 13.336 37.0138 13.336 33.3338V26.6671H6.66931C2.98931 26.6671 0.00264539 29.6538 0.00264539 33.3338C0.00264539 37.0138 2.98931 40.0005 6.66931 40.0005Z" fill="var(--fill-0, #0ACF83)"/>
<path id="path1_fill" d="M0.00268555 19.9997C0.00268555 16.3197 2.98935 13.333 6.66935 13.333H13.336V26.6663H6.66935C2.98935 26.6663 0.00268555 23.6797 0.00268555 19.9997Z" fill="var(--fill-0, #A259FF)"/>
<path id="path1_fill_1_" d="M0.00266718 6.66667C0.00266718 2.98667 2.98933 7.62939e-07 6.66933 7.62939e-07H13.336V13.3333H6.66933C2.98933 13.3333 0.00266718 10.3467 0.00266718 6.66667Z" fill="var(--fill-0, #F24E1E)"/>
<path id="path2_fill" d="M13.336 7.62939e-07H20.0027C23.6827 7.62939e-07 26.6693 2.98667 26.6693 6.66667C26.6693 10.3467 23.6827 13.3333 20.0027 13.3333H13.336V7.62939e-07Z" fill="var(--fill-0, #FF7262)"/>
<path id="path3_fill" d="M26.6693 19.9997C26.6693 23.6797 23.6826 26.6663 20.0026 26.6663C16.3226 26.6663 13.3359 23.6797 13.3359 19.9997C13.3359 16.3197 16.3226 13.333 20.0026 13.333C23.6826 13.333 26.6693 16.3197 26.6693 19.9997Z" fill="var(--fill-0, #1ABCFE)"/>
</g>
<defs>
<clipPath id="clip0_0_39">
<rect width="26.672" height="40" fill="white"/>
</clipPath>
</defs>
</svg>
