<svg preserveAspectRatio="none" width="100%" height="100%" overflow="visible" style="display: block;" viewBox="0 0 64 64" fill="none" xmlns="http://www.w3.org/2000/svg">
<g id="app" filter="url(#filter0_i_0_4)">
<rect width="64" height="64" rx="16" fill="var(--fill-0, #EAEAEA)" fill-opacity="0.1"/>
<g id="Vector">
<path d="M22.2167 53.8968C21.4928 54.1418 20.8708 53.954 20.2247 53.2954C19.6388 52.6971 18.1449 50.2958 17.0466 48.1856C15.1385 44.5199 13.9593 41.1024 13.6297 38.2845C13.2018 34.6287 14.233 31.8319 16.2922 31.0613C16.605 30.9444 19.0162 30.4102 20.5798 30.1123C21.0854 30.0152 21.3106 29.9468 21.3106 29.8884C21.3106 29.8417 21.2409 29.4275 21.1563 28.9685C20.9884 28.0587 20.8055 26.7414 20.6513 25.3296C20.4996 23.9384 20.4647 20.379 20.5885 18.8559C20.8223 15.9758 21.3958 13.8631 22.361 12.3263C23.0097 11.2939 23.8462 10.5146 24.669 10.1769C25.202 9.95795 25.9813 9.93992 26.4104 10.1358C27.8489 10.7938 28.7625 13.0689 28.928 16.4049C28.9485 16.8154 28.992 17.9348 29.0256 18.8926C29.0785 20.4257 29.1656 21.7013 29.2215 21.7548C29.2321 21.7647 29.7583 21.6347 30.3908 21.4649C31.3031 21.2211 31.6184 21.1614 31.9145 21.1782C32.8281 21.2292 33.618 21.9606 34.289 23.378L34.5652 23.9601L34.7947 23.8619C36.3582 23.192 37.3651 22.9818 38.6898 23.0484C40.5432 23.1417 42.2348 23.8668 43.9451 25.3023C45.0354 26.2171 46.1549 27.6183 47.1282 29.2863C47.7097 30.2833 50.7055 36.2961 50.8511 36.7582C51.1639 37.7546 50.7851 38.3659 49.8883 38.3124C49.3839 38.2826 48.8503 38.0313 48.0909 37.4666C46.9982 36.6537 45.8613 35.4285 44.2741 33.3525C42.6266 31.1975 41.6446 30.1459 40.3983 29.1999C38.8378 28.0164 37.0075 27.2508 35.5018 27.1525L34.9228 27.1146L34.59 27.4429C34.2063 27.8217 33.9165 28.3933 33.7797 29.0394C33.664 29.5855 33.6634 30.774 33.779 31.3194C33.9625 32.1858 34.6709 33.5248 35.6349 34.8278C37.7805 37.7284 40.749 40.093 43.817 41.345C44.7313 41.7181 45.564 41.9526 46.6854 42.1535C47.9647 42.3817 49.1532 42.6877 50.0195 43.0124C50.4306 43.166 50.9332 43.3115 51.1359 43.3364C51.8474 43.4216 52.0334 43.5783 52.3151 44.3265C52.5079 44.8384 52.516 45.2824 52.3393 45.6469C52.2579 45.816 51.9749 46.1295 51.5775 46.4921C48.3627 49.4276 45.4788 50.6068 41.7789 50.5004C40.0749 50.4513 38.5841 50.1652 36.7345 49.5321C34.1056 48.6328 31.6247 47.244 29.2091 45.3185C28.0367 44.385 26.0621 42.3886 25.1703 41.2361C24.7797 40.7318 24.4544 40.3263 24.4476 40.3343C24.4401 40.3424 24.4868 40.8095 24.5508 41.3717C25.0863 46.0661 24.7094 50.3157 23.5613 52.5391C23.2597 53.1231 22.6328 53.7562 22.2167 53.8968ZM40.8392 50.1005C41.3193 50.154 43.0987 50.141 43.5558 50.08C45.0945 49.876 46.2177 49.542 47.525 48.9008C48.8366 48.2571 49.8099 47.5736 51.1782 46.3335L51.7224 45.8403L51.5221 45.7053C51.2796 45.5418 51.0619 45.2314 50.9779 44.9279C50.8865 44.6002 50.9014 44.1076 51.0084 43.903C51.1235 43.681 51.1235 43.6766 51.0003 43.6766C50.9444 43.6766 50.4474 43.5217 49.8964 43.3321C48.6843 42.9154 48.0505 42.753 46.6232 42.4931C44.4551 42.0981 42.4985 41.2952 40.4971 39.9805C37.3813 37.9337 34.3649 34.3806 33.5023 31.7417C33.3269 31.205 33.3138 31.0999 33.3138 30.2491C33.3138 28.8964 33.5495 28.0667 34.1329 27.3664C34.2878 27.1799 34.345 27.071 34.2884 27.071C34.039 27.071 33.1646 27.2787 32.7329 27.4398C31.4107 27.9343 30.2191 29.1352 29.6413 30.5538C29.4081 31.1273 29.3347 31.4898 29.3049 32.2175C29.2756 32.9178 29.2582 32.9794 29.0816 32.9794C28.9958 32.9794 28.9006 32.8581 28.7464 32.5521C28.482 32.026 27.8365 31.4115 27.1953 31.0744C26.8433 30.8897 26.671 30.8387 26.3165 30.8163C25.7555 30.7802 25.4763 30.9102 25.1218 31.3735C24.3356 32.4022 24.0327 33.6492 24.0284 35.8714C24.0259 37.104 24.1236 38.5991 24.2411 39.1346C24.3201 39.4916 25.2206 40.8655 25.7437 41.4258C25.9576 41.6547 26.3756 42.1243 26.6735 42.4694C26.9708 42.814 27.4602 43.3109 27.7606 43.5727C28.0616 43.8346 28.5728 44.2873 28.8981 44.5784C29.5891 45.1966 31.4449 46.5394 32.3809 47.0972C35.0839 48.7093 38.1599 49.8014 40.8392 50.1005ZM21.2795 53.6157C21.7055 53.7687 22.3517 53.5305 22.7416 53.0777C23.8854 51.748 24.5004 48.6334 24.3947 44.7028C24.3499 43.0335 24.2765 42.0024 24.141 41.1267C23.922 39.7161 23.7218 37.6594 23.6901 36.4864C23.6322 34.3445 23.8356 33.0005 24.3866 31.8829C24.8475 30.9488 25.5229 30.4295 26.2773 30.4295C26.6461 30.4295 27.2649 30.6036 27.4988 30.7734C27.8135 31.0016 27.862 31.0203 27.7905 30.8866C27.6959 30.7106 27.1138 30.1913 26.7487 29.958C25.8699 29.3958 25.0266 29.3585 23.3318 29.8075C22.0177 30.1558 21.596 30.2535 19.9815 30.5868C17.8215 31.0321 16.6498 31.3002 16.3065 31.4289C15.2927 31.8083 14.4575 33.0055 14.0775 34.6238C13.8934 35.408 13.8803 37.8758 14.0551 38.9188C14.6646 42.5546 16.6162 47.1526 19.4137 51.544C19.7843 52.1255 20.1836 52.717 20.3018 52.8582C20.5568 53.1635 21.0201 53.5224 21.2795 53.6157ZM28.4908 31.2566C28.5859 31.4202 28.6736 31.5452 28.6848 31.5346C28.6954 31.5234 28.7464 31.2355 28.7974 30.894C28.9516 29.8635 29.4647 28.6178 30.0512 27.8497C30.1693 27.6942 30.2664 27.5474 30.2664 27.5225C30.2664 27.4977 30.5319 27.211 30.8566 26.8851L31.4474 26.2917L31.351 25.7643C31.0475 24.1001 31.2266 22.6603 31.8001 22.1571C31.9736 22.0048 32.0669 21.9712 32.3169 21.9712C32.4842 21.9712 32.6975 21.9998 32.7895 22.0352C33.08 22.1453 33.0228 22.057 32.6372 21.7995C32.1931 21.5029 31.8355 21.4301 31.4418 21.557C31.2913 21.6049 30.7484 21.7504 30.2353 21.8804C29.7222 22.0097 29.2819 22.1329 29.257 22.154C29.2178 22.1876 29.2564 22.5614 29.3621 23.1659C29.3801 23.2692 29.354 23.3718 29.2962 23.4302C29.1009 23.6249 29.099 23.6181 28.9031 22.22C28.7619 21.2106 28.7047 20.3691 28.6481 18.4884C28.6164 17.4106 28.5604 16.1934 28.5243 15.783C28.3284 13.5645 27.8023 11.9233 27.005 11.0445C26.2375 10.1993 25.3332 10.1109 24.2983 10.7795C22.8418 11.7211 21.7279 13.7878 21.2508 16.436C20.7135 19.4175 20.7135 23.47 21.2508 27.3391C21.402 28.4287 21.6259 29.7142 21.6794 29.8007C21.7073 29.8461 22.1247 29.7665 22.9537 29.5588C24.5869 29.1489 25.0645 29.0824 25.6547 29.1831C26.4104 29.3118 27.0168 29.6583 27.7214 30.3623C28.0486 30.69 28.395 31.0924 28.4908 31.2566ZM49.5462 37.8964C49.777 37.9673 50.2926 37.9642 50.2926 37.8926C50.2926 37.8584 50.3299 37.8304 50.3759 37.8304C50.4779 37.8304 50.6035 37.5692 50.6035 37.3565C50.6035 37.002 50.2291 36.1643 48.8273 33.3836C47.1499 30.0563 46.8328 29.4642 46.2656 28.5948C44.6722 26.1531 42.6764 24.4409 40.6526 23.7791C38.7271 23.1491 36.8968 23.2884 34.9445 24.2139C33.6839 24.8122 32.6527 25.561 31.4536 26.7514C30.4144 27.7825 29.7831 28.7129 29.423 29.7447C29.1917 30.4058 29.2632 30.4668 29.5642 29.8654C30.6756 27.6438 32.9301 26.474 35.5528 26.7576C37.8085 27.0014 39.9194 28.1184 42.2 30.274C42.6472 30.6963 43.8232 32.1261 44.7487 33.3718C45.1206 33.8725 45.7071 34.5927 46.0305 34.9459C46.0659 34.9845 46.3029 35.2575 46.5579 35.5529C47.4752 36.6171 48.8267 37.6768 49.5462 37.8964ZM31.611 25.8645C31.6315 25.9466 31.6663 26.0131 31.6881 26.0131C31.7099 26.0125 31.9238 25.844 32.1633 25.6381C32.4027 25.4329 32.9556 25.0236 33.3916 24.7295C33.8275 24.4347 34.1845 24.1666 34.1845 24.1336C34.1845 23.9838 33.7361 23.0602 33.4992 22.7225C33.182 22.2703 32.8803 22.1236 32.3691 22.1727C32.1004 22.1988 32.0152 22.2386 31.8815 22.3978C31.5177 22.8344 31.3715 23.865 31.5034 25.0715C31.542 25.426 31.5898 25.783 31.611 25.8645ZM29.8292 25.7662C29.7663 25.7998 29.701 25.8272 29.6842 25.8272C29.6438 25.8272 29.5431 25.5075 29.433 25.0305L29.3428 24.638L29.5033 24.6573C29.6475 24.6747 29.6774 24.7282 29.8037 25.1909C29.9386 25.686 29.9392 25.7071 29.8292 25.7662Z" fill="#7B4E22"/>
<path d="M29.0287 32.9644C28.9758 32.9458 28.928 32.911 28.9018 32.8618C28.7607 32.5987 28.0616 32.5229 27.6617 32.7269C27.0447 33.0416 26.5932 33.9291 26.378 35.2494C26.2692 35.9167 26.2592 37.3913 26.3581 38.1725C26.3967 38.4804 26.4353 38.9704 26.4427 39.2609C26.4552 39.7435 26.6019 40.3561 26.7257 40.4425C26.7854 40.4842 27.1424 41.8606 27.194 42.2468C27.2264 42.4912 27.2152 42.5627 27.1405 42.5913C27.0833 42.6131 27.0584 42.6747 27.0777 42.7474C27.1132 42.8842 27.4726 43.2176 27.6916 43.3177C27.7724 43.3544 27.8557 43.4434 27.8775 43.5149C27.9136 43.6349 28.1045 43.8551 28.3993 44.1343C28.1667 43.9285 27.9304 43.7208 27.7606 43.5727C27.4602 43.3109 26.9708 42.814 26.6735 42.4694C26.3756 42.1243 25.9576 41.6547 25.7437 41.4258C25.2206 40.8655 24.3201 39.4916 24.2411 39.1346C24.1236 38.5991 24.0259 37.104 24.0284 35.8714C24.0327 33.6492 24.3356 32.4022 25.1218 31.3735C25.4763 30.9102 25.7555 30.7802 26.3165 30.8163C26.671 30.8387 26.8433 30.8897 27.1953 31.0744C27.8365 31.4115 28.482 32.026 28.7464 32.5521C28.8701 32.7965 28.9553 32.9234 29.0287 32.9644ZM29.8292 25.7662C29.9392 25.7071 29.9386 25.686 29.8037 25.1909C29.6774 24.7282 29.6475 24.6747 29.5033 24.6573L29.3428 24.638L29.433 25.0305C29.4622 25.1561 29.4902 25.2705 29.5169 25.3713C29.2719 24.4869 29.0865 23.5695 28.9497 22.5514C29.1002 23.6174 29.1177 23.6081 29.2962 23.4302C29.3391 23.3873 29.3639 23.3201 29.3677 23.2468C29.5169 24.1287 29.7943 25.2208 30.1532 26.3179L30.466 27.275L31.1078 26.6332L30.8566 26.8851C30.5319 27.211 30.2664 27.4977 30.2664 27.5225C30.2664 27.5275 30.262 27.5381 30.2545 27.5524L30.1022 27.1506C29.9025 26.6257 29.7278 26.1058 29.5748 25.5759C29.6233 25.7351 29.6625 25.8272 29.6842 25.8272C29.701 25.8272 29.7663 25.7998 29.8292 25.7662ZM29.6301 30.5812C29.5555 30.7939 29.5219 30.9767 29.543 31.1061C29.5704 31.2747 29.5493 31.358 29.456 31.4581C29.3546 31.5657 29.3279 31.7007 29.3055 32.2219C29.303 32.2803 29.2999 32.3375 29.2968 32.3923C29.2993 32.3388 29.3018 32.2809 29.3049 32.2175C29.3341 31.501 29.4056 31.1391 29.6301 30.5812ZM32.7329 27.4398C32.7678 27.4268 32.8063 27.4131 32.8461 27.4C32.1216 27.6631 31.4829 28.0761 30.9076 28.6513C31.443 28.1115 32.0718 27.6874 32.7329 27.4398ZM31.9997 46.8596C32.1023 46.9243 32.2037 46.9871 32.3026 47.0468C33.3008 47.6489 34.35 48.1788 35.4122 48.6241C34.3773 48.1912 33.3549 47.6781 32.3809 47.0972C32.2665 47.0288 32.1377 46.9486 31.9997 46.8596ZM34.3052 27.1146C34.3008 27.053 34.1391 27.0822 33.7318 27.16C33.9743 27.1065 34.1852 27.071 34.2884 27.071C34.3095 27.071 34.3151 27.0859 34.3052 27.1146ZM29.2918 22.7324C29.252 22.46 29.2358 22.2734 29.2445 22.1944L29.2576 22.381C29.2657 22.4917 29.2769 22.6087 29.2918 22.7324ZM31.4008 21.5694C31.4163 21.5644 31.43 21.5601 31.4418 21.557C31.8355 21.4301 32.1931 21.5029 32.6372 21.7995C32.213 21.5166 31.8641 21.4388 31.4909 21.5445C31.4698 21.5507 31.4387 21.5588 31.4008 21.5694ZM29.2644 32.7891C29.2557 32.8587 29.2476 32.9054 29.2402 32.9172C29.2147 32.9588 29.1662 32.9781 29.1127 32.9787C29.1973 32.9731 29.2389 32.9402 29.2644 32.7891ZM28.9696 44.6412C29.1195 44.7675 29.2806 44.8999 29.4498 45.0349C29.2644 44.8887 29.1009 44.755 28.9696 44.6412ZM28.6356 18.0829C28.6133 17.4429 28.5853 16.8011 28.5604 16.334C28.5859 16.8011 28.6139 17.446 28.6356 18.0829Z" fill="#A46B2C"/>
<path d="M33.6111 22.8991C33.5203 22.7772 33.4525 22.7411 33.3418 22.7299C33.2124 22.7175 33.1154 22.7523 33.0364 22.8387C32.973 22.909 32.8753 22.9662 32.8188 22.9662C32.7031 22.9662 32.5669 22.8493 32.5687 22.7517C32.5687 22.7156 32.598 22.728 32.6334 22.7797C32.6838 22.8537 32.6937 22.8406 32.6788 22.7175C32.6651 22.5968 32.6297 22.5663 32.5233 22.5813C32.4475 22.5918 32.3026 22.539 32.2012 22.4637C32.055 22.3561 31.9617 22.3313 31.8753 22.4059C31.8772 22.4034 31.8797 22.4003 31.8815 22.3978C32.0152 22.2386 32.1004 22.1988 32.3691 22.1727C32.8803 22.1236 33.182 22.2703 33.4992 22.7225C33.5328 22.771 33.5707 22.8307 33.6111 22.8991ZM32.0146 25.7637C32.1545 25.6138 32.2024 25.4359 32.1962 25.1275C32.1956 25.1156 32.1956 25.1044 32.195 25.0939C32.1931 25.0292 32.1925 24.9913 32.2105 24.9757C32.236 24.9539 32.2988 24.9763 32.4506 25.0304C32.4686 25.0367 32.4866 25.0435 32.5065 25.0503L32.7727 25.1442L33.1652 24.8793C33.664 24.5428 33.7759 24.3413 33.6453 24.0161C33.5533 23.7847 33.5539 23.781 33.7467 23.6075L33.9115 23.4594C34.062 23.766 34.1845 24.0553 34.1845 24.1336C34.1845 24.1666 33.8275 24.4347 33.3916 24.7295C32.9556 25.0236 32.4027 25.4329 32.1633 25.6381C32.1123 25.6823 32.0619 25.7245 32.0146 25.7637ZM31.226 27.8534C31.4238 27.6985 31.6203 27.5648 31.7913 27.4728C32.1589 27.275 32.2149 27.1245 31.9841 26.9528C31.8716 26.8695 31.8728 26.8633 32.0152 26.7843C32.2155 26.6736 32.2416 26.6773 32.2889 26.826C32.3113 26.8962 32.3616 26.9416 32.4014 26.9273C32.4419 26.913 32.5252 26.9273 32.5874 26.9597C32.7367 27.0362 33.6248 26.8316 33.6248 26.7196C33.6248 26.6058 33.83 26.5113 33.988 26.5529C34.062 26.5722 34.1223 26.6238 34.1223 26.668C34.1223 26.7277 34.2131 26.7401 34.4799 26.7159C34.6124 26.7041 34.8195 26.7072 35.0552 26.7208C33.598 26.6642 32.2746 27.066 31.226 27.8534ZM27.2245 30.616C27.2599 30.616 27.3787 30.6819 27.4876 30.7622C27.778 30.9773 27.8501 31.0159 27.8079 30.922C27.8495 31.0147 27.7824 30.9786 27.4988 30.7734C27.2649 30.6036 26.6461 30.4295 26.2773 30.4295C25.9837 30.4295 25.7014 30.5084 25.4395 30.6595C25.5011 30.6197 25.5527 30.5899 25.5888 30.575C25.7014 30.5271 25.8096 30.4462 25.8289 30.3958C25.8481 30.3455 25.9732 30.287 26.1062 30.2659C26.3687 30.2236 26.4104 30.1471 26.2393 30.0202C26.1485 29.953 26.1759 29.9499 26.4104 30.0015C26.679 30.0606 26.8949 30.1807 26.7338 30.1807C26.6927 30.1807 26.6591 30.2335 26.6591 30.2982C26.6591 30.3778 26.7406 30.4487 26.9092 30.5159C27.0466 30.5712 27.1884 30.616 27.2245 30.616ZM38.5256 27.6258C38.7408 27.7153 38.9249 27.7819 39.0045 27.7931C39.1071 27.8074 39.2259 27.8229 39.2688 27.8285C39.3117 27.8335 39.3465 27.8615 39.3465 27.8901C39.3465 27.9181 39.3739 27.9417 39.4081 27.9417C39.4977 27.9417 39.7178 28.1426 39.6855 28.1948C39.6706 28.2197 39.9057 28.4094 40.2079 28.6165C40.5873 28.8758 40.7782 28.9729 40.8224 28.9287C40.8927 28.8584 41.1502 29.0873 41.1502 29.2198C41.1502 29.2602 41.4897 29.611 41.9046 29.999C41.9095 30.004 41.9145 30.0084 41.9195 30.0134C40.7614 28.9554 39.6438 28.1668 38.5256 27.6258ZM34.0353 27.2818C34.0713 27.377 34.09 27.3751 34.2237 27.2501C34.1988 27.2849 34.1684 27.3235 34.1329 27.3664C33.9942 27.5325 33.876 27.7054 33.7753 27.8913C33.9046 27.6307 33.9096 27.5872 33.8219 27.6096C33.6857 27.6457 33.358 27.395 33.399 27.2868C33.4083 27.2632 33.409 27.2476 33.3978 27.2395C33.511 27.2103 33.6248 27.1836 33.7318 27.16C33.8848 27.1307 34.0029 27.1083 34.0912 27.0952C34.0253 27.1263 34.001 27.1935 34.0353 27.2818ZM31.6495 22.8332C31.6097 22.9967 31.6197 23.2156 31.6601 23.8183C31.6812 24.1249 31.6707 24.3432 31.634 24.3662C31.5998 24.3867 31.5724 24.4601 31.5724 24.5285C31.5724 24.6013 31.545 24.6355 31.5052 24.6113C31.4866 24.5994 31.4735 24.6057 31.4667 24.6312C31.4275 23.9091 31.4928 23.276 31.6495 22.8332ZM25.1304 30.8803C24.8475 31.1229 24.595 31.4606 24.3866 31.8829C23.8798 32.911 23.667 34.1299 23.6813 35.9858C23.6695 35.3943 23.6807 34.8874 23.718 34.5186C23.7622 34.0858 23.7566 33.9744 23.6925 33.9744C23.5968 33.9744 23.5893 33.8899 23.6708 33.7406C23.7864 33.5298 23.9127 33.1908 24.0477 32.7312C24.1223 32.475 24.2324 32.1671 24.2908 32.0471C24.3499 31.927 24.3872 31.7803 24.3735 31.7212C24.3605 31.6621 24.386 31.5607 24.4314 31.496C24.511 31.3828 24.8369 31.1036 25.1304 30.8803ZM49.5462 37.8964C49.5319 37.8926 49.5176 37.8876 49.5033 37.8827C49.5406 37.8827 49.5587 37.8609 49.5823 37.8223C49.6115 37.7751 49.7614 37.7645 50.0425 37.7906C50.3025 37.8149 50.4014 37.8217 50.458 37.7825C50.4306 37.8124 50.4027 37.8304 50.3759 37.8304C50.3299 37.8304 50.2926 37.8584 50.2926 37.8926C50.2926 37.9642 49.777 37.9673 49.5462 37.8964ZM29.7346 29.0089C29.6668 29.1582 29.6631 29.221 29.711 29.2502C29.7993 29.305 29.8608 29.2894 30.017 29.1053C29.8503 29.3429 29.6992 29.5961 29.5642 29.8654C29.5381 29.9176 29.5138 29.9648 29.4914 30.0071C29.5001 29.9879 29.5095 29.9673 29.5188 29.9462C29.6276 29.7055 29.6481 29.5998 29.5978 29.5494C29.5586 29.5102 29.5026 29.5649 29.4473 29.6756C29.5294 29.4493 29.6245 29.2279 29.7346 29.0089ZM33.2516 30.7112C33.2516 30.9792 33.1677 31.029 33.0408 30.8355C32.9332 30.6714 32.912 30.5569 32.9873 30.5488C33.0128 30.5463 33.0831 30.5352 33.1428 30.5233C33.2292 30.5072 33.2516 30.5463 33.2516 30.7112ZM48.7489 37.4896C48.2862 37.1898 47.7582 36.765 47.2687 36.2973C47.6133 36.6214 47.9006 36.8359 47.9783 36.8061C48.0822 36.7663 48.3646 36.9964 48.3646 37.1208C48.3646 37.1867 48.5281 37.3372 48.7489 37.4896ZM35.8967 26.8017C36.1536 26.8353 36.388 26.8757 36.5516 26.9174C36.7413 26.9659 37.0044 27.002 37.1356 26.997C37.2824 26.9914 37.4005 27.0231 37.4428 27.0803C37.4789 27.1282 37.7028 27.2495 37.9721 27.3782C37.2867 27.0965 36.5982 26.9062 35.8967 26.8017ZM30.4318 27.9031C30.3696 27.9977 30.3447 28.0617 30.3671 28.0841C30.3858 28.1028 30.3683 28.1787 30.3285 28.2527C30.2887 28.3267 30.2402 28.3721 30.2209 28.3522C30.1824 28.3136 30.0642 28.4386 29.9361 28.6389C30.081 28.3926 30.2452 28.1488 30.4318 27.9031ZM32.6919 28.0039C32.6919 28.0381 32.6639 28.0661 32.6297 28.0661C32.5955 28.0661 32.5675 28.0381 32.5675 28.0039C32.5675 27.9697 32.5955 27.9417 32.6297 27.9417C32.6639 27.9417 32.6919 27.9697 32.6919 28.0039ZM50.5824 37.5188C50.6203 37.3335 50.5793 37.0934 50.3846 36.6127C50.5444 36.9983 50.6035 37.2154 50.6035 37.3565C50.6035 37.4094 50.596 37.4653 50.5824 37.5188ZM33.274 25.1897C33.0918 25.3221 32.9009 25.4683 32.6919 25.635C32.1887 26.0355 31.5836 26.6064 31.1165 27.0977C31.2235 26.9833 31.3361 26.8677 31.4536 26.7514C32.088 26.122 32.6751 25.6157 33.274 25.1897ZM43.2056 31.4059C43.6764 31.9656 44.1945 32.6261 44.7487 33.3718C44.2561 32.7088 43.6926 31.9936 43.2056 31.4059ZM23.8741 39.0084C23.9506 39.7528 24.0439 40.5029 24.141 41.1267C24.0365 40.4562 23.9469 39.731 23.8741 39.0084ZM33.4575 28.7465C33.3586 29.17 33.3138 29.6601 33.3138 30.2491C33.3138 29.6427 33.3573 29.165 33.4575 28.7465ZM31.6613 25.9907C31.6763 26.0038 31.6955 26.005 31.7223 25.9938C31.7043 26.0062 31.6925 26.0131 31.6881 26.0131C31.68 26.0131 31.6707 26.005 31.6613 25.9907ZM31.611 25.8645C31.6023 25.8315 31.5892 25.7525 31.5743 25.6474C31.5892 25.7432 31.6041 25.829 31.6147 25.8738C31.6178 25.8862 31.6203 25.898 31.6234 25.9086C31.619 25.8949 31.6147 25.88 31.611 25.8645ZM29.2974 30.1663C29.2924 30.1931 29.2893 30.2161 29.2862 30.2366C29.2874 30.213 29.293 30.18 29.303 30.1377C29.3011 30.1471 29.2992 30.157 29.2974 30.1663ZM34.2504 27.0822C34.2604 27.0828 34.2685 27.0841 34.2759 27.0859L34.2504 27.0822Z" fill="#BF8A38"/>
<path d="M29.6301 30.5812C29.9299 29.8448 30.3721 29.1899 30.9076 28.6513C31.4829 28.0761 32.1216 27.6631 32.8461 27.4C33.0053 27.3459 33.2012 27.29 33.3978 27.2396C33.409 27.2477 33.4084 27.2632 33.399 27.2869C33.358 27.3951 33.6857 27.6457 33.8219 27.6096C33.9096 27.5873 33.9047 27.6308 33.7753 27.8914C33.636 28.1476 33.5315 28.4281 33.4575 28.7465C33.4569 28.7484 33.4562 28.7509 33.4556 28.7528C33.3567 29.1695 33.3138 29.6452 33.3138 30.2491C33.3138 31.0943 33.3269 31.2038 33.4992 31.7306C33.5029 31.743 33.5072 31.7561 33.5116 31.7685C33.5128 31.7735 33.5147 31.7785 33.5159 31.7828C33.8748 32.8575 34.5863 34.0796 35.5136 35.2893C34.5801 34.074 33.8661 32.8488 33.5159 31.7828C33.5116 31.7691 33.5066 31.7554 33.5023 31.7417L33.4992 31.7306C33.2684 31.0433 32.9506 30.6291 32.4786 30.3978C32.1688 30.246 32.078 30.2298 31.6794 30.256C30.9443 30.3045 30.3254 30.6951 29.8335 31.4221C29.4821 31.9408 29.3789 32.1653 29.303 32.5752C29.293 32.6305 29.2837 32.6784 29.2738 32.7194C29.2713 32.7449 29.2682 32.7679 29.2644 32.7891C29.2557 32.8587 29.2476 32.9054 29.2402 32.9172C29.2147 32.9588 29.1662 32.9781 29.1127 32.9787C29.1033 32.9794 29.0928 32.9794 29.0816 32.9794C29.0648 32.9794 29.048 32.9744 29.03 32.9651C28.9771 32.9527 28.9317 32.9178 28.9037 32.8656C28.839 32.7449 28.6618 32.6628 28.4491 32.6286C28.6611 32.6622 28.8384 32.743 28.9018 32.8618C28.928 32.911 28.9758 32.9458 29.0287 32.9644L29.03 32.9651C29.0523 32.9701 29.0766 32.9713 29.1015 32.9676C29.191 32.9545 29.2315 32.9054 29.2738 32.7194C29.2831 32.638 29.2905 32.5316 29.2968 32.3923C29.2999 32.3375 29.303 32.2803 29.3055 32.2219C29.3279 31.7007 29.3546 31.5657 29.456 31.4581C29.5493 31.358 29.5704 31.2747 29.543 31.1061C29.5219 30.9767 29.5555 30.7939 29.6301 30.5812ZM27.8284 43.4279C27.7917 43.3825 27.7413 43.3401 27.6916 43.3177C27.4726 43.2176 27.1132 42.8842 27.0777 42.7474C27.0584 42.6747 27.0833 42.6131 27.1405 42.5913C27.2152 42.5627 27.2264 42.4912 27.194 42.2468C27.1679 42.0527 27.0646 41.6081 26.9614 41.2088C27.2239 42.1087 27.5305 42.8998 27.8284 43.4279ZM26.8215 40.7044C26.7767 40.5539 26.7412 40.4531 26.7257 40.4425C26.6019 40.3561 26.4552 39.7435 26.4427 39.2609C26.4353 38.9704 26.3967 38.4804 26.3581 38.1725C26.3028 37.7371 26.2816 37.086 26.2922 36.4803C26.2916 37.3373 26.3581 38.4101 26.4695 39.0706C26.5634 39.6223 26.6834 40.1758 26.8215 40.7044ZM33.2516 30.7112C33.2516 30.5464 33.2292 30.5072 33.1428 30.5234C33.0831 30.5352 33.0128 30.5464 32.9873 30.5489C32.9121 30.557 32.9332 30.6714 33.0408 30.8356C33.1677 31.029 33.2516 30.9793 33.2516 30.7112ZM34.0353 27.2819C34.0011 27.1936 34.0253 27.1264 34.0912 27.0953C34.1634 27.0847 34.2162 27.0798 34.2504 27.0823L34.2759 27.086C34.2946 27.091 34.3046 27.1002 34.3052 27.1146C34.2952 27.145 34.2672 27.1911 34.2237 27.2502C34.09 27.3752 34.0713 27.377 34.0353 27.2819ZM32.6919 28.004C32.6919 27.9697 32.6639 27.9418 32.6297 27.9418C32.5955 27.9418 32.5675 27.9697 32.5675 28.004C32.5675 28.0382 32.5955 28.0661 32.6297 28.0661C32.6639 28.0661 32.6919 28.0382 32.6919 28.004ZM27.6611 32.7269C27.1542 32.9856 26.75 33.6592 26.5037 34.6306C26.7468 33.6517 27.1467 32.9894 27.6611 32.7269ZM28.0597 43.7867C27.9602 43.6717 27.8968 43.5789 27.8775 43.5149C27.8769 43.5136 27.8763 43.5118 27.8763 43.5106C27.9378 43.6151 27.9994 43.7077 28.0597 43.7867ZM31.9997 46.8596C31.9835 46.8497 31.968 46.8392 31.9518 46.8286C32.0718 46.9051 32.1881 46.9778 32.3001 47.0456C32.2018 46.9859 32.1017 46.9237 31.9997 46.8596Z" fill="#B87A33"/>
<path d="M21.2795 53.6157C21.0201 53.5224 20.5568 53.1635 20.3018 52.8582C20.1836 52.717 19.7843 52.1255 19.4137 51.544C16.6162 47.1526 14.6646 42.5546 14.0551 38.9188C13.8803 37.8758 13.8934 35.408 14.0775 34.6238C14.1092 34.49 14.1434 34.3588 14.1807 34.2313C14.1745 34.2562 14.1677 34.2805 14.1614 34.3054C14.0626 34.6941 14.0545 34.8645 14.1024 35.6226C14.2697 38.2994 14.723 40.0725 15.8382 42.4104C16.4987 43.796 18.1356 46.4654 18.7575 47.1725C19.1232 47.5873 19.808 48.1265 20.2918 48.3784C20.6731 48.5774 20.7601 48.5992 21.0929 48.5774C22.0494 48.5146 22.6496 47.5506 22.9829 45.5424C23.1303 44.6555 23.2404 43.2338 23.1981 42.7742C23.1434 42.1852 23.2808 42.6343 23.3592 43.3004C23.5153 44.6307 23.5551 45.1058 23.6092 46.2887C23.6807 47.8373 23.598 49.4276 23.3841 50.6354C23.2951 51.1355 23.2006 51.684 23.1739 51.855C23.1465 52.0261 23.0806 52.2885 23.0258 52.4384C22.9717 52.5877 22.9276 52.7226 22.9276 52.7369C22.9276 52.8482 23.0936 52.6082 23.2951 52.2077C23.3766 52.0453 23.4537 51.8712 23.5271 51.6859C23.3038 52.2599 23.0408 52.7301 22.7416 53.0777C22.3517 53.5305 21.7055 53.7687 21.2795 53.6157ZM15.1211 32.3388C15.4687 31.9053 15.8711 31.5918 16.3065 31.4289C16.6498 31.3002 17.8215 31.0321 19.9815 30.5868C21.3951 30.2951 21.8945 30.1838 22.8791 29.927C22.5246 30.0252 22.2441 30.1098 22.1837 30.1384C21.7838 30.33 21.0817 31.4712 20.7881 32.4078C20.451 33.4832 20.3571 34.2382 20.354 35.9025C20.3509 37.4617 20.4175 38.2683 20.6917 39.9904C20.8466 40.9631 20.8379 41.0459 20.6538 40.3493C19.8938 37.476 19.7327 34.5286 20.2309 32.6093C20.4094 31.9202 20.8167 31.0265 21.1488 30.5949C21.3149 30.3797 21.3485 30.3038 21.2676 30.3287C21.2054 30.3474 20.5953 30.4736 19.9112 30.6098C18.0672 30.9762 16.666 31.2946 16.309 31.4283C15.8792 31.59 15.4719 31.9091 15.1211 32.3388ZM16.1945 38.7634C16.3811 39.8461 16.4079 40.1416 16.2723 39.6247C16.2331 39.4761 16.1616 39.2143 16.1137 39.0432C15.9632 38.5096 15.7841 37.3286 15.7405 36.5841C15.6758 35.4702 15.8612 33.982 16.1566 33.2437C16.3861 32.6709 16.554 32.8973 16.3457 33.4993C16.0459 34.3651 15.9924 34.7923 15.9999 36.2756C16.0061 37.5313 16.026 37.7869 16.1945 38.7634ZM17.3153 31.7374C17.1007 31.9874 17.0404 32.0154 16.9023 31.9283C16.8357 31.886 16.8756 31.8108 17.0814 31.5869C17.37 31.2741 17.4216 31.2498 17.4801 31.4003C17.5037 31.4637 17.4428 31.5888 17.3153 31.7374Z" fill="#C59764"/>
<path d="M40.8392 50.1006C39.1252 49.909 37.2494 49.3935 35.4122 48.6241C34.35 48.1788 33.3008 47.649 32.3026 47.0469L32.3001 47.0456C32.1881 46.9778 32.0718 46.9051 31.9518 46.8286C31.1949 46.3379 30.1613 45.596 29.4498 45.035C29.4485 45.0337 29.4473 45.0331 29.446 45.0319C29.2781 44.8981 29.1183 44.7669 28.9696 44.6413C28.9448 44.6195 28.9205 44.5984 28.8981 44.5785C28.7563 44.451 28.5791 44.2936 28.3993 44.1344C28.2619 44.0044 28.1468 43.8868 28.0597 43.7867C27.9994 43.7077 27.9378 43.6151 27.8763 43.5106C27.8676 43.4838 27.8501 43.4552 27.8284 43.4279C27.5305 42.8998 27.2239 42.1087 26.9614 41.2088C26.9123 41.0204 26.8631 40.8419 26.8215 40.7044C26.6834 40.1758 26.5634 39.6223 26.4695 39.0706C26.4595 39.0109 26.4502 38.9475 26.4409 38.8816C26.5236 39.2647 26.689 39.488 27.5659 40.5359C28.5075 41.661 29.9996 43.1169 31.2888 44.1686C33.8904 46.2913 37.5094 47.792 40.8865 48.1496C42.3001 48.2989 44.2524 48.1963 45.5926 47.9015C47.367 47.5121 49.3964 46.5724 50.7049 45.5344L51.0868 45.2321L51.0408 45.104C51.1471 45.3466 51.3262 45.5736 51.5221 45.7054L51.7224 45.8404L51.1782 46.3336C49.81 47.5737 48.8366 48.2572 47.525 48.9009C46.2177 49.5421 45.0945 49.8761 43.5558 50.0801C43.0987 50.141 41.3193 50.1541 40.8392 50.1006ZM27.2245 30.6161C27.1884 30.6161 27.0466 30.5713 26.9092 30.516C26.7406 30.4488 26.6592 30.3779 26.6592 30.2983C26.6592 30.2336 26.6928 30.1808 26.7338 30.1808C26.8949 30.1808 26.6791 30.0607 26.4104 30.0016C26.1759 29.95 26.1486 29.9531 26.2394 30.0203C26.4104 30.1472 26.3687 30.2237 26.1063 30.266C25.9732 30.2871 25.8482 30.3456 25.8289 30.3959C25.8096 30.4463 25.7014 30.5272 25.5888 30.5751C25.5528 30.59 25.5011 30.6198 25.4396 30.6596C25.3332 30.7212 25.23 30.7952 25.1305 30.8804C24.8369 31.1037 24.511 31.383 24.4314 31.4961C24.386 31.5608 24.3605 31.6622 24.3736 31.7213C24.3873 31.7804 24.3499 31.9271 24.2909 32.0472C24.2324 32.1672 24.1223 32.4751 24.0477 32.7313C23.9127 33.1909 23.7865 33.5299 23.6708 33.7407C23.5893 33.89 23.5968 33.9745 23.6926 33.9745C23.7566 33.9745 23.7622 34.0859 23.7181 34.5187C23.6807 34.8875 23.6695 35.3944 23.6814 35.9852C23.6826 36.1476 23.6857 36.3142 23.6901 36.4865C23.7081 37.1408 23.7778 38.07 23.8742 39.0085C23.9469 39.7311 24.0365 40.4563 24.141 41.1268C24.2766 42.0024 24.3499 43.0336 24.3947 44.7029C24.4731 47.6054 24.1578 50.0632 23.5271 51.6859C23.4537 51.8712 23.3766 52.0453 23.2951 52.2077C23.0936 52.6082 22.9276 52.8482 22.9276 52.7369C22.9276 52.7226 22.9717 52.5877 23.0258 52.4384C23.0806 52.2885 23.1465 52.0261 23.1739 51.855C23.1751 51.8482 23.1764 51.8401 23.1776 51.8321C23.1913 51.8737 23.2808 51.648 23.3679 51.3165C23.7137 49.9999 23.8605 48.44 23.8605 46.0736C23.8605 43.783 23.6764 41.9216 23.1788 39.1677C22.9139 37.7043 22.8461 36.9978 22.8467 35.716C22.8474 33.9882 23.0712 32.8352 23.6384 31.6355C23.9681 30.9389 24.5135 30.3288 25.0359 30.0719C25.3164 29.9345 25.4688 29.9009 25.8196 29.9021C26.2213 29.9034 26.7699 30.0452 26.9359 30.1913C26.9683 30.2193 27.0385 30.2423 27.0914 30.2417C27.1094 30.2417 27.1163 30.2355 27.1138 30.2255C27.4173 30.47 27.7239 30.7629 27.7905 30.8866C27.7948 30.8954 27.7992 30.9028 27.8023 30.9103C27.8041 30.914 27.806 30.9184 27.8079 30.9221C27.8502 31.016 27.778 30.9775 27.4876 30.7623C27.3787 30.682 27.26 30.6161 27.2245 30.6161ZM38.5256 27.6259C38.3409 27.5369 38.1568 27.4542 37.9721 27.3783C37.7028 27.2496 37.4789 27.1283 37.4428 27.0804C37.4006 27.0232 37.2824 26.9915 37.1356 26.9971C37.0044 27.0021 36.7413 26.966 36.5516 26.9175C36.388 26.8758 36.1536 26.8354 35.8967 26.8018C35.7823 26.7844 35.6678 26.7701 35.5528 26.7576C35.3855 26.7396 35.2194 26.7272 35.0552 26.721C34.8195 26.7073 34.6124 26.7042 34.48 26.716C34.2132 26.7402 34.1223 26.7278 34.1223 26.6681C34.1223 26.6239 34.062 26.5723 33.988 26.553C33.83 26.5114 33.6248 26.6059 33.6248 26.7197C33.6248 26.8317 32.7367 27.0363 32.5874 26.9598C32.5252 26.9274 32.4419 26.9131 32.4015 26.9274C32.3617 26.9417 32.3113 26.8963 32.2889 26.8261C32.2578 26.7278 32.2354 26.693 32.1664 26.7122C32.2161 26.6899 32.2677 26.6675 32.3219 26.6445C33.0837 26.3192 33.4948 26.2153 34.3612 26.1307C35.6287 26.007 37.1468 26.2327 38.4242 26.7353C39.0997 27.0008 39.818 27.351 39.874 27.443C39.8957 27.4778 39.9586 27.5065 40.0133 27.5065C40.1818 27.5065 41.2739 28.2789 41.9288 28.8616C42.9656 29.7833 43.5179 30.4743 44.9738 32.6685C46.2743 34.6288 47.224 35.7856 48.3024 36.7229C49.0344 37.3585 49.3883 37.5892 49.8249 37.7142C49.9679 37.7553 50.0799 37.7851 50.1682 37.8019C50.1309 37.7988 50.0892 37.7951 50.0426 37.7907C49.7614 37.7646 49.6116 37.7752 49.5823 37.8224C49.5587 37.861 49.5407 37.8828 49.5033 37.8828C49.2925 37.8112 49.0332 37.6738 48.7489 37.4897C48.5282 37.3373 48.3646 37.1868 48.3646 37.1209C48.3646 36.9965 48.0822 36.7664 47.9784 36.8062C47.9006 36.8361 47.6133 36.6215 47.2687 36.2975C47.0169 36.0568 46.7749 35.8049 46.5579 35.553C46.3029 35.2576 46.0659 34.9846 46.0305 34.946C45.7071 34.5927 45.1206 33.8725 44.7487 33.3719C44.1952 32.6262 43.6765 31.9657 43.2057 31.406C42.7778 30.8898 42.409 30.4718 42.2 30.274C42.1067 30.1851 42.0128 30.0987 41.9195 30.0135C41.9145 30.0085 41.9096 30.0041 41.9046 29.9992C41.4898 29.6111 41.1502 29.2603 41.1502 29.2199C41.1502 29.0874 40.8927 28.8585 40.8224 28.9288C40.7783 28.973 40.5873 28.8759 40.2079 28.6166C39.9057 28.4095 39.6706 28.2198 39.6855 28.1949C39.7179 28.1427 39.4977 27.9418 39.4081 27.9418C39.3739 27.9418 39.3466 27.9182 39.3466 27.8902C39.3466 27.8616 39.3117 27.8336 39.2688 27.8286C39.2259 27.823 39.1071 27.8075 39.0045 27.7932C38.9249 27.782 38.7408 27.7154 38.5256 27.6259ZM33.6111 22.8992C33.7063 23.059 33.8145 23.2624 33.9115 23.4595L33.7467 23.6076C33.5539 23.7811 33.5533 23.7848 33.6453 24.0162C33.7759 24.3414 33.664 24.5429 33.1652 24.8794L32.7728 25.1444L32.5066 25.0504C32.4867 25.0436 32.4686 25.0368 32.4506 25.0305C32.2988 24.9764 32.236 24.954 32.2105 24.9758C32.1925 24.9914 32.1931 25.0293 32.195 25.094C32.1956 25.1046 32.1956 25.1157 32.1962 25.1276C32.2024 25.436 32.1546 25.6139 32.0146 25.7638C31.8853 25.872 31.7764 25.9572 31.7223 25.9939C31.6956 26.0051 31.6763 26.0039 31.6614 25.9908C31.6483 25.9721 31.6352 25.9429 31.6234 25.9087C31.6203 25.8981 31.6178 25.8863 31.6147 25.8739C31.6041 25.8291 31.5892 25.7433 31.5743 25.6475C31.5525 25.4933 31.5258 25.2818 31.5034 25.0716C31.4866 24.9217 31.4748 24.7749 31.4667 24.6313C31.4735 24.6058 31.4866 24.5995 31.5053 24.6114C31.5451 24.6356 31.5724 24.6014 31.5724 24.5286C31.5724 24.4602 31.5998 24.3868 31.634 24.3663C31.6707 24.3433 31.6813 24.125 31.6601 23.8184C31.6197 23.2157 31.6097 22.9968 31.6495 22.8333C31.7111 22.6591 31.7864 22.5148 31.8753 22.406C31.9618 22.3314 32.055 22.3562 32.2012 22.4638C32.3026 22.5391 32.4475 22.5919 32.5234 22.5814C32.6297 22.5664 32.6652 22.5969 32.6788 22.7176C32.6938 22.8407 32.6838 22.8538 32.6334 22.7798C32.598 22.7282 32.5688 22.7157 32.5688 22.7518C32.5669 22.8494 32.7031 22.9663 32.8188 22.9663C32.8754 22.9663 32.973 22.9091 33.0365 22.8389C33.1154 22.7524 33.2125 22.7176 33.3418 22.73C33.4525 22.7412 33.5203 22.7773 33.6111 22.8992ZM31.226 27.8535C30.7658 28.1987 30.359 28.6178 30.017 29.1054C29.8609 29.2895 29.7993 29.3051 29.711 29.2503C29.6631 29.2211 29.6668 29.1583 29.7346 29.009C29.7974 28.8847 29.8646 28.7615 29.9361 28.639C30.0642 28.4387 30.1824 28.3137 30.221 28.3523C30.2403 28.3722 30.2888 28.3268 30.3286 28.2528C30.3684 28.1788 30.3858 28.1029 30.3671 28.0842C30.3447 28.0618 30.3696 27.9978 30.4318 27.9032C30.4679 27.8547 30.5058 27.8068 30.5438 27.7583C30.5431 27.7888 30.6339 27.731 30.8317 27.5643C31.2789 27.1868 31.5836 26.9834 32.0488 26.7664C32.0383 26.7719 32.0271 26.7782 32.0152 26.7844C31.8728 26.8634 31.8716 26.8696 31.9841 26.9529C32.2149 27.1246 32.1589 27.2751 31.7913 27.4729C31.6203 27.5649 31.4238 27.6986 31.226 27.8535ZM29.2974 30.1665C29.2993 30.1571 29.3011 30.1472 29.303 30.1378C29.3229 30.0483 29.3627 29.9164 29.423 29.7448C29.4311 29.7218 29.4392 29.6988 29.4473 29.6757C29.5026 29.565 29.5586 29.5103 29.5978 29.5495C29.6482 29.5999 29.6276 29.7056 29.5188 29.9463C29.5095 29.9674 29.5002 29.988 29.4914 30.0072C29.3528 30.2653 29.2812 30.3387 29.2862 30.2367C29.2893 30.2162 29.2924 30.1932 29.2974 30.1665ZM26.8277 30.0103C26.587 29.8654 26.2487 29.6919 26.0292 29.6173C26.026 29.6167 26.0236 29.6154 26.0211 29.6148C26.2729 29.6907 26.5093 29.8051 26.7487 29.9581C26.7742 29.9743 26.8003 29.9917 26.8277 30.0103ZM26.3016 36.155C26.2941 36.4952 26.2972 36.897 26.309 37.2888C26.2978 37.0114 26.2922 36.7359 26.2922 36.4803C26.2941 36.3696 26.2972 36.2608 26.3016 36.155ZM23.5943 48.7591C23.6416 47.968 23.6478 47.1221 23.6092 46.2887C23.649 47.1557 23.6453 47.963 23.5943 48.7591ZM23.2504 51.4004C23.2895 51.1728 23.3374 50.8979 23.3841 50.6354C23.3859 50.6261 23.3872 50.6162 23.3891 50.6062C23.348 50.8681 23.302 51.1318 23.2504 51.4004ZM50.4717 37.7665C50.4673 37.7721 50.4624 37.7777 50.458 37.7826C50.4499 37.7882 50.4418 37.7926 50.4319 37.7963C50.4468 37.7882 50.4599 37.7783 50.4717 37.7665Z" fill="#CE9333"/>
<path d="M18.8415 35.2513C19.1027 35.3651 19.3776 35.3645 19.6518 35.2501C19.905 35.1444 19.8938 35.1829 19.9983 34.0019C20.0057 33.9117 20.0157 33.8215 20.0262 33.7307C19.8098 35.5797 20.03 37.9897 20.6538 40.3493C20.8379 41.0459 20.8466 40.9631 20.6917 39.9904C20.4175 38.2683 20.3509 37.4617 20.354 35.9025C20.3571 34.2382 20.451 33.4832 20.7881 32.4078C20.8429 32.2331 20.9119 32.0509 20.9909 31.8693C20.6693 32.6697 20.4143 33.7382 20.4516 34.2227L20.4709 34.4727L20.813 33.8968C21.0835 33.4421 21.3236 33.156 21.9592 32.5298C22.402 32.0938 22.7733 31.7467 22.7845 31.7579C22.7957 31.7691 22.7223 32.1255 22.6216 32.5497C22.3653 33.6293 22.3056 34.1474 22.3056 35.2868C22.3056 36.8379 22.4978 38.4872 22.9574 40.8779C23.0886 41.5614 23.2006 42.2207 23.2939 42.8588C23.2248 42.4757 23.1564 42.3308 23.1981 42.7742C23.2404 43.2338 23.1303 44.6555 22.9829 45.5424C22.6496 47.5506 22.0494 48.5146 21.0929 48.5774C20.7601 48.5992 20.6731 48.5774 20.2918 48.3784C19.808 48.1265 19.1232 47.5873 18.7575 47.1725C18.1356 46.4654 16.4987 43.796 15.8382 42.4104C14.723 40.0725 14.2697 38.2994 14.1024 35.6226C14.0545 34.8645 14.0626 34.6941 14.1614 34.3054C14.1677 34.2805 14.1745 34.2562 14.1807 34.2313C14.2012 34.1623 14.2224 34.0939 14.2441 34.0274L14.2068 34.2133L14.4867 33.9527C14.8623 33.6032 15.2871 33.4011 15.7386 33.3575L16.1118 33.3215L16.2119 33.0416C16.401 32.513 16.7922 31.8481 17.1168 31.5048L17.4427 31.1603L17.184 31.1963C17.1678 31.1982 17.1517 31.2007 17.1355 31.2032C17.3948 31.141 17.7033 31.0713 18.0516 30.9954L17.5876 31.4924C17.0634 32.054 16.8376 32.3811 16.5733 32.9626C16.3581 33.4353 16.3575 33.4645 16.554 33.5137C16.8351 33.5846 17.411 34.0037 18.0329 34.5902C18.3682 34.9062 18.732 35.2034 18.8415 35.2513ZM50.5824 37.5189V37.5208C50.5587 37.6172 50.5171 37.708 50.4717 37.7665C50.4599 37.7783 50.4468 37.7882 50.4319 37.7963C50.384 37.815 50.3087 37.8137 50.1682 37.8019C50.0799 37.7851 49.9679 37.7553 49.8249 37.7142C49.6209 37.6558 49.4349 37.5742 49.2203 37.4393C49.4231 37.5562 49.5276 37.5556 49.4138 37.4107C49.3671 37.351 49.1687 37.1395 48.9728 36.9411C48.3571 36.3167 47.5691 35.0312 46.3626 32.684C45.9185 31.8201 45.5696 31.1136 45.587 31.1136C45.6044 31.1136 45.8314 31.4215 46.0914 31.7971C46.9739 33.0739 48.1836 34.4018 48.864 34.8415C49.0785 34.9802 49.285 35.094 49.3229 35.0946C49.3603 35.0946 49.4716 35.1369 49.5711 35.1885C49.6464 35.2283 49.7197 35.2538 49.7583 35.2557C50.0519 35.8583 50.2527 36.2931 50.3846 36.6127C50.458 36.7931 50.509 36.9393 50.5426 37.0618C50.5575 37.1146 50.5687 37.1631 50.5768 37.2079L50.578 37.2141C50.6004 37.3385 50.5998 37.4343 50.5824 37.5189ZM29.2918 22.7324C29.2769 22.6087 29.2657 22.4917 29.2576 22.381L29.2445 22.1944C29.2464 22.1727 29.2508 22.159 29.257 22.154C29.2819 22.1329 29.7222 22.0097 30.2353 21.8804C30.7092 21.7604 31.2086 21.6272 31.4008 21.5694C31.4387 21.5588 31.4698 21.5507 31.4909 21.5445C31.5948 21.5153 31.6968 21.4998 31.7988 21.4992C31.6669 21.5029 31.532 21.5309 31.3846 21.5819C31.0755 21.6889 31.0506 21.7131 30.9567 22.0042C30.902 22.174 30.8379 22.3431 30.8143 22.3792C30.7906 22.4159 30.7104 22.7374 30.6364 23.0944C30.4336 24.0752 30.5176 25.1014 30.8951 26.247C30.9654 26.4609 31.0431 26.6357 31.068 26.6357C31.0854 26.6357 31.1377 26.5978 31.198 26.5424L31.1078 26.6332L30.466 27.275L30.1532 26.3179C29.7943 25.2208 29.5169 24.1287 29.3677 23.2468C29.3683 23.2206 29.3671 23.1933 29.3621 23.1659C29.3341 23.0042 29.3104 22.8587 29.2918 22.7324ZM33.274 25.1897C33.3704 25.1219 33.4668 25.0554 33.5638 24.9907C33.5489 25.0019 33.534 25.0125 33.519 25.0237C33.0744 25.3477 33.0458 25.4055 33.4251 25.2121C34.4252 24.7034 35.7157 24.6524 37.3253 25.0585C39.1438 25.5169 41.1023 26.7259 42.5818 28.3019C43.1832 28.9431 43.284 29.1477 42.7522 28.6495C41.4791 27.4567 39.6874 26.3167 38.1655 25.732C37.3041 25.4006 36.5224 25.2588 35.5217 25.2519C34.4886 25.2451 33.8941 25.3707 32.917 25.8036C32.5793 25.9535 32.2634 26.076 32.2149 26.076C32.1713 26.076 31.8977 26.3216 31.5855 26.6233C31.9505 26.2675 32.3455 25.9105 32.6919 25.635C32.9008 25.4683 33.0918 25.3222 33.274 25.1897ZM36.7873 23.5671C36.676 23.5982 36.61 23.6299 36.61 23.6598C36.61 23.689 36.8968 23.7126 37.2475 23.7133C38.4311 23.7139 39.9368 24.2419 41.2571 25.1194C41.8442 25.51 42.0084 25.6835 41.5146 25.3918C40.5425 24.8178 39.4448 24.3669 38.3826 24.1063C37.76 23.9533 36.2058 23.9527 35.4906 24.1051C35.105 24.1872 34.6634 24.3557 34.2417 24.5765C34.4694 24.449 34.7026 24.3289 34.9445 24.2139C35.569 23.9178 36.1809 23.7027 36.7873 23.5671ZM16.1945 38.7634C16.026 37.7869 16.0061 37.5313 15.9999 36.2756C15.9924 34.7923 16.0459 34.3651 16.3457 33.4993C16.554 32.8973 16.3861 32.6709 16.1566 33.2437C15.8612 33.982 15.6758 35.4702 15.7405 36.5841C15.7841 37.3286 15.9632 38.5096 16.1137 39.0432C16.1616 39.2143 16.2331 39.4761 16.2723 39.6247C16.4079 40.1416 16.3811 39.8461 16.1945 38.7634ZM17.3153 31.7374C17.4428 31.5888 17.5037 31.4637 17.4801 31.4003C17.4216 31.2498 17.37 31.2741 17.0814 31.5869C16.8756 31.8108 16.8357 31.886 16.9023 31.9283C17.0404 32.0154 17.1007 31.9874 17.3153 31.7374ZM44.934 26.8285C44.6914 26.5517 44.4402 26.2874 44.1808 26.0355C42.366 24.2693 40.4281 23.4017 38.2967 23.4017C37.9764 23.4017 37.6176 23.429 37.3135 23.4688C38.423 23.3046 39.5213 23.4091 40.6526 23.7791C42.1453 24.2674 43.6223 25.3265 44.934 26.8285ZM49.7403 35.2184C49.7378 35.2184 49.7353 35.2184 49.7328 35.2184C49.6874 35.2184 49.6656 35.2022 49.6855 35.1829C49.7036 35.1649 49.1824 34.097 48.581 32.8955C48.6593 33.0516 48.7415 33.2138 48.8273 33.3836C49.2005 34.1237 49.5008 34.7264 49.7403 35.2184ZM23.6359 47.2658C23.6334 46.9474 23.6248 46.6221 23.6092 46.2887C23.5582 45.1736 23.5196 44.6879 23.3847 43.5205C23.5545 44.8471 23.6378 46.0841 23.6359 47.2658ZM15.1211 32.3388L15.1217 32.3382C15.4718 31.9091 15.8792 31.59 16.309 31.4283C16.3432 31.4159 16.3867 31.4016 16.4389 31.3854C15.9327 31.5794 15.4917 31.8985 15.1186 32.3419L15.1211 32.3388ZM47.5318 35.992C46.7413 35.1761 45.9583 34.1524 44.9738 32.6685C45.9055 34.0734 46.7345 35.1543 47.5318 35.992ZM20.4529 31.9321C20.6432 31.4078 20.8795 30.9463 21.1432 30.6024C20.915 30.9015 20.6525 31.4165 20.4529 31.9321ZM21.494 30.9171C21.7415 30.5278 21.9959 30.2286 22.1837 30.1384C22.0295 30.2124 21.7471 30.5402 21.494 30.9171ZM19.0479 30.7846C19.3222 30.728 19.6108 30.6695 19.9112 30.6098C19.803 30.6316 19.691 30.6546 19.5778 30.677L19.0479 30.7846ZM31.3336 26.4062L31.4468 26.2881L31.4474 26.2917L31.3336 26.4062ZM30.5549 27.744C30.5512 27.7595 30.5568 27.7651 30.5717 27.7602C30.5524 27.7689 30.5438 27.7683 30.5438 27.7583C30.5475 27.754 30.5512 27.749 30.5549 27.744ZM21.2583 30.3312C21.262 30.33 21.2651 30.3293 21.2676 30.3287C21.285 30.3231 21.2975 30.3225 21.3037 30.3275C21.2937 30.325 21.2782 30.3269 21.2583 30.3312Z" fill="#DCBB88"/>
<path d="M28.4908 31.2566C28.395 31.0924 28.0486 30.69 27.7214 30.3623C27.0168 29.6583 26.4104 29.3118 25.6547 29.1831C25.0645 29.0824 24.5869 29.1489 22.9537 29.5588C22.1247 29.7665 21.7073 29.8461 21.6794 29.8007C21.6259 29.7142 21.402 28.4287 21.2508 27.3391C20.7135 23.47 20.7135 19.4175 21.2508 16.436C21.6539 14.1995 22.5109 12.3779 23.6447 11.2983C23.5022 11.455 23.4208 11.636 23.2217 12.1149C22.754 13.2437 22.5849 13.7642 22.3417 14.8228C21.9362 16.5872 21.7646 18.4648 21.8305 20.4164C21.8796 21.8848 21.9549 22.5863 22.1862 23.7394C22.3852 24.7339 22.5432 25.1922 22.8747 25.7401C23.0955 26.1052 23.6695 26.785 23.7168 26.7377C23.7323 26.7222 23.6745 26.252 23.5881 25.6929C23.2323 23.3899 23.1123 21.5427 23.2105 19.8878L23.2622 19.0171L23.338 20.1558C23.4836 22.3233 23.7827 23.9683 24.4563 26.2937C24.8879 27.7844 24.8158 27.6725 25.748 28.295C26.1977 28.5948 26.7755 28.9462 27.0311 29.0756C27.5964 29.3604 28.089 29.3971 28.4397 29.1807C28.6786 29.0333 28.686 28.9935 28.5523 28.6184C28.3266 27.9872 27.5268 25.0977 27.3228 24.1791C26.809 21.863 26.6685 20.5402 26.5988 17.3689C26.5416 14.7332 26.4446 13.5696 26.189 12.4302C26.105 12.057 26.0466 11.7417 26.0584 11.7293C26.0982 11.6895 26.3414 12.5962 26.4701 13.2642C26.6679 14.2916 26.7189 14.8993 26.7842 16.9958C26.8831 20.1714 27.0553 21.9426 27.4714 24.0634C27.7463 25.4659 28.3303 27.4927 28.7439 28.4829L28.8278 28.6837L29.3845 28.1327C29.6911 27.8292 30.0033 27.5618 30.0785 27.5381C30.1693 27.5089 30.2048 27.4598 30.1824 27.3914C30.1749 27.3677 30.1445 27.2769 30.1003 27.1457L30.1022 27.1507L30.2545 27.5525C30.2253 27.6084 30.1451 27.7265 30.0512 27.8497C29.4647 28.6178 28.9516 29.8635 28.7974 30.894C28.7464 31.2355 28.6954 31.5234 28.6848 31.5346C28.6736 31.5452 28.5859 31.4202 28.4908 31.2566ZM51.0781 43.7631L50.5457 43.691C50.2515 43.6505 49.8435 43.5591 49.6389 43.4876C49.2757 43.3607 47.1885 42.8613 45.6281 42.5279C44.5409 42.2953 42.5818 41.6299 41.6191 41.1659C40.2552 40.5092 39.2981 39.8679 38.1574 38.8467C37.0585 37.8635 35.985 36.5829 35.1927 35.3117C34.7673 34.6288 34.0981 33.3563 34.141 33.3128C34.1584 33.2954 34.0639 33.0646 33.9314 32.7991C33.8729 32.6828 33.8039 32.5273 33.7361 32.365C34.1267 33.2836 34.7461 34.2898 35.5136 35.2893C36.8601 37.0456 38.6612 38.7745 40.4971 39.9805C42.4985 41.2952 44.4551 42.0981 46.6232 42.4931C48.0505 42.753 48.6843 42.9154 49.8964 43.3321C50.4474 43.5217 50.9444 43.6766 51.0003 43.6766C51.0893 43.6766 51.1141 43.6791 51.0781 43.7631ZM44.322 44.5996C44.7847 44.7296 43.7474 44.6108 43.016 44.4497C40.6582 43.9304 37.9055 42.7027 35.9881 41.3152C34.1883 40.0122 32.4618 38.2267 31.2067 36.369C30.7173 35.645 30.4927 35.2806 30.5357 35.2806C30.5518 35.2806 30.8833 35.6649 31.2714 36.1351C32.8113 38.0015 34.8519 39.9121 36.5864 41.1106C37.9814 42.0746 39.6886 42.9944 41.1502 43.5703C41.7404 43.8023 43.3742 44.3328 44.322 44.5996ZM31.3336 26.4062L31.2049 26.5356C31.2453 26.4846 31.249 26.4491 31.2129 26.4491C31.106 26.4491 31.0208 26.1065 30.8827 25.1213C30.7247 23.9956 30.7521 23.4807 31.0089 22.7312C31.2726 21.9638 31.4878 21.6932 31.9145 21.5962L32.1011 21.5539L31.9282 21.5067C32.1514 21.5322 32.3803 21.6285 32.6372 21.7995C33.0228 22.057 33.08 22.1453 32.7895 22.0352C32.6975 21.9998 32.4842 21.9712 32.3169 21.9712C32.0669 21.9712 31.9736 22.0048 31.8001 22.1571C31.2266 22.6603 31.0475 24.1001 31.351 25.7643L31.4468 26.2881L31.3336 26.4062ZM25.8631 10.3592C25.3886 10.2883 24.8612 10.4263 24.3232 10.764C24.8742 10.4139 25.3873 10.2789 25.8631 10.3592ZM29.2004 24.0497C29.0754 23.4521 28.9752 22.8314 28.895 22.1597C28.8975 22.1796 28.9006 22.2001 28.9031 22.22C28.9199 22.3406 28.9354 22.4507 28.9497 22.5515C29.02 23.0745 29.1033 23.5708 29.2004 24.0497ZM28.5691 16.5057C28.5175 15.5796 28.4497 14.9882 28.3378 14.3507C28.3234 14.2667 28.3079 14.184 28.2917 14.1026C28.3931 14.6175 28.4709 15.1784 28.5243 15.783C28.5349 15.9042 28.5473 16.0958 28.5604 16.334V16.3353C28.5635 16.39 28.566 16.4466 28.5691 16.5057ZM28.1953 13.6541C27.9957 12.8102 27.722 12.1037 27.3905 11.5626C27.7245 12.1018 27.9951 12.8052 28.1953 13.6541ZM31.0954 26.6245C31.083 26.632 31.0742 26.6357 31.068 26.6357C31.0581 26.6357 31.0394 26.6071 31.0158 26.5592C31.0432 26.6065 31.068 26.6264 31.0954 26.6245ZM50.93 44.2072C50.9419 44.0884 50.9642 43.9864 50.9978 43.9223L51.0053 43.908C50.9692 43.9802 50.9437 44.0859 50.93 44.2072ZM31.2403 21.6348C31.2801 21.6186 31.3274 21.6012 31.3846 21.5819C31.4312 21.5657 31.4766 21.5521 31.5214 21.5402C31.4847 21.5508 31.4462 21.5626 31.4057 21.5757C31.3392 21.5981 31.2851 21.6167 31.2403 21.6348Z" fill="#EDCE66"/>
<path d="M27.6611 32.7269L27.6617 32.7269C27.8812 32.6149 28.191 32.587 28.4491 32.6286C28.6618 32.6628 28.839 32.7449 28.9037 32.8656C28.9317 32.9178 28.9771 32.9527 29.03 32.9651C29.0492 32.9751 29.0654 32.9794 29.0816 32.9794C29.0928 32.9794 29.1033 32.9794 29.1127 32.9787C29.1662 32.9781 29.2147 32.9588 29.2402 32.9172C29.2427 32.9128 29.2458 32.9029 29.2489 32.8886L29.2277 33.0105L29.5412 33.6324C29.8963 34.3364 30.5064 35.4049 30.5537 35.4049C30.5705 35.4049 30.5674 35.3769 30.5462 35.3427C30.5276 35.3122 30.522 35.2867 30.5325 35.2817C30.5064 35.3029 30.7322 35.6667 31.2067 36.3689C32.4618 38.2266 34.1883 40.0122 35.9881 41.3151C37.9055 42.7026 40.6582 43.9303 43.016 44.4496C43.3524 44.5237 43.7542 44.589 44.044 44.625C44.0384 44.6257 44.0328 44.6269 44.0278 44.6288C43.9675 44.6443 44.0017 44.658 44.1043 44.6599C44.1752 44.6605 44.2206 44.6543 44.2281 44.6449C44.442 44.6655 44.5217 44.6555 44.322 44.5995C43.493 44.3657 42.1384 43.931 41.417 43.6704C42.3225 43.9963 44.2617 44.6064 44.4389 44.6138C44.5148 44.6169 44.5092 44.63 44.4153 44.6667C44.2971 44.7133 44.9806 44.8166 45.8457 44.8831C46.4608 44.9304 48.5325 44.8583 49.142 44.7681C49.484 44.7171 49.9598 44.6169 50.1993 44.5454C50.4387 44.4739 50.6974 44.3993 50.7746 44.3806C50.8647 44.3582 50.9145 44.2991 50.9151 44.2133C50.9151 44.1405 50.9524 44.0093 50.9978 43.9222C50.9642 43.9863 50.9419 44.0883 50.93 44.2065V44.2071C50.9039 44.4341 50.9189 44.7158 50.9779 44.9279C50.9941 44.9864 51.0152 45.0455 51.0407 45.1039L51.0868 45.232L50.7049 45.5343C49.3964 46.5723 47.367 47.512 45.5926 47.9014C44.2524 48.1962 42.3001 48.2988 40.8865 48.1495C37.5094 47.7919 33.8904 46.2912 31.2888 44.1685C29.9995 43.1168 28.5075 41.6609 27.5659 40.5358C26.689 39.4879 26.5236 39.2646 26.4409 38.8815C26.3774 38.4356 26.332 37.8572 26.309 37.2887C26.2972 36.8969 26.2941 36.4951 26.3015 36.1549C26.3152 35.7986 26.3407 35.477 26.378 35.2494C26.4135 35.0311 26.4552 34.8247 26.5037 34.6306C26.75 33.6592 27.1542 32.9856 27.6611 32.7269ZM29.2644 32.7891L29.2644 32.7872C29.2682 32.7667 29.2713 32.7443 29.2738 32.7194C29.2837 32.6784 29.293 32.6305 29.303 32.5752C29.3322 32.4178 29.3658 32.2871 29.4156 32.1572C29.3633 32.2946 29.3297 32.4327 29.2993 32.6062L29.257 32.8425C29.2594 32.827 29.2619 32.809 29.2644 32.7891ZM30.5357 35.2805C30.5363 35.2805 30.5363 35.2805 30.5369 35.2805C30.5524 35.2805 30.8821 35.6642 31.2695 36.1332C30.8846 35.6667 30.5562 35.2855 30.5357 35.2805Z" fill="#F3C31B"/>
<path d="M25.8631 10.3592C25.9452 10.3728 26.0266 10.3934 26.1069 10.4201C25.9763 10.3934 26.0322 10.4941 26.2829 10.7056C26.6511 11.0159 26.9129 11.4911 27.255 12.4681C27.5354 13.268 27.6654 13.8128 27.8321 14.8812C28.0492 16.2725 28.0902 16.7128 28.1518 18.2708C28.237 20.4419 28.3806 22.1802 28.5181 22.7182C28.5834 22.9744 28.6817 23.4496 28.7358 23.7749C28.8452 24.4279 28.9665 24.8676 29.2949 25.7961C29.6985 26.9368 29.8391 27.2882 29.9349 27.3933C30.0331 27.5027 30.1774 27.4822 30.1805 27.3858C30.1811 27.3877 30.1818 27.3901 30.1824 27.3914C30.2048 27.4598 30.1693 27.5089 30.0785 27.5381C30.0033 27.5618 29.6911 27.8292 29.3845 28.1327L28.8278 28.6837L28.7439 28.4829C28.3303 27.4927 27.7463 25.4659 27.4714 24.0634C27.0553 21.9426 26.8831 20.1714 26.7842 16.9958C26.7189 14.8993 26.6679 14.2916 26.4701 13.2642C26.3414 12.5962 26.0982 11.6895 26.0584 11.7293C26.0466 11.7417 26.105 12.057 26.189 12.4302C26.4446 13.5696 26.5416 14.7332 26.5988 17.3689C26.6685 20.5402 26.809 21.863 27.3228 24.1791C27.5268 25.0977 28.3266 27.9872 28.5523 28.6184C28.686 28.9935 28.6786 29.0333 28.4397 29.1807C28.089 29.3971 27.5964 29.3604 27.0311 29.0756C26.7755 28.9462 26.1977 28.5948 25.748 28.295C24.8158 27.6725 24.8879 27.7844 24.4563 26.2937C23.7827 23.9683 23.4836 22.3233 23.338 20.1558L23.2622 19.0171L23.2105 19.8878C23.1123 21.5427 23.2323 23.3899 23.5881 25.6929C23.6745 26.252 23.7323 26.7222 23.7168 26.7377C23.6695 26.785 23.0955 26.1052 22.8747 25.7401C22.5432 25.1922 22.3852 24.7339 22.1862 23.7394C21.9549 22.5863 21.8796 21.8848 21.8305 20.4164C21.7646 18.4648 21.9362 16.5872 22.3417 14.8228C22.5849 13.7642 22.754 13.2437 23.2217 12.1149C23.4208 11.636 23.5022 11.455 23.6447 11.2983C23.8536 11.0999 24.0719 10.9264 24.2983 10.7796C24.3064 10.7746 24.3145 10.769 24.3232 10.764C24.8612 10.4263 25.3886 10.2883 25.8631 10.3592ZM47.5318 35.992C46.7345 35.1543 45.9055 34.0734 44.9738 32.6685C43.5179 30.4743 42.9656 29.7833 41.9288 28.8616C41.2739 28.2789 40.1818 27.5065 40.0133 27.5065C39.9586 27.5065 39.8957 27.4778 39.874 27.443C39.818 27.351 39.0997 27.0008 38.4242 26.7353C37.1468 26.2327 35.6287 26.007 34.3612 26.1307C33.4948 26.2153 33.0837 26.3192 32.3219 26.6445C32.2677 26.6675 32.2161 26.6899 32.1664 26.7122C32.1371 26.7203 32.0992 26.739 32.0488 26.7664C31.5836 26.9834 31.2789 27.1868 30.8317 27.5643C30.6967 27.6781 30.6121 27.7409 30.5717 27.7602C30.5568 27.7651 30.5512 27.7595 30.5549 27.744C30.7247 27.5313 30.9113 27.3161 31.1165 27.0978C31.2621 26.9449 31.4206 26.7844 31.5855 26.6233C31.8977 26.3216 32.1713 26.076 32.2149 26.076C32.2634 26.076 32.5793 25.9535 32.917 25.8036C33.8941 25.3707 34.4886 25.2451 35.5217 25.2519C36.5224 25.2588 37.3041 25.4006 38.1655 25.732C39.6874 26.3167 41.4791 27.4567 42.7522 28.6495C43.284 29.1477 43.1832 28.9431 42.5818 28.3019C41.1023 26.7259 39.1438 25.5169 37.3253 25.0585C35.7157 24.6524 34.4252 24.7034 33.4251 25.2121C33.0458 25.4055 33.0744 25.3477 33.519 25.0237C33.534 25.0125 33.5489 25.0019 33.5638 24.9907C33.7859 24.8439 34.011 24.7065 34.2417 24.5765C34.6634 24.3557 35.105 24.1872 35.4906 24.1051C36.2058 23.9527 37.76 23.9533 38.3826 24.1063C39.4448 24.3669 40.5425 24.8178 41.5146 25.3918C42.0084 25.6835 41.8442 25.51 41.2571 25.1194C39.999 24.2836 38.5729 23.7643 37.4173 23.7164C38.8863 23.7369 39.6644 23.8937 40.8554 24.3862C41.6079 24.6972 41.9555 24.895 42.7759 25.4777C44.6249 26.7912 46.0416 28.5438 47.3514 31.1367C47.5436 31.5173 47.8875 32.1088 48.1152 32.4508C48.3428 32.7929 48.5779 33.199 48.6382 33.3526C48.6979 33.5062 48.8497 33.7929 48.9753 33.9895C49.155 34.27 49.2844 34.4105 49.2962 34.3415C49.5394 34.8403 49.6955 35.173 49.6855 35.1829C49.6656 35.2022 49.6874 35.2184 49.7328 35.2184C49.7353 35.2184 49.7378 35.2184 49.7403 35.2184L49.7583 35.2557C49.7197 35.2538 49.6464 35.2283 49.5711 35.1885C49.4716 35.1369 49.3603 35.0946 49.3229 35.0946C49.285 35.094 49.0785 34.9802 48.864 34.8415C48.1836 34.4018 46.9739 33.0739 46.0914 31.7971C45.8314 31.4215 45.6044 31.1136 45.587 31.1136C45.5696 31.1136 45.9185 31.8201 46.3626 32.684C47.5691 35.0312 48.3571 36.3167 48.9728 36.9411C49.1687 37.1395 49.3671 37.351 49.4138 37.4107C49.5276 37.5556 49.4231 37.5562 49.2203 37.4393C48.9753 37.2857 48.6923 37.0618 48.3024 36.7229C48.0399 36.4952 47.7855 36.2545 47.5318 35.992ZM23.5943 48.7591C23.626 48.2696 23.639 47.7752 23.6359 47.2658C23.6378 46.0841 23.5545 44.8471 23.3847 43.5205C23.3766 43.4496 23.3679 43.3762 23.3592 43.3004C23.3399 43.1355 23.3169 42.9844 23.2939 42.8588C23.2006 42.2207 23.0886 41.5614 22.9574 40.8779C22.4978 38.4872 22.3056 36.8379 22.3056 35.2868C22.3056 34.1474 22.3653 33.6293 22.6216 32.5497C22.7223 32.1255 22.7957 31.7691 22.7845 31.7579C22.7733 31.7467 22.402 32.0938 21.9592 32.5298C21.3236 33.156 21.0835 33.4421 20.813 33.8968L20.4709 34.4727L20.4516 34.2227C20.4143 33.7382 20.6693 32.6697 20.9909 31.8693C21.1351 31.5353 21.313 31.2019 21.494 30.9171C21.7471 30.5402 22.0295 30.2124 22.1837 30.1384C22.2441 30.1098 22.5246 30.0252 22.8791 29.927C23.019 29.8903 23.1682 29.8511 23.3318 29.8076C24.5651 29.4811 25.3475 29.4114 26.0211 29.6148C26.0236 29.6154 26.026 29.6167 26.0292 29.6173C26.2487 29.6919 26.587 29.8654 26.8277 30.0103C26.9173 30.0719 27.0149 30.1466 27.1138 30.2255C27.1163 30.2355 27.1094 30.2417 27.0914 30.2417C27.0385 30.2423 26.9683 30.2193 26.9359 30.1913C26.7699 30.0452 26.2213 29.9034 25.8196 29.9021C25.4688 29.9009 25.3164 29.9345 25.0359 30.0719C24.5135 30.3288 23.9681 30.9389 23.6384 31.6355C23.0712 32.8352 22.8474 33.9882 22.8467 35.716C22.8461 36.9978 22.9139 37.7043 23.1788 39.1677C23.6764 41.9216 23.8605 43.783 23.8605 46.0736C23.8605 48.44 23.7137 49.9999 23.3679 51.3165C23.2808 51.648 23.1913 51.8737 23.1776 51.8321C23.1913 51.7444 23.218 51.5889 23.2504 51.4004C23.302 51.1318 23.348 50.8681 23.3891 50.6062C23.4855 50.0552 23.5545 49.4264 23.5943 48.7591ZM18.8415 35.2513C18.732 35.2034 18.3682 34.9062 18.0329 34.5902C17.411 34.0037 16.8351 33.5846 16.554 33.5137C16.3575 33.4645 16.3581 33.4353 16.5733 32.9626C16.8376 32.3811 17.0634 32.054 17.5876 31.4924L18.0516 30.9954C18.3551 30.9289 18.6891 30.858 19.0479 30.7846L19.5778 30.677C19.691 30.6546 19.803 30.6316 19.9112 30.6098C19.9149 30.6092 19.9193 30.608 19.923 30.6074C20.576 30.4774 21.1594 30.3567 21.2583 30.3312C21.2782 30.3269 21.2937 30.325 21.3037 30.3275C21.3273 30.3437 21.2782 30.4264 21.1488 30.5949C21.147 30.5974 21.1451 30.5999 21.1432 30.6024C21.1426 30.6036 21.142 30.6043 21.1407 30.6055C20.8783 30.9488 20.6426 31.409 20.4529 31.9321C20.3633 32.1641 20.2862 32.3966 20.2309 32.6093C20.1419 32.9527 20.0735 33.3283 20.0262 33.7307L20.0262 33.7314C20.0157 33.8216 20.0057 33.9117 19.9983 34.0019C19.8938 35.1829 19.905 35.1444 19.6518 35.2501C19.3776 35.3645 19.1027 35.3651 18.8415 35.2513ZM14.2441 34.0274C14.4618 33.3619 14.761 32.7885 15.1186 32.3419C15.4917 31.8985 15.9327 31.5794 16.4389 31.3854C16.5957 31.3375 16.8326 31.2759 17.1355 31.2032C17.1517 31.2007 17.1678 31.1982 17.184 31.1963L17.4427 31.1603L17.1168 31.5048C16.7922 31.8481 16.401 32.513 16.2119 33.0416L16.1118 33.3215L15.7386 33.3575C15.2871 33.4011 14.8623 33.6032 14.4867 33.9527L14.2068 34.2133L14.2441 34.0274ZM31.0954 26.6245C31.068 26.6264 31.0432 26.6065 31.0158 26.5592C30.9816 26.4883 30.9368 26.3745 30.8951 26.247C30.5176 25.1014 30.4336 24.0752 30.6364 23.0944C30.7104 22.7374 30.7906 22.4159 30.8143 22.3792C30.8379 22.3431 30.902 22.174 30.9567 22.0042C30.9691 21.965 30.9809 21.9308 30.9915 21.901C30.9722 21.9644 30.9312 22.0975 30.8976 22.2045C30.8472 22.3662 30.8522 22.4066 30.9212 22.4066C31.0382 22.4066 31.137 22.2088 31.137 21.9756C31.137 21.8002 31.073 21.7368 31.0207 21.8282C31.0668 21.7281 31.119 21.6839 31.2403 21.6348C31.2851 21.6167 31.3392 21.5981 31.4057 21.5757C31.4462 21.5626 31.4847 21.5508 31.5214 21.5402C31.6172 21.5154 31.7086 21.5017 31.7988 21.4992C31.8417 21.4992 31.8846 21.5017 31.9282 21.5067L32.1011 21.5539L31.9145 21.5962C31.4878 21.6932 31.2726 21.9638 31.0089 22.7312C30.7521 23.4807 30.7247 23.9956 30.8827 25.1213C31.0208 26.1065 31.106 26.4491 31.2129 26.4491C31.249 26.4491 31.2453 26.4846 31.2049 26.5356L31.198 26.5424C31.157 26.5797 31.1203 26.609 31.0954 26.6245ZM48.3509 32.4402C47.6954 31.1727 46.8887 29.6409 46.5871 29.1042C46.9577 29.7174 47.3632 30.4874 48.3509 32.4402ZM27.0049 11.0445C27.1411 11.1951 27.2705 11.3679 27.3905 11.5626C27.5013 11.7429 27.6051 11.9414 27.7021 12.1572C27.4932 11.7119 27.245 11.3194 26.9844 11.0222C26.9913 11.0296 26.9981 11.0371 27.0049 11.0445ZM28.5691 16.5057C28.5815 16.7427 28.594 17.0138 28.6058 17.3006C28.5635 16.3254 28.51 15.584 28.4323 14.9577C28.4907 15.3987 28.5337 15.8744 28.5691 16.5057ZM44.934 26.8285C45.1268 27.0487 45.3158 27.2788 45.5012 27.5183C44.5248 26.262 43.4389 25.2563 42.3138 24.5622C42.9519 24.9534 43.5732 25.4441 44.1808 26.0355C44.4402 26.2874 44.6914 26.5518 44.934 26.8279V26.8285ZM40.2801 23.6679C39.6326 23.4919 38.9603 23.4017 38.2967 23.4017C38.9765 23.4017 39.637 23.49 40.2801 23.6679ZM29.2004 24.0497C29.2022 24.0591 29.2041 24.0678 29.206 24.0771C29.1811 23.9565 29.1562 23.8352 29.1332 23.7121C29.155 23.8259 29.1774 23.9384 29.2004 24.0497Z" fill="#F8E1A5"/>
<path d="M51.078 43.763C51.0637 43.796 51.0408 43.8408 51.0084 43.903C51.0072 43.9042 51.0065 43.9061 51.0053 43.9079L50.9978 43.9222C50.9524 44.0093 50.9151 44.1405 50.9151 44.2133C50.9145 44.2991 50.8647 44.3582 50.7746 44.3806C50.6974 44.3993 50.4387 44.4739 50.1993 44.5454C49.9598 44.6169 49.484 44.7171 49.142 44.7681C48.5325 44.8583 46.4608 44.9304 45.8457 44.8831C44.9806 44.8166 44.2971 44.7133 44.4153 44.6667C44.5092 44.63 44.5148 44.6169 44.4389 44.6138C44.2617 44.6064 42.3231 43.9962 41.4176 43.6704L41.417 43.6704C41.3143 43.633 41.2242 43.5988 41.1501 43.5702C39.6886 42.9943 37.9814 42.0745 36.5864 41.1105C34.8518 39.912 32.8113 38.0014 31.2714 36.135L31.2695 36.1332C30.8821 35.6642 30.5524 35.2805 30.5369 35.2805C30.5363 35.2805 30.5363 35.2805 30.5357 35.2805C30.5338 35.2805 30.5332 35.2811 30.5325 35.2817C30.522 35.2867 30.5276 35.3122 30.5462 35.3427C30.5674 35.3769 30.5705 35.4049 30.5537 35.4049C30.5064 35.4049 29.8963 34.3364 29.5412 33.6324L29.2277 33.0105L29.2489 32.8886C29.252 32.8761 29.2545 32.8612 29.257 32.8425L29.2993 32.6062C29.3297 32.4327 29.3633 32.2946 29.4156 32.1572C29.4952 31.9494 29.6171 31.7418 29.8335 31.4221C30.3254 30.6951 30.9443 30.3045 31.6794 30.256C32.078 30.2298 32.1688 30.246 32.4786 30.3978C32.9506 30.6291 33.2684 31.0433 33.4992 31.7306C33.5029 31.743 33.5072 31.7561 33.5116 31.7685C33.5128 31.7735 33.5147 31.7785 33.5159 31.7828C33.5781 31.9725 33.6521 32.1665 33.7361 32.3649C33.8039 32.5272 33.8729 32.6827 33.9314 32.799C34.0639 33.0646 34.1584 33.2953 34.141 33.3127C34.0981 33.3562 34.7673 34.6287 35.1927 35.3116C35.985 36.5828 37.0585 37.8634 38.1574 38.8467C39.298 39.8679 40.2552 40.5091 41.6191 41.1658C42.5818 41.6298 44.5409 42.2953 45.6281 42.5279C47.1885 42.8612 49.2757 43.3606 49.6389 43.4875C49.8435 43.559 50.2515 43.6505 50.5457 43.6909L51.078 43.763ZM44.0278 44.6288C44.0328 44.6269 44.0384 44.6257 44.044 44.625C44.1124 44.6331 44.1746 44.64 44.2281 44.6449C44.2206 44.6543 44.1752 44.6605 44.1043 44.6599C44.0017 44.658 43.9675 44.6443 44.0278 44.6288Z" fill="#F8D827"/>
<path d="M28.6356 18.0829C28.64 18.2191 28.6444 18.3547 28.6481 18.4884C28.7035 20.3318 28.7594 21.1763 28.895 22.1596C28.9603 22.7063 29.0387 23.2188 29.1332 23.7119V23.7138C29.1568 23.8357 29.1811 23.957 29.206 24.077C29.2968 24.5211 29.4 24.9496 29.5169 25.3713C29.5375 25.4478 29.5567 25.5162 29.5748 25.5759C29.7271 26.1039 29.9013 26.6226 30.1003 27.1456C30.1413 27.2682 30.1706 27.3546 30.1805 27.3857C30.1774 27.4821 30.0331 27.5026 29.9349 27.3932C29.8391 27.2881 29.6985 26.9367 29.2949 25.796C28.9665 24.8675 28.8452 24.4278 28.7358 23.7748C28.6817 23.4495 28.5834 22.9743 28.5181 22.7181C28.3807 22.1801 28.237 20.4418 28.1518 18.2707C28.0902 16.7127 28.0492 16.2724 27.8321 14.8811C27.6654 13.8127 27.5355 13.2678 27.255 12.468C26.9129 11.491 26.6511 11.0158 26.2829 10.7055C26.0322 10.494 25.9763 10.3933 26.1069 10.42C26.4166 10.5239 26.7095 10.7248 26.9844 11.0221C27.245 11.3193 27.4932 11.7118 27.7021 12.1571C27.8955 12.5893 28.0616 13.0906 28.1947 13.6528L28.1953 13.6541C28.2295 13.799 28.2619 13.9489 28.2917 14.1025C28.3079 14.184 28.3234 14.2667 28.3377 14.3506C28.3732 14.5534 28.4043 14.7518 28.4323 14.9576C28.51 15.5839 28.5635 16.3253 28.6058 17.3005C28.6164 17.5536 28.6263 17.8185 28.6356 18.0829ZM36.7873 23.567C36.9633 23.5272 37.1381 23.4949 37.3135 23.4688C37.6176 23.429 37.9764 23.4016 38.2967 23.4016C38.9603 23.4016 39.6326 23.4918 40.2801 23.6678C40.9773 23.86 41.6545 24.1579 42.3138 24.5621C43.4389 25.2562 44.5248 26.2619 45.5012 27.5182C45.7643 27.859 46.0199 28.2179 46.2656 28.5948C46.3781 28.7677 46.4814 28.9293 46.5871 29.1041C46.8887 29.6408 47.6954 31.1726 48.3509 32.4401C48.4243 32.5857 48.5008 32.7368 48.581 32.8954C48.849 33.4309 49.1009 33.9402 49.2962 34.3414C49.2844 34.4104 49.155 34.2699 48.9753 33.9894C48.8497 33.7928 48.6979 33.5061 48.6382 33.3525C48.5779 33.1989 48.3428 32.7928 48.1152 32.4507C47.8875 32.1086 47.5436 31.5172 47.3514 31.1366C46.0417 28.5437 44.6249 26.7911 42.7759 25.4776C41.9556 24.8949 41.6079 24.6971 40.8554 24.3861C39.6644 23.8935 38.8863 23.7368 37.4173 23.7163C37.3601 23.7144 37.3035 23.7132 37.2475 23.7132C36.8968 23.7126 36.6101 23.6889 36.6101 23.6597C36.6101 23.6299 36.676 23.5981 36.7873 23.567ZM30.8976 22.2044C30.9312 22.0974 30.9722 21.9643 30.9915 21.9009C31.0015 21.8735 31.0108 21.8493 31.0208 21.8281C31.073 21.7367 31.1371 21.8001 31.1371 21.9755C31.1371 22.2087 31.0382 22.4065 30.9212 22.4065C30.8522 22.4065 30.8472 22.3661 30.8976 22.2044Z" fill="var(--fill-0, #FCF7D3)"/>
</g>
</g>
<defs>
<filter id="filter0_i_0_4" x="0" y="0" width="64" height="64" filterUnits="userSpaceOnUse" color-interpolation-filters="sRGB">
<feFlood flood-opacity="0" result="BackgroundImageFix"/>
<feBlend mode="normal" in="SourceGraphic" in2="BackgroundImageFix" result="shape"/>
<feColorMatrix in="SourceAlpha" type="matrix" values="0 0 0 0 0 0 0 0 0 0 0 0 0 0 0 0 0 0 127 0" result="hardAlpha"/>
<feMorphology radius="51" operator="dilate" in="SourceAlpha" result="effect1_innerShadow_0_4"/>
<feOffset dx="2" dy="-1"/>
<feGaussianBlur stdDeviation="5.45"/>
<feComposite in2="hardAlpha" operator="arithmetic" k2="-1" k3="1"/>
<feColorMatrix type="matrix" values="0 0 0 0 0 0 0 0 0 0 0 0 0 0 0 0 0 0 0.15 0"/>
<feBlend mode="normal" in2="shape" result="effect1_innerShadow_0_4"/>
</filter>
</defs>
</svg>
