<svg viewBox="0 0 44 44" fill="none" xmlns="http://www.w3.org/2000/svg">
  <defs>
    <clipPath id="star">
      <path d="M21.9641 0C22.4244 0 22.8258 0.314769 22.9382 0.761538C23.2816 2.128 23.7341 3.4647 24.2914 4.75877C25.7481 8.14338 27.7471 11.1056 30.2849 13.6434C32.824 16.1818 35.7855 18.1808 39.1695 19.6375C40.4638 20.1946 41.8008 20.6471 43.1674 20.9907C43.6142 21.1031 43.9282 21.5038 43.9282 21.9641C43.9282 22.4244 43.6142 22.8258 43.1667 22.9382C41.8002 23.2816 40.4635 23.7341 39.1695 24.2914C35.7849 25.7481 32.8233 27.7471 30.2849 30.2849C27.7471 32.824 25.7481 35.7855 24.2914 39.1695C23.734 40.4638 23.2813 41.8007 22.9375 43.1674C22.8831 43.3845 22.7578 43.5772 22.5815 43.715C22.4052 43.8528 22.1879 43.9279 21.9641 43.9282C21.5038 43.9282 21.1031 43.6142 20.9907 43.1667C20.6471 41.8002 20.1943 40.4635 19.6369 39.1695C18.1808 35.7849 16.1825 32.8233 13.6434 30.2849C11.1049 27.7471 8.14338 25.7481 4.75877 24.2914C3.46465 23.7341 2.12796 23.2814 0.761538 22.9375C0.544441 22.8833 0.351651 22.7582 0.213708 22.582C0.0757655 22.4058 0.000558166 22.1886 0 21.9648C0 21.5045 0.314769 21.1038 0.761538 20.9914C2.12802 20.6478 3.46472 20.195 4.75877 19.6375C8.14338 18.1815 11.1056 16.1825 13.6434 13.6441C16.1818 11.1063 18.1808 8.14406 19.6375 4.75945C20.1946 3.46531 20.6471 2.12862 20.9907 0.762215C21.0449 0.54488 21.17 0.351853 21.3464 0.213767C21.5227 0.0756809 21.7401 0.000445423 21.9641 0Z"/>
    </clipPath>
    <filter id="b1" x="-50%" y="-50%" width="200%" height="200%">
      <feGaussianBlur stdDeviation="3.5"/>
    </filter>
    <filter id="b2" x="-100%" y="-100%" width="300%" height="300%">
      <feGaussianBlur stdDeviation="7"/>
    </filter>
    <filter id="b3" x="-80%" y="-80%" width="260%" height="260%">
      <feGaussianBlur stdDeviation="5"/>
    </filter>
  </defs>

  <g clip-path="url(#star)">
    <!-- base: blue -->
    <rect width="44" height="44" fill="#3186FF"/>
    <!-- red blob: top-center -->
    <ellipse cx="22" cy="2" rx="16" ry="14" fill="#FC413D" filter="url(#b2)"/>
    <!-- yellow blob: left -->
    <ellipse cx="2" cy="22" rx="14" ry="10" fill="#FFE432" filter="url(#b1)"/>
    <!-- green blob: bottom-right -->
    <ellipse cx="38" cy="38" rx="16" ry="16" fill="#00B95C" filter="url(#b2)"/>
    <!-- gold blob: bottom-left -->
    <ellipse cx="6" cy="38" rx="12" ry="10" fill="#FBBC04" filter="url(#b3)"/>
    <!-- blue blob: right -->
    <ellipse cx="44" cy="22" rx="12" ry="10" fill="#749BFF" filter="url(#b1)"/>
    <!-- yellow-top: upper-left -->
    <ellipse cx="4" cy="8" rx="10" ry="8" fill="#FFEE48" filter="url(#b3)"/>
  </g>
</svg>
