<svg preserveAspectRatio="none" width="100%" height="100%" overflow="visible" style="display: block;" viewBox="0 0 64 64" fill="none" xmlns="http://www.w3.org/2000/svg">
<g id="app" filter="url(#filter0_i_0_27)">
<rect width="64" height="64" rx="16" fill="var(--fill-0, #EAEAEA)" fill-opacity="0.1"/>
<path id="Vector" d="M24.4965 9.87934C26.3431 9.1196 28.3533 8.84511 30.336 9.082C32.8915 9.37589 35.1686 10.462 37.167 12.3403C37.1926 12.3659 37.2283 12.3838 37.2616 12.394C37.2977 12.4029 37.3354 12.4029 37.3715 12.394C39.9696 11.7231 42.7198 11.9714 45.1557 13.0968L45.2758 13.153L45.5723 13.2987C48.1221 14.5911 50.111 16.7717 51.1639 19.4295C51.698 20.7328 51.9637 22.0898 51.9689 23.5056C52.0073 24.5586 51.8919 25.6115 51.6264 26.6311C51.6133 26.6826 51.6135 26.7365 51.6269 26.7879C51.6403 26.8393 51.6665 26.8865 51.7031 26.925C53.2211 28.4762 54.228 30.3239 54.7263 32.4706C55.4649 36.1122 54.7084 39.3961 52.4595 42.3197L52.112 42.7439C50.6225 44.4489 48.6675 45.6817 46.4872 46.2911C46.4398 46.3049 46.3964 46.3297 46.3605 46.3635C46.3245 46.3972 46.297 46.439 46.2802 46.4853C45.792 47.8934 45.3014 49.0996 44.389 50.3033C42.089 53.3368 38.7106 55.0209 34.9053 55.0004C31.8719 54.9851 29.1834 53.876 26.8374 51.6731C26.8021 51.6401 26.7586 51.617 26.7115 51.6062C26.6644 51.5954 26.6152 51.5974 26.5691 51.6118C25.5775 51.9312 24.5757 51.9772 23.4922 51.9644C21.7663 51.9506 20.0663 51.5433 18.5216 50.7735C16.9035 49.9717 15.4947 48.8035 14.4071 47.3619C14.0187 46.8456 13.6328 46.3601 13.3491 45.7851C12.9619 44.996 12.6454 44.1742 12.4035 43.3292C11.8929 41.4064 11.8806 39.3853 12.3678 37.4565C12.3838 37.4106 12.389 37.3616 12.3831 37.3134C12.3744 37.2659 12.3501 37.2228 12.3141 37.1907C11.1336 35.9958 10.2313 34.5551 9.67164 32.9714C9.29943 31.996 9.08297 30.968 9.0302 29.9252C8.93735 28.5518 9.05892 27.1723 9.39053 25.8363C10.2518 22.9945 11.9001 20.7635 14.3304 19.1458C14.8722 18.7855 15.3859 18.5044 15.8663 18.3025C16.4158 18.075 16.9652 17.8834 17.5172 17.7224C17.5567 17.7101 17.5925 17.6883 17.6215 17.6589C17.6505 17.6295 17.6717 17.5933 17.6833 17.5537C18.1025 16.0486 18.8233 14.6444 19.8019 13.4265C21.0356 11.8599 22.6525 10.6382 24.4965 9.87934ZM33.395 36.8789C32.9797 36.9022 32.589 37.0836 32.3033 37.3859C32.0175 37.6881 31.8583 38.0883 31.8583 38.5043C31.8583 38.9202 32.0175 39.3204 32.3033 39.6226C32.589 39.9249 32.9797 40.1063 33.395 40.1296H42.687C42.9081 40.142 43.1295 40.1092 43.3374 40.0331C43.5454 39.957 43.7357 39.8393 43.8966 39.6871C44.0575 39.535 44.1857 39.3516 44.2733 39.1482C44.3609 38.9448 44.4061 38.7257 44.4061 38.5043C44.4061 38.2828 44.3609 38.0637 44.2733 37.8603C44.1857 37.6569 44.0575 37.4735 43.8966 37.3214C43.7357 37.1692 43.5454 37.0515 43.3374 36.9754C43.1295 36.8993 42.9081 36.8665 42.687 36.8789H33.395ZM22.958 24.9214C22.7369 24.5612 22.3843 24.3011 21.9748 24.1962C21.5654 24.0913 21.1312 24.1497 20.7641 24.3592C20.3969 24.5687 20.1257 24.9127 20.0076 25.3186C19.8896 25.7244 19.934 26.1603 20.1316 26.534L23.3823 32.2176L20.1469 37.6762C20.038 37.86 19.9664 38.0634 19.9361 38.2748C19.9058 38.4862 19.9174 38.7016 19.9703 38.9085C20.0233 39.1154 20.1164 39.3099 20.2445 39.4808C20.3726 39.6518 20.5331 39.7958 20.7168 39.9047C20.9006 40.0136 21.1039 40.0853 21.3154 40.1156C21.5268 40.1459 21.7421 40.1342 21.9491 40.0813C22.156 40.0284 22.3505 39.9352 22.5214 39.8071C22.6923 39.679 22.8364 39.5186 22.9453 39.3348L26.6611 33.0609C26.8076 32.8137 26.8859 32.5321 26.8882 32.2448C26.8904 31.9575 26.8165 31.6748 26.6738 31.4253L22.958 24.9214Z" fill="url(#paint0_linear_0_27)"/>
</g>
<defs>
<filter id="filter0_i_0_27" x="0" y="0" width="64" height="64" filterUnits="userSpaceOnUse" color-interpolation-filters="sRGB">
<feFlood flood-opacity="0" result="BackgroundImageFix"/>
<feBlend mode="normal" in="SourceGraphic" in2="BackgroundImageFix" result="shape"/>
<feColorMatrix in="SourceAlpha" type="matrix" values="0 0 0 0 0 0 0 0 0 0 0 0 0 0 0 0 0 0 127 0" result="hardAlpha"/>
<feMorphology radius="51" operator="dilate" in="SourceAlpha" result="effect1_innerShadow_0_27"/>
<feOffset dx="2" dy="-1"/>
<feGaussianBlur stdDeviation="5.45"/>
<feComposite in2="hardAlpha" operator="arithmetic" k2="-1" k3="1"/>
<feColorMatrix type="matrix" values="0 0 0 0 0 0 0 0 0 0 0 0 0 0 0 0 0 0 0.15 0"/>
<feBlend mode="normal" in2="shape" result="effect1_innerShadow_0_27"/>
</filter>
<linearGradient id="paint0_linear_0_27" x1="31.9996" y1="9.00022" x2="31.9996" y2="55.0004" gradientUnits="userSpaceOnUse">
<stop stop-color="#B1A7FF"/>
<stop offset="0.5" stop-color="#7A9DFF"/>
<stop offset="1" stop-color="#3941FF"/>
</linearGradient>
</defs>
</svg>
