<svg preserveAspectRatio="none" width="100%" height="100%" overflow="visible" style="display: block;" viewBox="0 0 42 42" fill="none" xmlns="http://www.w3.org/2000/svg">
<g id="notebooklm-icon 1">
<path id="Vector" fill-rule="evenodd" clip-rule="evenodd" d="M20.9983 5.49503C9.40103 5.49503 0 15.0289 0 26.7961V36.995H3.87105V35.9801C3.87105 31.206 7.68247 27.3385 12.3865 27.3385C17.0905 27.3385 20.902 31.206 20.902 35.9783V36.995H24.773V35.9801C24.773 29.0378 19.2255 23.415 12.3865 23.415C9.81961 23.412 7.31728 24.2192 5.23597 25.7215C7.35 21.4586 11.7023 18.5325 16.73 18.5325C23.8298 18.5325 29.5873 24.3739 29.5873 31.5753V36.995H33.4583V31.5752C33.4583 22.204 25.9682 14.6038 16.7282 14.6038C12.7272 14.6023 8.86149 16.0523 5.8485 18.6848C8.72205 13.174 14.427 9.42022 21 9.42022C30.4605 9.42022 38.1289 17.2007 38.1289 26.7977V36.995H42V26.7961C41.9984 15.0289 32.5972 5.49495 20.9984 5.49495L20.9983 5.49503Z" fill="var(--fill-0, black)"/>
</g>
</svg>
