<svg preserveAspectRatio="none" width="100%" height="100%" overflow="visible" style="display: block;" viewBox="0 0 948.255 259.76" fill="none" xmlns="http://www.w3.org/2000/svg">
<g id="BUILD (Stroke)">
<path id="Stroke" d="M727.734 0H823.055V1H728.734V229.24H780.935V253H823.055C849.695 253 872.254 247.6 890.734 236.8C909.214 225.76 923.255 210.76 932.854 191.8C942.154 173.432 946.95 152.475 947.24 128.927L947.255 126.64C947.255 102.4 942.454 80.9201 932.854 62.2002C923.255 43.2402 909.214 28.3596 890.734 17.5596C872.254 6.51973 849.694 1 823.055 1V46.3604C839.375 46.3604 852.695 50.0797 863.015 57.5195C873.335 64.9595 880.894 74.8001 885.694 87.04C890.494 99.2799 892.894 112.48 892.895 126.64C892.895 141.04 890.494 154.36 885.694 166.6C880.894 178.84 873.335 188.8 863.015 196.48C852.695 203.92 839.375 207.64 823.055 207.64H780.935V46.3604H823.055V0H824.055V0.00390625C850.395 0.140588 872.806 5.68642 891.239 16.6963C909.884 27.5926 924.06 42.6151 933.747 61.748H933.746C943.427 80.6283 948.255 102.267 948.255 126.64L948.24 128.939C947.948 152.618 943.126 173.73 933.747 192.252C924.06 211.383 909.887 226.523 891.247 237.658L891.239 237.663C872.806 248.436 850.396 253.862 824.055 253.996V254H779.935V230.24H727.734V0ZM891.895 126.64C891.894 113.034 889.661 100.338 885.202 88.5439L884.764 87.4053C880.031 75.3378 872.588 65.6548 862.43 58.3311C852.638 51.2723 840.04 47.5941 824.562 47.3711L823.055 47.3604H781.935V206.64H823.055L824.562 206.629C840.04 206.406 852.638 202.728 862.43 195.669C872.59 188.104 880.032 178.3 884.764 166.235C889.514 154.122 891.895 140.927 891.895 126.64Z" fill="#000000"/>
<path id="Stroke_2" d="M603.396 207.64V253H706.355V207.64H603.396ZM551.195 1V253H603.396V1H551.195ZM604.396 206.64H707.355V254H550.195V0H604.396V206.64Z" fill="#000000"/>
<path id="Stroke_3" d="M461.547 1V253H513.747V1H461.547ZM514.747 254H460.547V0H514.747V254Z" fill="#000000"/>
<path id="Stroke_4" d="M269.721 145V1H217.521V145C217.521 168.76 221.001 189.16 227.961 206.2C234.921 223 245.961 235.96 261.081 245.08C275.961 253.915 295.458 258.471 319.572 258.747L321.921 258.76C346.881 258.76 366.921 254.2 382.041 245.08C397.161 236.103 408.211 223.404 415.191 206.984L415.521 206.2C422.481 189.16 425.961 168.76 425.961 145V1H373.761V145L373.756 146.3C373.661 159.668 372.103 171.235 369.081 181C366.201 190.84 360.92 198.4 353.24 203.68C345.8 208.96 335.361 211.6 321.921 211.6V210.6C335.247 210.6 345.454 207.98 352.662 202.864L352.668 202.86L352.674 202.855C360.145 197.719 365.299 190.361 368.121 180.719L368.123 180.712L368.125 180.704C371.208 170.745 372.761 158.85 372.761 145V0H426.961V146H426.956C426.86 169.428 423.369 189.629 416.446 206.578L416.444 206.583C409.404 223.577 398.102 236.703 382.556 245.936L382.557 245.937C367.229 255.181 346.991 259.76 321.921 259.76C297.007 259.76 276.777 255.324 261.304 246.37L260.57 245.939L260.564 245.937C245.495 236.847 234.427 223.983 227.37 207.376L227.037 206.583L226.387 204.957C219.894 188.346 216.619 168.686 216.525 146H216.521V0H270.721V145L270.725 146.293C270.811 159.585 272.24 171.048 274.994 180.698C278.054 190.35 283.33 197.715 290.807 202.855C298.261 207.98 308.598 210.6 321.921 210.6V211.6L320.669 211.592C307.823 211.432 297.68 208.795 290.24 203.68C282.56 198.4 277.161 190.84 274.041 181C271.161 170.92 269.721 158.92 269.721 145Z" fill="#000000"/>
<path id="Stroke_5" d="M0 0H77.6807V1H1V229.24H53.2002V253H91.7207L93.4258 252.993C110.427 252.86 125.952 250.722 140 246.581L141.4 246.16C156.048 241.743 167.767 234.284 176.559 223.785L177.4 222.76C186.003 211.832 190.438 197.188 190.707 178.828L190.721 177.04C190.721 166 188.2 156.16 183.16 147.52C178.12 138.88 171.16 131.92 162.28 126.64C160.126 125.323 157.905 124.156 155.616 123.138C156.966 122.234 158.228 121.242 159.4 120.16C165.445 114.348 169.801 107.521 172.468 99.6816L172.721 98.9199C175.278 90.7826 176.597 82.9831 176.677 75.5215L176.681 74.7998C176.681 55.3599 172.24 40.3598 163.36 29.7998C154.758 19.3373 143.227 12.028 128.769 7.87207L127.36 7.48047C112.945 3.2955 96.9539 1.13667 79.3857 1.00586L77.6807 1V0C95.9913 3.0387e-05 112.641 2.16768 127.621 6.51465C142.912 10.641 155.098 18.1814 164.125 29.1562C173.208 39.9578 177.681 55.2195 177.681 74.7998L177.677 75.5322C177.596 83.1048 176.257 91.0019 173.674 99.2197L173.672 99.2275C170.981 107.546 166.451 114.768 160.094 120.881L160.078 120.895C159.29 121.622 158.464 122.308 157.601 122.956C159.371 123.807 161.101 124.748 162.79 125.78H162.791C171.53 130.976 178.451 137.784 183.537 146.197L184.024 147.017C189.162 155.825 191.721 165.842 191.721 177.04L191.707 178.843C191.436 197.353 186.962 212.231 178.186 223.379L178.18 223.387C169.16 234.601 156.981 242.504 141.692 247.115C126.703 251.709 110.043 254 91.7207 254H52.2002V230.24H0V0ZM121.32 74.7998C121.32 66.802 119.438 60.9816 115.846 57.1514L115.493 56.7871C111.711 53.0051 106.604 50.4802 100.104 49.2598L99.4707 49.1455L99.4648 49.1445C93.227 48.0306 86.4554 47.437 79.1484 47.3672L77.6807 47.3604H54.2002V102.24H77.6807V103.24H53.2002V148.6H91.7207C99.6405 148.6 106.961 149.2 113.681 150.4C120.64 151.6 126.16 154.24 130.24 158.32C134.32 162.4 136.36 168.64 136.36 177.04L136.354 177.822C136.231 185.843 134.193 192.063 130.24 196.48C126.16 200.8 120.64 203.8 113.681 205.48C107.381 206.83 100.553 207.547 93.1982 207.632L91.7207 207.64V206.64C99.5759 206.64 106.821 205.925 113.459 204.504C120.259 202.86 125.587 199.946 129.506 195.8C133.362 191.482 135.36 185.278 135.36 177.04C135.36 169.042 133.478 163.222 129.886 159.392L129.533 159.027C125.751 155.245 120.644 152.719 114.144 151.499L113.511 151.386L113.505 151.385C107.267 150.271 100.495 149.677 93.1885 149.607L91.7207 149.6H54.2002V206.64H91.7207V207.64H53.2002V46.3604H77.6807C85.6005 46.3604 92.9207 46.9602 99.6406 48.1602C106.6 49.3602 112.12 52.0002 116.2 56.0801C120.28 60.1601 122.32 66.3999 122.32 74.7998L122.314 75.5811C122.191 83.5877 120.153 89.567 116.2 93.5195C112.12 97.5995 106.601 100.24 99.6406 101.44C93.3406 102.565 86.5129 103.163 79.1582 103.233L77.6807 103.24V102.24C85.5507 102.24 92.8113 101.643 99.4648 100.455L99.4707 100.454C106.273 99.2812 111.589 96.7164 115.493 92.8125C119.315 88.991 121.32 83.0553 121.32 74.7998Z" fill="#000000"/>
</g>
</svg>
