<svg preserveAspectRatio="none" width="100%" height="100%" overflow="visible" style="display: block;" viewBox="0 0 1177.2 254" fill="none" xmlns="http://www.w3.org/2000/svg">
<g id="DEFINE (Stroke)">
<path id="Stroke" d="M1051.64 103.6V148.96H1160.36V103.6H1051.64ZM1161.36 149.96H1052.64V206.64H1177.2V254H1050.64V230.24H998.438V0H1051.64V1H999.438V229.24H1051.64V253H1176.2V207.64H1051.64V46.3604H1174.76V1H1051.64V0H1175.76V47.3604H1052.64V102.6H1161.36V149.96Z" fill="#000000"/>
<path id="Stroke_2" d="M911.485 1V187.056L826.165 1H749.125V253H799.525V66.9434L884.846 253H961.886V1H911.485ZM962.886 254H884.204L800.525 71.5244V254H748.125V0H826.807L910.485 182.477V0H962.886V254Z" fill="#000000"/>
<path id="Stroke_3" d="M659.477 1V253H711.677V1H659.477ZM712.677 254H658.477V0H712.677V254Z" fill="#000000"/>
<path id="Stroke_4" d="M510.935 110.8V156.16H616.055V110.8H510.935ZM510.935 1V46.3604H630.455V1H510.935ZM458.734 253H510.935V24.7598H458.734V253ZM631.455 47.3604H511.935V109.8H617.055V157.16H511.935V254H457.734V23.7598H509.935V0H631.455V47.3604Z" fill="#000000"/>
<path id="Stroke_5" d="M300.349 103.6V148.96H409.068V103.6H300.349ZM410.068 149.96H301.349V206.64H425.909V254H299.349V230.24H247.148V0H300.349V1H248.148V229.24H300.349V253H424.909V207.64H300.349V46.3604H423.469V1H300.349V0H424.469V47.3604H301.349V102.6H410.068V149.96Z" fill="#000000"/>
<path id="Stroke_6" d="M0 0H95.3203V1H1V229.24H53.2002V253H95.3203C121.96 253 144.52 247.6 163 236.8C181.48 225.76 195.52 210.76 205.12 191.8C214.42 173.432 219.215 152.475 219.506 128.927L219.521 126.64C219.52 102.4 214.72 80.9201 205.12 62.2002C195.52 43.2402 181.48 28.3596 163 17.5596C144.52 6.51973 121.96 1 95.3203 1V46.3604C111.64 46.3604 124.96 50.0797 135.28 57.5195C145.6 64.9595 153.16 74.8001 157.96 87.04C162.76 99.2799 165.16 112.48 165.16 126.64C165.16 141.04 162.76 154.36 157.96 166.6C153.16 178.84 145.6 188.8 135.28 196.48C124.96 203.92 111.64 207.64 95.3203 207.64H53.2002V46.3604H95.3203V0H96.3203V0.00390625C122.661 0.140588 145.071 5.68642 163.505 16.6963C182.15 27.5926 196.325 42.6151 206.013 61.748H206.012C215.693 80.6283 220.52 102.267 220.521 126.64L220.506 128.939C220.214 152.618 215.391 173.73 206.013 192.252C196.326 211.383 182.153 226.523 163.513 237.658L163.505 237.663C145.071 248.436 122.661 253.862 96.3203 253.996V254H52.2002V230.24H0V0ZM164.16 126.64C164.16 113.034 161.927 100.338 157.468 88.5439L157.029 87.4053C152.297 75.3378 144.854 65.6548 134.695 58.3311C124.904 51.2723 112.305 47.5941 96.8271 47.3711L95.3203 47.3604H54.2002V206.64H95.3203L96.8271 206.629C112.305 206.406 124.904 202.728 134.695 195.669C144.856 188.104 152.298 178.3 157.029 166.235C161.78 154.122 164.16 140.927 164.16 126.64Z" fill="#000000"/>
</g>
</svg>
