<svg preserveAspectRatio="none" width="100%" height="100%" overflow="visible" style="display: block;" viewBox="0 0 1247.3 265.52" fill="none" xmlns="http://www.w3.org/2000/svg">
<g id="DESIGN (Stroke)">
<path id="Stroke" d="M1195.9 6.75977V192.815L1110.58 6.75977H1033.54V258.76H1083.94V72.7031L1169.26 258.76H1246.3V6.75977H1195.9ZM1247.3 259.76H1168.62L1084.94 77.2842V259.76H1032.54V5.75977H1111.22L1194.9 188.236V5.75977H1247.3V259.76Z" fill="#000000"/>
<path id="Stroke_2" d="M885.139 118.08H1001.9L1001.98 119.003L1002.19 121.901C1004.19 151.72 1001.12 177.31 992.912 198.639L992.911 198.643C984.441 220.422 971.111 237.039 952.914 248.443L952.915 248.444C934.958 259.849 912.68 265.52 886.139 265.52C859.768 265.519 837.192 259.789 818.456 248.279L817.567 247.727L817.561 247.723L817.555 247.719C798.921 235.619 784.757 219.518 775.078 199.434C765.406 179.364 760.579 157.013 760.579 132.399C760.579 114.3 763.234 97.2728 768.551 81.3232L768.553 81.3154C774.112 65.1198 782.216 50.9636 792.868 38.8594C803.529 26.7443 816.611 17.2991 832.099 10.5234C847.846 3.499 865.866 4.0988e-05 886.139 0C920.151 0 946.823 9.04806 966.018 27.2656C985.115 44.9307 996.662 68.6858 1000.7 98.4521L1000.89 99.874L1001.03 101H943.596L943.47 100.146C942.281 92.0618 940.264 84.9562 937.431 78.8184L937.428 78.8125L937.425 78.8057C934.685 72.6405 931.07 67.4915 926.587 63.3418L926.15 62.9434L926.131 62.9258L926.112 62.9072C921.814 58.6086 916.519 55.3939 910.207 53.2734L909.593 53.0723L909.578 53.0664L909.562 53.0615C902.976 50.7091 895.174 49.5195 886.139 49.5195C869.99 49.5196 856.779 53.5543 846.431 61.5508L846.428 61.5527C836.267 69.3507 828.816 79.6321 824.077 92.4268L824.074 92.4326C819.319 105.035 816.939 118.355 816.939 132.399L816.946 133.737C817.09 147.533 819.469 160.65 824.077 173.093H824.076C828.813 185.643 836.264 195.927 846.431 203.969C856.779 211.965 869.99 216 886.139 216V217L884.617 216.988C868.982 216.741 856.049 212.665 845.819 204.76C835.499 196.6 827.939 186.159 823.139 173.439C818.489 160.885 816.092 147.654 815.946 133.748L815.939 132.399C815.939 118.682 818.192 105.64 822.696 93.2744L823.139 92.0801C827.789 79.5252 835.029 69.3348 844.859 61.5098L845.819 60.7598C856.379 52.5999 869.819 48.5196 886.139 48.5195C895.259 48.5195 903.179 49.7201 909.899 52.1201C916.619 54.2801 922.259 57.6403 926.819 62.2002C931.619 66.5201 935.459 71.9198 938.339 78.3994C941.039 84.2495 943.001 90.9437 944.225 98.4814L944.459 100H999.899C996.059 69.76 984.539 45.76 965.339 28C946.379 10 919.979 1 886.139 1C865.979 1.00004 848.099 4.47953 832.499 11.4395C817.139 18.1594 804.179 27.5196 793.619 39.5195L792.637 40.6504C782.559 52.399 774.847 66.062 769.499 81.6396C764.219 97.4795 761.579 114.4 761.579 132.399L761.593 134.688C761.883 158.265 766.68 179.703 775.979 199C785.579 218.92 799.619 234.88 818.099 246.88C836.819 258.64 859.499 264.519 886.139 264.52C912.539 264.52 934.619 258.88 952.379 247.6C970.098 236.496 983.166 220.392 991.582 199.288L991.979 198.279C1000.38 176.439 1003.38 150.04 1000.98 119.08H886.139V164.439H947.296C947.032 169.8 946.207 174.841 944.819 179.56C942.659 187.48 938.939 194.2 933.659 199.72C928.619 205.24 922.019 209.56 913.859 212.68C905.939 215.56 896.699 217 886.139 217V216C896.607 216 905.725 214.572 913.511 211.742C921.545 208.669 928.004 204.431 932.921 199.046L932.937 199.028C938.093 193.638 941.735 187.068 943.854 179.297L943.856 179.287L943.859 179.277C945.132 174.949 945.926 170.337 946.238 165.439H885.139V118.08Z" fill="#000000"/>
<path id="Stroke_3" d="M680.57 6.75977V258.76H732.771V6.75977H680.57ZM733.771 259.76H679.57V5.75977H733.771V259.76Z" fill="#000000"/>
<path id="Stroke_4" d="M500.847 177.479L500.953 178.359C501.864 185.87 504.421 192.358 508.613 197.851L509.024 198.379C513.475 204 519.218 208.342 526.276 211.401C533.577 214.461 541.72 216 550.721 216V217L549.868 216.995C541.084 216.901 533.087 215.342 525.88 212.319C518.905 209.297 513.169 205.036 508.672 199.536L508.24 199C503.68 193.24 500.92 186.399 499.96 178.479H444.88C445.6 195.039 450.521 209.8 459.641 222.76C468.761 235.72 481 245.919 496.36 253.359C511.24 260.567 528.035 264.284 546.744 264.509L548.561 264.52C579.746 264.519 604.07 258.241 621.534 245.683L622.36 245.08C639.607 232.323 648.364 214.565 648.634 191.808L648.641 190.72C648.641 176.08 646.001 164.08 640.721 154.72C635.441 145.12 628.36 137.44 619.48 131.68C611.11 126.1 601.952 121.646 592.005 118.318L591.04 118C580.72 114.64 570.281 111.88 559.721 109.72C550.691 107.62 542.212 105.428 534.284 103.145L530.92 102.16C522.55 99.6026 515.757 96.3689 510.54 92.46L510.04 92.0801C504.925 88.1276 502.288 82.7107 502.128 75.8301L502.12 75.1602C502.12 67.7201 505.611 61.5181 512.594 56.5557L513.28 56.0801C520.72 51.0401 531.4 48.5195 545.32 48.5195L546.638 48.5293C560.144 48.7328 570.385 52.0896 577.36 58.5996C584.8 65.3196 589 74.6797 589.96 86.6797H644.681C644.681 70.3598 640.361 55.7197 631.721 42.7598C623.583 30.2047 612.517 20.2399 598.523 12.8652L597.16 12.1602C582.52 4.72017 565.84 1 547.12 1C527.92 1.00002 510.761 4.23983 495.641 10.7197C480.761 16.9597 469 25.72 460.36 37C451.96 48.04 447.761 60.7602 447.761 75.1602L447.768 76.5479C447.927 90.8101 450.566 102.708 455.681 112.24C460.961 121.84 467.921 129.64 476.561 135.64C485.441 141.64 495.04 146.44 505.36 150.04C515.92 153.4 526.361 156.28 536.681 158.68C547 161.08 556.48 163.48 565.12 165.88C574 168.28 581.08 171.4 586.36 175.24C591.64 179.08 594.28 184.24 594.28 190.72C594.28 199.84 590.08 206.56 581.681 210.88C573.281 214.96 562.961 217 550.721 217V216C562.844 216 572.998 213.979 581.223 209.989C585.293 207.896 588.295 205.249 590.282 202.069C592.269 198.891 593.28 195.121 593.28 190.72C593.28 184.755 590.948 180.007 586.235 176.395L585.772 176.049C580.944 172.538 574.529 169.613 566.489 167.3L564.859 166.845L564.853 166.844C557.306 164.748 549.116 162.65 540.28 160.553L536.454 159.653C526.754 157.397 516.949 154.719 507.04 151.618L505.057 150.993L505.044 150.988L505.031 150.984C494.956 147.47 485.559 142.819 476.842 137.032L476 136.469L475.99 136.461C467.218 130.369 460.155 122.451 454.804 112.722L454.799 112.713C449.419 102.687 446.761 90.1522 446.761 75.1602C446.761 60.5504 451.027 47.6155 459.564 36.3945L459.566 36.3916C468.325 24.9572 480.231 16.0987 495.246 9.80078L496.684 9.19727C511.593 3.05894 528.411 1.72547e-05 547.12 0C565.386 0 581.76 3.51699 596.22 10.5742L597.613 11.2686C612.396 18.7811 624.051 29.0929 632.553 42.2051C641.308 55.3374 645.681 70.1723 645.681 86.6797V87.6797H589.037L588.964 86.7598C588.049 75.3287 584.158 66.4288 577.357 59.96L576.69 59.3418L576.684 59.3359L576.678 59.3311C569.73 52.8467 559.337 49.5195 545.32 49.5195C531.498 49.5195 521.047 52.0254 513.841 56.9072C506.622 61.7977 503.12 67.8721 503.12 75.1602L503.128 75.8037C503.28 82.4102 505.795 87.5352 510.651 91.2881C515.809 95.2732 522.65 98.5867 531.213 101.203H531.212C540.064 103.835 549.638 106.348 559.934 108.742C570.526 110.909 580.998 113.679 591.35 117.049C601.748 120.434 611.308 125.031 620.024 130.841C629.045 136.692 636.235 144.494 641.591 154.229C646.981 163.783 649.641 175.967 649.641 190.72L649.634 191.821C649.36 214.866 640.471 232.926 622.955 245.884C605.201 259.017 580.361 265.519 548.561 265.52C529.602 265.52 512.537 262.005 497.385 254.953L495.925 254.26C480.424 246.752 468.047 236.444 458.822 223.335C449.876 210.621 444.924 196.197 443.962 180.088L443.881 178.523L443.836 177.479H500.847Z" fill="#000000"/>
<path id="Stroke_5" d="M300.349 109.359V154.72H409.068V109.359H300.349ZM410.068 155.72H301.349V212.399H425.909V259.76H299.349V236H247.148V5.75977H300.349V6.75977H248.148V235H300.349V258.76H424.909V213.399H300.349V52.1201H423.469V6.75977H300.349V5.75977H424.469V53.1201H301.349V108.359H410.068V155.72Z" fill="#000000"/>
<path id="Stroke_6" d="M0 5.75977H95.3203V6.75977H1V235H53.2002V258.76H95.3203C121.96 258.76 144.52 253.36 163 242.56C181.48 231.52 195.52 216.52 205.12 197.56C214.42 179.192 219.215 158.234 219.506 134.687L219.521 132.399C219.52 108.16 214.72 86.6799 205.12 67.96C195.52 49 181.48 34.1193 163 23.3193C144.52 12.2795 121.96 6.75977 95.3203 6.75977V52.1201C111.64 52.1201 124.96 55.8394 135.28 63.2793C145.6 70.7193 153.16 80.5598 157.96 92.7998C162.76 105.04 165.16 118.24 165.16 132.399C165.16 146.799 162.76 160.119 157.96 172.359C153.16 184.599 145.6 194.56 135.28 202.24C124.96 209.68 111.64 213.399 95.3203 213.399H53.2002V52.1201H95.3203V5.75977H96.3203V5.76367C122.661 5.90035 145.071 11.4462 163.505 22.4561C182.15 33.3524 196.325 48.3749 206.013 67.5078H206.012C215.693 86.3881 220.52 108.027 220.521 132.399L220.506 134.699C220.214 158.378 215.391 179.489 206.013 198.012C196.326 217.143 182.153 232.282 163.513 243.418L163.505 243.423C145.071 254.196 122.661 259.622 96.3203 259.756V259.76H52.2002V236H0V5.75977ZM164.16 132.399C164.16 118.794 161.927 106.098 157.468 94.3037L157.029 93.165C152.297 81.0976 144.854 71.4146 134.695 64.0908C124.904 57.0321 112.305 53.3539 96.8271 53.1309L95.3203 53.1201H54.2002V212.399H95.3203L96.8271 212.389C112.305 212.166 124.904 208.487 134.695 201.429C144.856 193.864 152.298 184.06 157.029 171.995C161.78 159.882 164.16 146.686 164.16 132.399Z" fill="#000000"/>
</g>
</svg>
