<svg preserveAspectRatio="none" width="100%" height="100%" overflow="visible" style="display: block;" viewBox="0 0 1735.54 265.52" fill="none" xmlns="http://www.w3.org/2000/svg">
<g id="DISCOVER (Stroke)">
<path id="Stroke" d="M1676.77 88.6807C1676.64 79.954 1674.54 73.2225 1670.58 68.3721L1670.18 67.8936L1670.17 67.875L1670.15 67.8564C1666.13 62.7136 1660.23 59.042 1652.38 56.8916L1651.61 56.6885L1651.58 56.6787C1644.04 54.4611 1635.01 53.2736 1624.47 53.1338L1622.34 53.1201H1588.42V126H1622.34L1624.47 125.987C1635 125.862 1644.04 124.793 1651.58 122.798C1659.84 120.438 1666.01 116.69 1670.17 111.606L1670.17 111.603C1674.54 106.315 1676.78 99.0065 1676.78 89.5596L1676.77 88.6807ZM1677.77 90.4541C1677.63 99.6304 1675.36 106.893 1670.94 112.24C1666.62 117.52 1660.26 121.36 1651.86 123.76C1643.7 125.92 1633.86 127 1622.34 127H1587.42V172.359H1622.34C1627.62 172.359 1632.74 172.203 1637.7 171.895L1674.54 258.76H1733.94L1686.82 161.818C1699.93 156.474 1710.35 148.709 1718.1 138.52C1727.46 126.28 1732.14 109.96 1732.14 89.5596C1732.14 68.9197 1727.46 52.5996 1718.1 40.5996C1708.98 28.5998 1696.14 19.9597 1679.58 14.6797C1663.26 9.39968 1644.18 6.75977 1622.34 6.75977V52.1201C1633.86 52.1201 1643.7 53.3197 1651.86 55.7197C1660.26 57.8797 1666.62 61.7203 1670.94 67.2402C1675.5 72.5202 1677.78 79.9599 1677.78 89.5596L1677.77 90.4541ZM1733.14 89.5596C1733.14 110.107 1728.42 126.661 1718.89 139.124C1711.22 149.216 1700.97 156.945 1688.18 162.334L1735.54 259.76H1673.88L1637.05 172.936C1632.61 173.198 1628.04 173.338 1623.34 173.355V173.359H1588.42V259.76H1534.22V29.5195H1586.42V5.75977H1622.34V6.75977H1587.42V52.1201H1622.34V5.75977H1623.34V5.76367C1644.84 5.84315 1663.69 8.48911 1679.88 13.7266C1696.6 19.0576 1709.62 27.802 1718.89 39.9844C1728.43 52.2134 1733.14 68.7755 1733.14 89.5596ZM1535.22 258.76H1587.42V30.5195H1535.22V258.76Z" fill="#000000"/>
<path id="Stroke_2" d="M1376.83 109.359V154.72H1485.55V109.359H1376.83ZM1486.55 155.72H1377.83V212.399H1502.39V259.76H1375.83V236H1323.63V5.75977H1376.83V6.75977H1324.63V235H1376.83V258.76H1501.39V213.399H1376.83V52.1201H1499.95V6.75977H1376.83V5.75977H1500.95V53.1201H1377.83V108.359H1486.55V155.72Z" fill="#000000"/>
<path id="Stroke_3" d="M1127.03 5.75977L1185.86 210.628L1244.68 5.75977H1300.06L1223.5 259.76H1148.21L1071.65 5.75977H1127.03ZM1073 6.75977L1148.96 258.76H1222.76L1298.72 6.75977H1245.44L1185.86 214.252L1126.28 6.75977H1073Z" fill="#000000"/>
<path id="Stroke_4" d="M1067.29 132.399C1067.29 114.4 1064.53 97.4795 1059.01 81.6396C1053.73 65.5597 1045.81 51.5195 1035.25 39.5195C1024.69 27.5196 1011.61 18.1594 996.012 11.4395C980.652 4.4796 963.012 1 943.092 1C922.932 1.00004 905.052 4.47953 889.452 11.4395C874.092 18.1594 861.132 27.5196 850.572 39.5195L849.59 40.6504C839.512 52.399 831.8 66.062 826.452 81.6396C821.172 97.4795 818.532 114.4 818.532 132.399L818.546 134.688C818.837 158.265 823.633 179.703 832.933 199C842.533 218.92 856.572 234.88 875.052 246.88C893.772 258.64 916.452 264.519 943.092 264.52C969.316 264.52 991.587 258.822 1009.9 247.427L1010.77 246.88C1028.96 235.067 1042.85 219.417 1052.44 199.931L1052.89 199C1062.49 179.08 1067.29 156.879 1067.29 132.399ZM1011.93 132.399C1011.93 118.794 1009.7 105.868 1005.24 93.6162L1004.8 92.4326L1004.79 92.4268C1000.2 80.0318 993.067 69.9957 983.388 62.291L982.443 61.5527L982.438 61.5488L982.432 61.5439C972.327 53.5546 959.242 49.5195 943.092 49.5195C926.943 49.5196 913.732 53.5543 903.384 61.5508L903.381 61.5527C893.22 69.3507 885.769 79.6321 881.03 92.4268L881.027 92.4326C876.272 105.035 873.893 118.355 873.893 132.399L873.899 133.737C874.044 147.533 876.422 160.65 881.03 173.093H881.029C885.766 185.643 893.217 195.927 903.384 203.969C913.732 211.965 926.943 216 943.092 216V217L941.57 216.988C925.935 216.741 913.002 212.665 902.772 204.76C892.452 196.6 884.892 186.159 880.092 173.439C875.442 160.885 873.045 147.654 872.899 133.748L872.893 132.399C872.893 118.24 875.292 104.8 880.092 92.0801C884.742 79.5252 891.982 69.3348 901.812 61.5098L902.772 60.7598C913.332 52.5999 926.772 48.5196 943.092 48.5195C959.412 48.5195 972.732 52.5999 983.052 60.7598C993.372 68.6798 1000.93 79.1201 1005.73 92.0801C1010.53 104.8 1012.93 118.24 1012.93 132.399L1012.92 133.748C1012.78 147.654 1010.38 160.885 1005.73 173.439C1000.93 186.159 993.372 196.6 983.052 204.76L982.076 205.513C971.897 213.171 958.902 217 943.092 217V216C959.242 216 972.327 211.965 982.432 203.976C992.603 195.933 1000.06 185.646 1004.79 173.093L1005.23 171.886C1009.7 159.4 1011.93 146.239 1011.93 132.399ZM1068.29 132.399C1068.29 157.013 1063.46 179.364 1053.79 199.434C1044.11 219.518 1029.95 235.619 1011.32 247.719L1011.31 247.724C992.637 259.606 969.88 265.52 943.092 265.52C916.721 265.519 894.145 259.789 875.409 248.279L874.521 247.727L874.514 247.723L874.508 247.719C855.874 235.619 841.71 219.518 832.031 199.434C822.359 179.364 817.532 157.013 817.532 132.399C817.532 114.3 820.187 97.2728 825.504 81.3232L825.506 81.3154C831.066 65.1198 839.17 50.9636 849.821 38.8594C860.483 26.7443 873.565 17.2991 889.052 10.5234C904.799 3.499 922.82 4.0988e-05 943.092 0C963.121 0 980.9 3.49833 996.407 10.5215H996.408C1011.64 17.0846 1024.51 26.1531 1035 37.7305L1036 38.8594C1046.65 50.9624 1054.64 65.1171 1059.96 81.3105C1065.52 97.2637 1068.29 114.296 1068.29 132.399Z" fill="#000000"/>
<path id="Stroke_5" d="M613.088 132.399C613.088 118.24 615.487 104.8 620.287 92.0801C624.937 79.5252 632.178 69.3348 642.008 61.5098L642.968 60.7598C653.528 52.5999 666.967 48.5196 683.287 48.5195C692.407 48.5195 700.328 49.7201 707.048 52.1201C713.768 54.2801 719.408 57.6403 723.968 62.2002C728.768 66.5201 732.607 71.9198 735.487 78.3994C738.187 84.2495 740.15 90.9437 741.373 98.4814L741.607 100H797.048C793.208 69.76 781.687 45.76 762.487 28C743.527 10 717.127 1 683.287 1C663.127 1.00004 645.247 4.47953 629.647 11.4395C614.288 18.1594 601.328 27.5196 590.768 39.5195L589.785 40.6504C579.708 52.399 571.995 66.062 566.647 81.6396C561.367 97.4795 558.728 114.4 558.728 132.399L558.741 134.688C559.032 158.265 563.828 179.703 573.128 199C582.728 218.92 596.767 234.88 615.247 246.88C633.967 258.64 656.647 264.519 683.287 264.52C706.676 264.52 726.46 260.217 742.64 251.612L743.407 251.2C759.45 242.365 772.001 230.151 781.062 214.56L781.928 213.04C791.288 196.72 796.807 177.76 798.487 156.16H743.768C743.048 165.52 741.367 173.92 738.728 181.359L738.477 182.054C735.846 189.196 732.09 195.324 727.207 200.439C722.407 205.719 716.407 209.8 709.207 212.68C702.007 215.56 693.367 217 683.287 217V216C693.276 216 701.784 214.572 708.836 211.751C715.908 208.922 721.778 204.926 726.468 199.768L726.476 199.758L726.484 199.749C731.419 194.579 735.188 188.343 737.785 181.025C740.391 173.682 742.056 165.371 742.771 156.083L742.842 155.16H799.568L799.484 156.237C797.795 177.958 792.24 197.062 782.8 213.526L782.801 213.527C773.588 230.013 760.612 242.867 743.89 252.076L743.886 252.078C727.384 261.057 707.169 265.52 683.287 265.52C656.916 265.519 634.34 259.789 615.604 248.279L614.716 247.727L614.709 247.723L614.703 247.719C596.069 235.619 581.906 219.518 572.227 199.434C562.555 179.364 557.728 157.013 557.728 132.399C557.728 114.3 560.383 97.2728 565.699 81.3232L565.701 81.3154C571.261 65.1198 579.365 50.9636 590.017 38.8594C600.678 26.7443 613.76 17.2991 629.247 10.5234C644.995 3.499 663.015 4.0988e-05 683.287 0C717.3 0 743.971 9.04806 763.166 27.2656C782.263 44.9307 793.81 68.6858 797.853 98.4521L798.039 99.874L798.183 101H740.744L740.618 100.146C739.429 92.0618 737.412 84.9562 734.579 78.8184L734.576 78.8125L734.573 78.8057C731.833 72.6405 728.218 67.4915 723.735 63.3418L723.299 62.9434L723.279 62.9258L723.261 62.9072C718.962 58.6086 713.667 55.3939 707.355 53.2734L706.741 53.0723L706.727 53.0664L706.711 53.0615C700.124 50.7091 692.323 49.5195 683.287 49.5195C667.138 49.5196 653.928 53.5543 643.579 61.5508L643.576 61.5527C633.415 69.3507 625.964 79.6321 621.226 92.4268L621.223 92.4326C616.467 105.035 614.088 118.355 614.088 132.399L614.095 133.737C614.239 147.533 616.617 160.65 621.226 173.093H621.225C625.962 185.643 633.412 195.927 643.579 203.969C653.928 211.965 667.138 216 683.287 216V217L681.766 216.988C666.13 216.741 653.198 212.665 642.968 204.76C632.648 196.6 625.087 186.159 620.287 173.439C615.637 160.885 613.24 147.654 613.095 133.748L613.088 132.399Z" fill="#000000"/>
<path id="Stroke_6" d="M388.347 177.479L388.453 178.359C389.364 185.87 391.921 192.358 396.113 197.851L396.524 198.379C400.975 204 406.718 208.342 413.776 211.401C421.077 214.461 429.22 216 438.221 216V217L437.368 216.995C428.584 216.901 420.587 215.342 413.38 212.319C406.405 209.297 400.669 205.036 396.172 199.536L395.74 199C391.18 193.24 388.42 186.399 387.46 178.479H332.38C333.1 195.039 338.021 209.8 347.141 222.76C356.261 235.72 368.5 245.919 383.86 253.359C398.74 260.567 415.535 264.284 434.244 264.509L436.061 264.52C467.246 264.519 491.57 258.241 509.034 245.683L509.86 245.08C527.107 232.323 535.864 214.565 536.134 191.808L536.141 190.72C536.141 176.08 533.501 164.08 528.221 154.72C522.941 145.12 515.86 137.44 506.98 131.68C498.61 126.1 489.452 121.646 479.505 118.318L478.54 118C468.22 114.64 457.781 111.88 447.221 109.72C438.191 107.62 429.712 105.428 421.784 103.145L418.42 102.16C410.05 99.6026 403.257 96.3689 398.04 92.46L397.54 92.0801C392.425 88.1276 389.788 82.7107 389.628 75.8301L389.62 75.1602C389.62 67.7201 393.111 61.5181 400.094 56.5557L400.78 56.0801C408.22 51.0401 418.9 48.5195 432.82 48.5195L434.138 48.5293C447.644 48.7328 457.885 52.0896 464.86 58.5996C472.3 65.3196 476.5 74.6797 477.46 86.6797H532.181C532.181 70.3598 527.861 55.7197 519.221 42.7598C511.083 30.2047 500.017 20.2399 486.023 12.8652L484.66 12.1602C470.02 4.72017 453.34 1 434.62 1C415.42 1.00002 398.261 4.23983 383.141 10.7197C368.261 16.9597 356.5 25.72 347.86 37C339.46 48.04 335.261 60.7602 335.261 75.1602L335.268 76.5479C335.427 90.8101 338.066 102.708 343.181 112.24C348.461 121.84 355.421 129.64 364.061 135.64C372.941 141.64 382.54 146.44 392.86 150.04C403.42 153.4 413.861 156.28 424.181 158.68C434.5 161.08 443.98 163.48 452.62 165.88C461.5 168.28 468.58 171.4 473.86 175.24C479.14 179.08 481.78 184.24 481.78 190.72C481.78 199.84 477.58 206.56 469.181 210.88C460.781 214.96 450.461 217 438.221 217V216C450.344 216 460.498 213.979 468.723 209.989C472.793 207.896 475.795 205.249 477.782 202.069C479.769 198.891 480.78 195.121 480.78 190.72C480.78 184.755 478.448 180.007 473.735 176.395L473.272 176.049C468.444 172.538 462.029 169.613 453.989 167.3L452.359 166.845L452.353 166.844C444.806 164.748 436.616 162.65 427.78 160.553L423.954 159.653C414.254 157.397 404.449 154.719 394.54 151.618L392.557 150.993L392.544 150.988L392.531 150.984C382.456 147.47 373.059 142.819 364.342 137.032L363.5 136.469L363.49 136.461C354.718 130.369 347.655 122.451 342.304 112.722L342.299 112.713C336.919 102.687 334.261 90.1522 334.261 75.1602C334.261 60.5504 338.527 47.6155 347.064 36.3945L347.066 36.3916C355.825 24.9572 367.731 16.0987 382.746 9.80078L384.184 9.19727C399.093 3.05894 415.911 1.72547e-05 434.62 0C452.886 0 469.26 3.51699 483.72 10.5742L485.113 11.2686C499.896 18.7811 511.551 29.0929 520.053 42.2051C528.808 55.3374 533.181 70.1723 533.181 86.6797V87.6797H476.537L476.464 86.7598C475.549 75.3287 471.658 66.4288 464.857 59.96L464.19 59.3418L464.184 59.3359L464.178 59.3311C457.23 52.8467 446.837 49.5195 432.82 49.5195C418.998 49.5195 408.547 52.0254 401.341 56.9072C394.122 61.7977 390.62 67.8721 390.62 75.1602L390.628 75.8037C390.78 82.4102 393.295 87.5352 398.151 91.2881C403.309 95.2732 410.15 98.5867 418.713 101.203H418.712C427.564 103.835 437.138 106.348 447.434 108.742C458.026 110.909 468.498 113.679 478.85 117.049C489.248 120.434 498.808 125.031 507.524 130.841C516.545 136.692 523.735 144.494 529.091 154.229C534.481 163.783 537.141 175.967 537.141 190.72L537.134 191.821C536.86 214.866 527.971 232.926 510.455 245.884C492.701 259.017 467.861 265.519 436.061 265.52C417.102 265.52 400.037 262.005 384.885 254.953L383.425 254.26C367.924 246.752 355.547 236.444 346.322 223.335C337.376 210.621 332.424 196.197 331.462 180.088L331.381 178.523L331.336 177.479H388.347Z" fill="#000000"/>
<path id="Stroke_7" d="M248.148 6.75977V258.76H300.349V6.75977H248.148ZM301.349 259.76H247.148V5.75977H301.349V259.76Z" fill="#000000"/>
<path id="Stroke_8" d="M0 5.75977H95.3203V6.75977H1V235H53.2002V258.76H95.3203C121.96 258.76 144.52 253.36 163 242.56C181.48 231.52 195.52 216.52 205.12 197.56C214.42 179.192 219.215 158.234 219.506 134.687L219.521 132.399C219.52 108.16 214.72 86.6799 205.12 67.96C195.52 49 181.48 34.1193 163 23.3193C144.52 12.2795 121.96 6.75977 95.3203 6.75977V52.1201C111.64 52.1201 124.96 55.8394 135.28 63.2793C145.6 70.7193 153.16 80.5598 157.96 92.7998C162.76 105.04 165.16 118.24 165.16 132.399C165.16 146.799 162.76 160.119 157.96 172.359C153.16 184.599 145.6 194.56 135.28 202.24C124.96 209.68 111.64 213.399 95.3203 213.399H53.2002V52.1201H95.3203V5.75977H96.3203V5.76367C122.661 5.90035 145.071 11.4462 163.505 22.4561C182.15 33.3524 196.325 48.3749 206.013 67.5078H206.012C215.693 86.3881 220.52 108.027 220.521 132.399L220.506 134.699C220.214 158.378 215.391 179.489 206.013 198.012C196.326 217.143 182.153 232.282 163.513 243.418L163.505 243.423C145.071 254.196 122.661 259.622 96.3203 259.756V259.76H52.2002V236H0V5.75977ZM164.16 132.399C164.16 118.794 161.927 106.098 157.468 94.3037L157.029 93.165C152.297 81.0976 144.854 71.4146 134.695 64.0908C124.904 57.0321 112.305 53.3539 96.8271 53.1309L95.3203 53.1201H54.2002V212.399H95.3203L96.8271 212.389C112.305 212.166 124.904 208.487 134.695 201.429C144.856 193.864 152.298 184.06 157.029 171.995C161.78 159.882 164.16 146.686 164.16 132.399Z" fill="#000000"/>
</g>
</svg>
