<svg preserveAspectRatio="none" width="100%" height="100%" overflow="visible" style="display: block;" viewBox="0 0 1147.29 265.52" fill="none" xmlns="http://www.w3.org/2000/svg">
<g id="GETUP (Stroke)">
<path id="Stroke" d="M1090.92 90.3662C1090.78 80.1879 1088.53 72.6213 1084.32 67.5166L1084.29 67.4795C1080.26 62.1176 1074.38 58.4482 1066.55 56.5166L1065.78 56.335L1065.77 56.3311L1065.75 56.3262C1058.2 54.3278 1049.16 53.2587 1038.62 53.1328L1036.49 53.1201H1002.57V129.6H1036.49C1047.95 129.6 1057.71 128.644 1065.77 126.748C1074 124.629 1080.15 120.889 1084.3 115.583L1084.3 115.579C1088.67 110.062 1090.93 102.036 1090.93 91.3594L1090.92 90.3662ZM1091.92 92.3652C1091.78 102.675 1089.5 110.62 1085.09 116.2C1080.77 121.72 1074.41 125.56 1066.01 127.72C1057.85 129.64 1048.01 130.6 1036.49 130.6H1001.57V175.96H1036.49C1057.64 175.96 1076.21 173.37 1092.19 168.189L1093.73 167.68C1110.29 162.16 1123.13 153.16 1132.25 140.68C1141.61 128.2 1146.29 111.759 1146.29 91.3594C1146.29 70.7196 1141.61 54.28 1132.25 42.04C1123.13 29.5601 1110.29 20.56 1093.73 15.04C1077.41 9.52004 1058.33 6.75977 1036.49 6.75977V52.1201C1048.01 52.1201 1057.85 53.1994 1066.01 55.3594C1074.41 57.2794 1080.77 61.1199 1085.09 66.8799C1089.65 72.3998 1091.93 80.5597 1091.93 91.3594L1091.92 92.3652ZM1147.29 91.3594C1147.29 111.909 1142.57 128.58 1133.05 141.279C1123.79 153.943 1110.77 163.053 1094.04 168.628C1077.85 174.105 1058.99 176.872 1037.49 176.955V176.96H1002.57V259.76H948.366V29.5195H1000.57V5.75977H1036.49V6.75977H1001.57V52.1201H1036.49V5.75977H1037.49V5.76367C1058.99 5.84677 1077.85 8.61383 1094.04 14.0908C1110.76 19.6651 1123.78 28.7727 1133.04 41.4326C1142.57 53.8978 1147.29 70.5742 1147.29 91.3594ZM949.366 258.76H1001.57V30.5195H949.366V258.76Z" fill="#000000"/>
<path id="Stroke_2" d="M757.54 150.76V6.75977H705.34V150.76C705.34 174.52 708.82 194.92 715.78 211.96C722.74 228.76 733.78 241.72 748.9 250.84C763.78 259.675 783.277 264.231 807.392 264.507L809.74 264.52C834.7 264.519 854.74 259.96 869.86 250.84C884.98 241.862 896.03 229.164 903.011 212.744L903.34 211.96C910.3 194.92 913.78 174.52 913.78 150.76V6.75977H861.58V150.76L861.575 152.06C861.481 165.428 859.923 176.995 856.9 186.76C854.02 196.6 848.74 204.159 841.06 209.439C833.62 214.719 823.18 217.359 809.74 217.359V216.359C823.066 216.359 833.273 213.739 840.481 208.624L840.487 208.62L840.493 208.615C847.964 203.479 853.118 196.121 855.94 186.479L855.942 186.472L855.944 186.464C859.027 176.505 860.58 164.609 860.58 150.76V5.75977H914.78V151.76H914.775C914.679 175.188 911.188 195.389 904.266 212.338L904.264 212.343C897.223 229.336 885.921 242.463 870.375 251.695L870.376 251.696C855.049 260.941 834.81 265.519 809.74 265.52C784.826 265.52 764.596 261.084 749.123 252.13L748.39 251.699L748.384 251.696C733.314 242.607 722.246 229.743 715.189 213.136L714.856 212.343L714.206 210.717C707.713 194.106 704.438 174.445 704.345 151.76H704.34V5.75977H758.54V150.76L758.544 152.053C758.631 165.345 760.06 176.808 762.813 186.458C765.874 196.11 771.15 203.475 778.626 208.615C786.081 213.74 796.417 216.359 809.74 216.359V217.359L808.488 217.352C795.643 217.192 785.5 214.554 778.06 209.439C770.38 204.159 764.98 196.6 761.86 186.76C758.98 176.68 757.54 164.68 757.54 150.76Z" fill="#000000"/>
<path id="Stroke_3" d="M472.026 6.75977V52.1201H550.506V258.76H602.706V52.1201H681.187V6.75977H472.026ZM682.187 53.1201H603.706V259.76H549.506V53.1201H471.026V5.75977H682.187V53.1201Z" fill="#000000"/>
<path id="Stroke_4" d="M325.16 109.359V154.72H433.88V109.359H325.16ZM434.88 155.72H326.16V212.399H450.721V259.76H324.16V236H271.96V5.75977H325.16V6.75977H272.96V235H325.16V258.76H449.721V213.399H325.16V52.1201H448.28V6.75977H325.16V5.75977H449.28V53.1201H326.16V108.359H434.88V155.72Z" fill="#000000"/>
<path id="Stroke_5" d="M124.56 118.08H241.325L241.396 119.003L241.606 121.901C243.611 151.72 240.536 177.31 232.333 198.639L232.332 198.643C223.862 220.422 210.532 237.039 192.335 248.443L192.336 248.444C174.379 259.849 152.101 265.52 125.56 265.52C99.1889 265.519 76.6127 259.789 57.877 248.279L56.9883 247.727L56.9814 247.723L56.9756 247.719C38.3415 235.619 24.1782 219.518 14.499 199.434C4.82713 179.364 0 157.013 0 132.399C3.39933e-05 114.3 2.65517 97.2728 7.97168 81.3232L7.97363 81.3154C13.5333 65.1198 21.6374 50.9636 32.2891 38.8594C42.9503 26.7443 56.0323 17.2991 71.5195 10.5234C87.267 3.499 105.287 4.0988e-05 125.56 0C159.572 0 186.244 9.04806 205.438 27.2656C224.536 44.9307 236.083 68.6858 240.125 98.4521L240.312 99.874L240.455 101H183.017L182.891 100.146C181.702 92.0618 179.684 84.9562 176.852 78.8184L176.849 78.8125L176.846 78.8057C174.106 72.6405 170.491 67.4915 166.008 63.3418L165.571 62.9434L165.552 62.9258L165.533 62.9072C161.235 58.6086 155.94 55.3939 149.628 53.2734L149.014 53.0723L148.999 53.0664L148.983 53.0615C142.397 50.7091 134.595 49.5195 125.56 49.5195C109.411 49.5196 96.2001 53.5543 85.8516 61.5508L85.8486 61.5527C75.6877 69.3507 68.2369 79.6321 63.498 92.4268L63.4951 92.4326C58.7395 105.035 56.3604 118.355 56.3604 132.399L56.3672 133.737C56.5114 147.533 58.8896 160.65 63.498 173.093H63.4971C68.234 185.643 75.6847 195.927 85.8516 203.969C96.2001 211.965 109.411 216 125.56 216V217L124.038 216.988C108.403 216.741 95.4701 212.665 85.2402 204.76C74.9202 196.6 67.3596 186.159 62.5596 173.439C57.9097 160.885 55.5125 147.654 55.3672 133.748L55.3604 132.399C55.3604 118.24 57.7597 104.8 62.5596 92.0801C67.3596 79.1201 74.9202 68.6798 85.2402 60.7598C95.8001 52.5999 109.24 48.5196 125.56 48.5195C134.68 48.5195 142.6 49.7201 149.32 52.1201C156.04 54.2801 161.68 57.6403 166.24 62.2002C171.04 66.5201 174.88 71.9198 177.76 78.3994C180.46 84.2495 182.422 90.9437 183.646 98.4814L183.88 100H239.32C235.48 69.76 223.96 45.76 204.76 28C185.8 10 159.4 1 125.56 1C105.4 1.00004 87.5198 4.47953 71.9199 11.4395C56.56 18.1594 43.6 27.5196 33.04 39.5195L32.0576 40.6504C21.9801 52.399 14.2675 66.062 8.91992 81.6396C3.63996 97.4795 1.00003 114.4 1 132.399L1.01367 134.688C1.30435 158.265 6.10044 179.703 15.4004 199C25.0003 218.92 39.0398 234.88 57.5195 246.88C76.2395 258.64 98.9197 264.519 125.56 264.52C151.96 264.52 174.04 258.88 191.8 247.6C209.519 236.496 222.587 220.392 231.003 199.288L231.4 198.279C239.8 176.439 242.8 150.04 240.4 119.08H125.56V164.439H186.717C186.453 169.8 185.628 174.841 184.24 179.56C182.08 187.48 178.36 194.2 173.08 199.72C168.04 205.24 161.44 209.56 153.28 212.68C145.36 215.56 136.12 217 125.56 217V216C136.028 216 145.146 214.572 152.932 211.742C160.966 208.669 167.425 204.431 172.342 199.046L172.357 199.028C177.514 193.638 181.156 187.068 183.275 179.297L183.277 179.287L183.28 179.277C184.553 174.949 185.347 170.337 185.659 165.439H124.56V118.08Z" fill="#000000"/>
</g>
</svg>
