<svg preserveAspectRatio="none" width="100%" height="100%" overflow="visible" style="display: block;" viewBox="0 0 1566.35 265.52" fill="none" xmlns="http://www.w3.org/2000/svg">
<g id="GOSLEEP (Stroke)">
<path id="Stroke" d="M1509.98 90.3662C1509.85 80.1879 1507.59 72.6213 1503.38 67.5166L1503.35 67.4795C1499.33 62.1176 1493.44 58.4482 1485.61 56.5166L1484.85 56.335L1484.83 56.3311L1484.81 56.3262C1477.26 54.3278 1468.22 53.2587 1457.68 53.1328L1455.55 53.1201H1421.63V129.6H1455.55C1467.01 129.6 1476.77 128.644 1484.83 126.748C1493.06 124.629 1499.21 120.889 1503.36 115.583L1503.37 115.579C1507.73 110.062 1509.99 102.036 1509.99 91.3594L1509.98 90.3662ZM1510.98 92.3652C1510.84 102.675 1508.57 110.62 1504.15 116.2C1499.83 121.72 1493.47 125.56 1485.07 127.72C1476.91 129.64 1467.07 130.6 1455.55 130.6H1420.63V175.96H1455.55C1476.71 175.96 1495.27 173.37 1511.25 168.189L1512.79 167.68C1529.35 162.16 1542.19 153.16 1551.31 140.68C1560.67 128.2 1565.35 111.759 1565.35 91.3594C1565.35 70.7196 1560.67 54.28 1551.31 42.04C1542.19 29.5601 1529.35 20.56 1512.79 15.04C1496.47 9.52004 1477.39 6.75977 1455.55 6.75977V52.1201C1467.07 52.1201 1476.91 53.1994 1485.07 55.3594C1493.47 57.2794 1499.83 61.1199 1504.15 66.8799C1508.71 72.3998 1510.99 80.5597 1510.99 91.3594L1510.98 92.3652ZM1566.35 91.3594C1566.35 111.909 1561.63 128.58 1552.11 141.279C1542.85 153.943 1529.83 163.053 1513.1 168.628C1496.91 174.105 1478.05 176.872 1456.55 176.955V176.96H1421.63V259.76H1367.43V29.5195H1419.63V5.75977H1455.55V6.75977H1420.63V52.1201H1455.55V5.75977H1456.55V5.76367C1478.05 5.84677 1496.91 8.61383 1513.1 14.0908C1529.83 19.6651 1542.85 28.7727 1552.1 41.4326C1561.64 53.8978 1566.35 70.5742 1566.35 91.3594ZM1368.43 258.76H1420.63V30.5195H1368.43V258.76Z" fill="#000000"/>
<path id="Stroke_2" d="M1210.04 109.359V154.72H1318.76V109.359H1210.04ZM1319.76 155.72H1211.04V212.399H1335.6V259.76H1209.04V236H1156.84V5.75977H1210.04V6.75977H1157.84V235H1210.04V258.76H1334.6V213.399H1210.04V52.1201H1333.16V6.75977H1210.04V5.75977H1334.16V53.1201H1211.04V108.359H1319.76V155.72Z" fill="#000000"/>
<path id="Stroke_3" d="M999.457 109.359V154.72H1108.18V109.359H999.457ZM1109.18 155.72H1000.46V212.399H1125.02V259.76H998.457V236H946.257V5.75977H999.457V6.75977H947.257V235H999.457V258.76H1124.02V213.399H999.457V52.1201H1122.58V6.75977H999.457V5.75977H1123.58V53.1201H1000.46V108.359H1109.18V155.72Z" fill="#000000"/>
<path id="Stroke_4" d="M821.918 213.399V258.76H924.878V213.399H821.918ZM769.718 6.75977V258.76H821.918V6.75977H769.718ZM822.918 212.399H925.878V259.76H768.718V5.75977H822.918V212.399Z" fill="#000000"/>
<path id="Stroke_5" d="M589.994 177.479L590.101 178.359C591.011 185.87 593.569 192.358 597.761 197.851L598.172 198.379C602.622 204 608.365 208.342 615.424 211.401C622.724 214.461 630.868 216 639.868 216V217L639.016 216.995C630.231 216.901 622.235 215.342 615.027 212.319C608.053 209.297 602.317 205.036 597.819 199.536L597.388 199C592.828 193.24 590.067 186.399 589.107 178.479H534.027C534.747 195.039 539.668 209.8 548.788 222.76C557.908 235.72 570.148 245.919 585.508 253.359C600.388 260.567 617.182 264.284 635.892 264.509L637.708 264.52C668.893 264.519 693.218 258.241 710.682 245.683L711.508 245.08C728.754 232.323 737.512 214.565 737.781 191.808L737.788 190.72C737.788 176.08 735.148 164.08 729.868 154.72C724.588 145.12 717.508 137.44 708.628 131.68C700.258 126.1 691.099 121.646 681.152 118.318L680.188 118C669.868 114.64 659.428 111.88 648.868 109.72C639.838 107.62 631.359 105.428 623.432 103.145L620.067 102.16C611.697 99.6026 604.904 96.3689 599.688 92.46L599.188 92.0801C594.072 88.1276 591.435 82.7107 591.275 75.8301L591.268 75.1602C591.268 67.7201 594.759 61.5181 601.741 56.5557L602.428 56.0801C609.868 51.0401 620.548 48.5195 634.468 48.5195L635.785 48.5293C649.292 48.7328 659.533 52.0896 666.508 58.5996C673.948 65.3196 678.147 74.6797 679.107 86.6797H733.828C733.828 70.3598 729.508 55.7197 720.868 42.7598C712.731 30.2047 701.665 20.2399 687.671 12.8652L686.308 12.1602C671.668 4.72017 654.988 1 636.268 1C617.068 1.00002 599.908 4.23983 584.788 10.7197L583.402 11.3125C569.176 17.5101 557.878 26.0724 549.508 37C541.108 48.04 536.908 60.7602 536.908 75.1602L536.915 76.5479C537.075 90.8101 539.713 102.708 544.828 112.24C550.108 121.84 557.068 129.64 565.708 135.64C574.588 141.64 584.188 146.44 594.508 150.04C605.068 153.4 615.508 156.28 625.828 158.68C636.148 161.08 645.628 163.48 654.268 165.88C663.148 168.28 670.228 171.4 675.508 175.24C680.788 179.08 683.428 184.24 683.428 190.72C683.428 199.84 679.228 206.56 670.828 210.88C662.428 214.96 652.108 217 639.868 217V216C651.992 216 662.145 213.979 670.37 209.989C674.441 207.896 677.442 205.249 679.43 202.069C681.416 198.891 682.428 195.121 682.428 190.72C682.428 184.755 680.096 180.007 675.383 176.395L674.92 176.049C670.092 172.538 663.676 169.613 655.637 167.3L654.007 166.845L654 166.844C646.454 164.748 638.263 162.65 629.428 160.553L625.602 159.653C615.901 157.397 606.096 154.719 596.188 151.618L594.204 150.993L594.191 150.988L594.179 150.984C584.104 147.47 574.706 142.819 565.989 137.032L565.147 136.469L565.138 136.461C556.366 130.369 549.302 122.451 543.951 112.722L543.946 112.713C538.567 102.687 535.908 90.1522 535.908 75.1602C535.908 60.5504 540.174 47.6155 548.712 36.3945L548.714 36.3916C557.472 24.9572 569.378 16.0987 584.394 9.80078L585.831 9.19727C600.741 3.05894 617.558 1.72547e-05 636.268 0C654.534 0 670.907 3.51699 685.367 10.5742L686.761 11.2686C701.543 18.7811 713.199 29.0929 721.7 42.2051C730.455 55.3374 734.828 70.1723 734.828 86.6797V87.6797H678.185L678.111 86.7598C677.197 75.3287 673.306 66.4288 666.505 59.96L665.838 59.3418L665.831 59.3359L665.825 59.3311C658.878 52.8467 648.485 49.5195 634.468 49.5195C620.646 49.5195 610.195 52.0254 602.988 56.9072C595.769 61.7977 592.268 67.8721 592.268 75.1602L592.275 75.8037C592.428 82.4102 594.942 87.5352 599.799 91.2881C604.956 95.2732 611.798 98.5867 620.36 101.203H620.359C629.212 103.835 638.786 106.348 649.081 108.742C659.674 110.909 670.146 113.679 680.497 117.049C690.896 120.434 700.455 125.031 709.172 130.841C718.192 136.692 725.382 144.494 730.738 154.229C736.128 163.783 738.788 175.967 738.788 190.72L738.781 191.821C738.508 214.866 729.619 232.926 712.103 245.884C694.348 259.017 669.509 265.519 637.708 265.52C618.75 265.52 601.684 262.005 586.532 254.953L585.072 254.26C569.572 246.752 557.195 236.444 547.97 223.335C539.023 210.621 534.072 196.197 533.109 180.088L533.028 178.523L532.983 177.479H589.994Z" fill="#000000"/>
<path id="Stroke_6" d="M511.322 132.399C511.322 114.4 508.562 97.4795 503.042 81.6396C497.762 65.5597 489.842 51.5195 479.282 39.5195C468.722 27.5196 455.642 18.1594 440.042 11.4395C424.682 4.4796 407.042 1 387.122 1C366.962 1.00004 349.082 4.47953 333.482 11.4395C318.123 18.1594 305.163 27.5196 294.603 39.5195L293.62 40.6504C283.543 52.399 275.83 66.062 270.482 81.6396C265.202 97.4795 262.563 114.4 262.562 132.399L262.576 134.688C262.867 158.265 267.663 179.703 276.963 199C286.563 218.92 300.602 234.88 319.082 246.88C337.802 258.64 360.482 264.519 387.122 264.52C413.346 264.52 435.617 258.822 453.934 247.427L454.803 246.88C472.994 235.067 486.882 219.417 496.469 199.931L496.923 199C506.523 179.08 511.322 156.879 511.322 132.399ZM455.963 132.399C455.963 118.794 453.729 105.868 449.266 93.6162L448.827 92.4326L448.824 92.4268C444.233 80.0318 437.098 69.9957 427.418 62.291L426.474 61.5527L426.468 61.5488L426.462 61.5439C416.358 53.5546 403.272 49.5195 387.122 49.5195C370.973 49.5196 357.763 53.5543 347.414 61.5508L347.411 61.5527C337.25 69.3507 329.799 79.6321 325.061 92.4268L325.058 92.4326C320.302 105.035 317.923 118.355 317.923 132.399L317.93 133.737C318.074 147.533 320.452 160.65 325.061 173.093H325.06C329.797 185.643 337.247 195.927 347.414 203.969C357.763 211.965 370.973 216 387.122 216V217L385.601 216.988C369.965 216.741 357.033 212.665 346.803 204.76C336.483 196.6 328.922 186.159 324.122 173.439C319.472 160.885 317.075 147.654 316.93 133.748L316.923 132.399C316.923 118.24 319.322 104.8 324.122 92.0801C328.772 79.5252 336.012 69.3348 345.843 61.5098L346.803 60.7598C357.363 52.5999 370.802 48.5196 387.122 48.5195C403.442 48.5195 416.762 52.5999 427.082 60.7598C437.402 68.6798 444.963 79.1201 449.763 92.0801C454.563 104.8 456.963 118.24 456.963 132.399L456.955 133.748C456.81 147.654 454.413 160.885 449.763 173.439C444.963 186.159 437.402 196.6 427.082 204.76L426.106 205.513C415.927 213.171 402.932 217 387.122 217V216C403.272 216 416.358 211.965 426.462 203.976C436.633 195.933 444.086 185.646 448.824 173.093L449.264 171.886C453.728 159.4 455.963 146.239 455.963 132.399ZM512.322 132.399C512.322 157.013 507.495 179.364 497.823 199.434C488.144 219.518 473.981 235.619 455.347 247.719L455.339 247.724C436.667 259.606 413.911 265.52 387.122 265.52C360.751 265.519 338.175 259.789 319.439 248.279L318.551 247.727L318.544 247.723L318.538 247.719C299.904 235.619 285.741 219.518 276.062 199.434C266.39 179.364 261.562 157.013 261.562 132.399C261.563 114.3 264.218 97.2728 269.534 81.3232L269.536 81.3154C275.096 65.1198 283.2 50.9636 293.852 38.8594C304.513 26.7443 317.595 17.2991 333.082 10.5234C348.829 3.499 366.85 4.0988e-05 387.122 0C407.151 0 424.931 3.49833 440.438 10.5215H440.438C455.674 17.0846 468.542 26.1531 479.026 37.7305L480.033 38.8594C490.684 50.9624 498.667 65.1171 503.986 81.3105C509.546 97.2637 512.322 114.296 512.322 132.399Z" fill="#000000"/>
<path id="Stroke_7" d="M124.56 118.08H241.325L241.396 119.003L241.606 121.901C243.611 151.72 240.536 177.31 232.333 198.639L232.332 198.643C223.862 220.422 210.532 237.039 192.335 248.443L192.336 248.444C174.379 259.849 152.101 265.52 125.56 265.52C99.1889 265.519 76.6127 259.789 57.877 248.279L56.9883 247.727L56.9814 247.723L56.9756 247.719C38.3415 235.619 24.1782 219.518 14.499 199.434C4.82713 179.364 0 157.013 0 132.399C3.39933e-05 114.3 2.65517 97.2728 7.97168 81.3232L7.97363 81.3154C13.5333 65.1198 21.6374 50.9636 32.2891 38.8594C42.9503 26.7443 56.0323 17.2991 71.5195 10.5234C87.267 3.499 105.287 4.0988e-05 125.56 0C159.572 0 186.244 9.04806 205.438 27.2656C224.536 44.9307 236.083 68.6858 240.125 98.4521L240.312 99.874L240.455 101H183.017L182.891 100.146C181.702 92.0618 179.684 84.9562 176.852 78.8184L176.849 78.8125L176.846 78.8057C174.106 72.6405 170.491 67.4915 166.008 63.3418L165.571 62.9434L165.552 62.9258L165.533 62.9072C161.235 58.6086 155.94 55.3939 149.628 53.2734L149.014 53.0723L148.999 53.0664L148.983 53.0615C142.397 50.7091 134.595 49.5195 125.56 49.5195C109.411 49.5196 96.2001 53.5543 85.8516 61.5508L85.8486 61.5527C75.6877 69.3507 68.2369 79.6321 63.498 92.4268L63.4951 92.4326C58.7395 105.035 56.3604 118.355 56.3604 132.399L56.3672 133.737C56.5114 147.533 58.8896 160.65 63.498 173.093H63.4971C68.234 185.643 75.6847 195.927 85.8516 203.969C96.2001 211.965 109.411 216 125.56 216V217L124.038 216.988C108.403 216.741 95.4701 212.665 85.2402 204.76C74.9202 196.6 67.3596 186.159 62.5596 173.439C57.9097 160.885 55.5125 147.654 55.3672 133.748L55.3604 132.399C55.3604 118.24 57.7597 104.8 62.5596 92.0801C67.2095 79.5252 74.45 69.3348 84.2803 61.5098L85.2402 60.7598C95.8001 52.5999 109.24 48.5196 125.56 48.5195C134.68 48.5195 142.6 49.7201 149.32 52.1201C156.04 54.2801 161.68 57.6403 166.24 62.2002C171.04 66.5201 174.88 71.9198 177.76 78.3994C180.46 84.2495 182.422 90.9437 183.646 98.4814L183.88 100H239.32C235.48 69.76 223.96 45.76 204.76 28C185.8 10 159.4 1 125.56 1C105.4 1.00004 87.5198 4.47953 71.9199 11.4395C56.56 18.1594 43.6 27.5196 33.04 39.5195L32.0576 40.6504C21.9801 52.399 14.2675 66.062 8.91992 81.6396C3.63996 97.4795 1.00003 114.4 1 132.399L1.01367 134.688C1.30435 158.265 6.10044 179.703 15.4004 199C25.0003 218.92 39.0398 234.88 57.5195 246.88C76.2395 258.64 98.9197 264.519 125.56 264.52C151.96 264.52 174.04 258.88 191.8 247.6C209.519 236.496 222.587 220.392 231.003 199.288L231.4 198.279C239.8 176.439 242.8 150.04 240.4 119.08H125.56V164.439H186.717C186.453 169.8 185.628 174.841 184.24 179.56C182.08 187.48 178.36 194.2 173.08 199.72C168.04 205.24 161.44 209.56 153.28 212.68C145.36 215.56 136.12 217 125.56 217V216C136.028 216 145.146 214.572 152.932 211.742C160.966 208.669 167.425 204.431 172.342 199.046L172.357 199.028C177.514 193.638 181.156 187.068 183.275 179.297L183.277 179.287L183.28 179.277C184.553 174.949 185.347 170.337 185.659 165.439H124.56V118.08Z" fill="#000000"/>
</g>
</svg>
