<svg preserveAspectRatio="none" width="100%" height="100%" overflow="visible" style="display: block;" viewBox="0 0 1364.93 254" fill="none" xmlns="http://www.w3.org/2000/svg">
<g id="ITERATE (Stroke)">
<path id="Stroke" d="M1239.37 103.6V148.96H1348.09V103.6H1239.37ZM1349.09 149.96H1240.37V206.64H1364.93V254H1238.37V230.24H1186.17V0H1239.37V1H1187.17V229.24H1239.37V253H1363.93V207.64H1239.37V46.3604H1362.49V1H1239.37V0H1363.49V47.3604H1240.37V102.6H1349.09V149.96Z" fill="#000000"/>
<path id="Stroke_2" d="M952.762 1V46.3604H1031.24V253H1083.44V46.3604H1161.92V1H952.762ZM1162.92 47.3604H1084.44V254H1030.24V47.3604H951.762V0H1162.92V47.3604Z" fill="#000000"/>
<path id="Stroke_3" d="M891.624 0L968.187 254H912.808L897.611 201.08H810.35L795.154 254H739.775L816.338 0H891.624ZM817.081 1L741.121 253H794.401L809.597 200.08H898.365L913.561 253H966.841L890.881 1H817.081ZM885.34 154.72H822.622L853.98 45.5068L885.34 154.72ZM823.949 153.72H884.013L853.98 49.1309L823.949 153.72Z" fill="#000000"/>
<path id="Stroke_4" d="M664.976 82.9209C664.844 74.1943 662.744 67.4627 658.787 62.6123L658.386 62.1338L658.369 62.1152L658.354 62.0967C654.33 56.9539 648.434 53.2822 640.579 51.1318L639.813 50.9287L639.78 50.9189C632.24 48.7013 623.209 47.5138 612.67 47.374L610.542 47.3604H576.622V120.24H610.542L612.671 120.228C623.208 120.102 632.242 119.033 639.787 117.038C648.046 114.678 654.209 110.93 658.368 105.847L658.371 105.843C662.739 100.555 664.982 93.2467 664.982 83.7998L664.976 82.9209ZM665.976 84.6943C665.837 93.8707 663.56 101.133 659.143 106.48C654.823 111.76 648.462 115.6 640.062 118C631.902 120.16 622.062 121.24 610.542 121.24H575.622V166.6H610.542C615.822 166.6 620.941 166.443 625.898 166.135L662.742 253H722.143L675.022 156.059C688.131 150.714 698.558 142.949 706.302 132.76C715.662 120.52 720.342 104.2 720.342 83.7998C720.342 63.1599 715.662 46.8398 706.302 34.8398C697.182 22.84 684.342 14.1999 667.782 8.91992C651.462 3.63992 632.382 1 610.542 1V46.3604C622.062 46.3604 631.902 47.56 640.062 49.96C648.462 52.12 654.823 55.9605 659.143 61.4805C663.702 66.7604 665.982 74.2002 665.982 83.7998L665.976 84.6943ZM721.342 83.7998C721.342 104.347 716.627 120.901 707.098 133.364C699.428 143.456 689.178 151.186 676.385 156.574L723.74 254H662.08L625.254 167.176C620.81 167.439 616.239 167.578 611.542 167.596V167.6H576.622V254H522.422V23.7598H574.622V0H610.542V1H575.622V46.3604H610.542V0H611.542V0.00390625C633.041 0.0833891 651.894 2.72935 668.085 7.9668C684.805 13.2978 697.828 22.0422 707.09 34.2246C716.629 46.4536 721.342 63.0158 721.342 83.7998ZM523.422 253H575.622V24.7598H523.422V253Z" fill="#000000"/>
<path id="Stroke_5" d="M365.036 103.6V148.96H473.756V103.6H365.036ZM474.756 149.96H366.036V206.64H490.597V254H364.036V230.24H311.836V0H365.036V1H312.836V229.24H365.036V253H489.597V207.64H365.036V46.3604H488.156V1H365.036V0H489.156V47.3604H366.036V102.6H474.756V149.96Z" fill="#000000"/>
<path id="Stroke_6" d="M78.4258 1V46.3604H156.905V253H209.105V46.3604H287.586V1H78.4258ZM288.586 47.3604H210.105V254H155.905V47.3604H77.4258V0H288.586V47.3604Z" fill="#000000"/>
<path id="Stroke_7" d="M1 1V253H53.2002V1H1ZM54.2002 254H0V0H54.2002V254Z" fill="#000000"/>
</g>
</svg>
