<svg preserveAspectRatio="none" width="100%" height="100%" overflow="visible" style="display: block;" viewBox="0 0 1368.75 265.52" fill="none" xmlns="http://www.w3.org/2000/svg">
<g id="LAUNCH (Stroke)">
<path id="Stroke" d="M1215.11 6.75977H1162.91V258.76H1215.11V154.72H1315.55V258.76H1367.75V6.75977H1315.55V109.359H1215.11V6.75977ZM1368.75 259.76H1314.55V155.72H1216.11V259.76H1161.91V5.75977H1216.11V108.359H1314.55V5.75977H1368.75V259.76Z" fill="#000000"/>
<path id="Stroke_2" d="M948.83 132.399C948.83 118.24 951.229 104.8 956.029 92.0801C960.829 79.1201 968.39 68.6798 978.71 60.7598C989.27 52.5999 1002.71 48.5196 1019.03 48.5195C1028.15 48.5195 1036.07 49.7201 1042.79 52.1201C1049.51 54.2801 1055.15 57.6403 1059.71 62.2002C1064.51 66.5201 1068.35 71.9198 1071.23 78.3994C1073.93 84.2495 1075.89 90.9437 1077.12 98.4814L1077.35 100H1132.79C1128.95 69.76 1117.43 45.76 1098.23 28C1079.27 10 1052.87 1 1019.03 1C998.869 1.00004 980.99 4.47953 965.39 11.4395C950.03 18.1594 937.07 27.5196 926.51 39.5195L925.527 40.6504C915.45 52.399 907.737 66.062 902.39 81.6396C897.11 97.4795 894.47 114.4 894.47 132.399L894.483 134.688C894.774 158.265 899.57 179.703 908.87 199C918.47 218.92 932.509 234.88 950.989 246.88C969.709 258.64 992.389 264.519 1019.03 264.52C1042.79 264.52 1062.83 260.08 1079.15 251.2C1095.71 242.08 1108.55 229.36 1117.67 213.04C1127.03 196.72 1132.55 177.76 1134.23 156.16H1079.51C1078.79 165.52 1077.11 173.92 1074.47 181.359L1074.22 182.054C1071.59 189.196 1067.83 195.324 1062.95 200.439C1058.15 205.719 1052.15 209.8 1044.95 212.68C1037.75 215.56 1029.11 217 1019.03 217V216C1029.02 216 1037.53 214.572 1044.58 211.751C1051.65 208.922 1057.52 204.926 1062.21 199.768L1062.22 199.758L1062.23 199.749C1067.16 194.579 1070.93 188.343 1073.53 181.025C1076.13 173.682 1077.8 165.371 1078.51 156.083L1078.58 155.16H1135.31L1135.23 156.237C1133.54 177.958 1127.98 197.062 1118.54 213.526L1118.54 213.527C1109.33 230.013 1096.35 242.867 1079.63 252.076L1079.63 252.078C1063.13 261.057 1042.91 265.52 1019.03 265.52C992.659 265.519 970.082 259.789 951.347 248.279L950.458 247.727L950.451 247.723L950.445 247.719C931.811 235.619 917.648 219.518 907.969 199.434C898.297 179.364 893.47 157.013 893.47 132.399C893.47 114.3 896.125 97.2728 901.441 81.3232L901.443 81.3154C907.003 65.1198 915.107 50.9636 925.759 38.8594C936.42 26.7443 949.502 17.2991 964.989 10.5234C980.737 3.499 998.757 4.0988e-05 1019.03 0C1053.04 0 1079.71 9.04806 1098.91 27.2656C1118.01 44.9307 1129.55 68.6858 1133.59 98.4521L1133.78 99.874L1133.92 101H1076.49L1076.36 100.146C1075.17 92.0618 1073.15 84.9562 1070.32 78.8184L1070.32 78.8125L1070.32 78.8057C1067.58 72.6405 1063.96 67.4915 1059.48 63.3418L1059.04 62.9434L1059.02 62.9258L1059 62.9072C1054.7 58.6086 1049.41 55.3939 1043.1 53.2734L1042.48 53.0723L1042.47 53.0664L1042.45 53.0615C1035.87 50.7091 1028.06 49.5195 1019.03 49.5195C1002.88 49.5196 989.67 53.5543 979.321 61.5508L979.318 61.5527C969.157 69.3507 961.707 79.6321 956.968 92.4268L956.965 92.4326C952.209 105.035 949.83 118.355 949.83 132.399L949.837 133.737C949.981 147.533 952.359 160.65 956.968 173.093H956.967C961.704 185.643 969.154 195.927 979.321 203.969C989.67 211.965 1002.88 216 1019.03 216V217L1017.51 216.988C1001.87 216.741 988.94 212.665 978.71 204.76C968.39 196.6 960.829 186.159 956.029 173.439C951.379 160.885 948.982 147.654 948.837 133.748L948.83 132.399Z" fill="#000000"/>
<path id="Stroke_3" d="M815.157 6.75977V192.815L729.837 6.75977H652.797V258.76H703.197V72.7031L788.518 258.76H865.558V6.75977H815.157ZM866.558 259.76H787.876L704.197 77.2842V259.76H651.797V5.75977H730.479L814.157 188.236V5.75977H866.558V259.76Z" fill="#000000"/>
<path id="Stroke_4" d="M460.971 150.76V6.75977H408.771V150.76C408.771 174.52 412.251 194.92 419.211 211.96C426.171 228.76 437.211 241.72 452.331 250.84C467.211 259.675 486.708 264.231 510.822 264.507L513.171 264.52C538.131 264.519 558.171 259.96 573.291 250.84C588.651 241.72 599.811 228.76 606.771 211.96C613.731 194.92 617.211 174.52 617.211 150.76V6.75977H565.011V150.76L565.006 152.06C564.911 165.428 563.353 176.995 560.331 186.76C557.451 196.6 552.17 204.159 544.49 209.439C537.05 214.719 526.611 217.359 513.171 217.359V216.359C526.497 216.359 536.704 213.739 543.912 208.624L543.918 208.62L543.924 208.615C551.395 203.479 556.549 196.121 559.371 186.479L559.373 186.472L559.375 186.464C562.458 176.505 564.011 164.609 564.011 150.76V5.75977H618.211V151.76H618.206C618.11 175.188 614.619 195.389 607.696 212.338L607.694 212.343C600.654 229.336 589.352 242.463 573.806 251.695L573.807 251.696C558.479 260.941 538.241 265.519 513.171 265.52C488.257 265.52 468.027 261.084 452.554 252.13L451.82 251.699L451.814 251.696C436.745 242.607 425.677 229.743 418.62 213.136L418.287 212.343L417.637 210.717C411.144 194.106 407.869 174.445 407.775 151.76H407.771V5.75977H461.971V150.76L461.975 152.053C462.061 165.345 463.49 176.808 466.244 186.458C469.304 196.11 474.58 203.475 482.057 208.615C489.511 213.74 499.848 216.359 513.171 216.359V217.359L511.919 217.352C499.073 217.192 488.93 214.554 481.49 209.439C473.81 204.159 468.411 196.6 465.291 186.76C462.411 176.68 460.971 164.68 460.971 150.76Z" fill="#000000"/>
<path id="Stroke_5" d="M321.038 5.75977L397.601 259.76H342.222L327.025 206.84H239.764L224.568 259.76H169.189L245.752 5.75977H321.038ZM246.495 6.75977L170.535 258.76H223.815L239.011 205.84H327.779L342.975 258.76H396.255L320.295 6.75977H246.495ZM314.754 160.479H252.036L283.395 51.2666L314.754 160.479ZM253.363 159.479H313.427L283.395 54.8906L253.363 159.479Z" fill="#000000"/>
<path id="Stroke_6" d="M53.2002 213.399V258.76H156.16V213.399H53.2002ZM1 6.75977V258.76H53.2002V6.75977H1ZM54.2002 212.399H157.16V259.76H0V5.75977H54.2002V212.399Z" fill="#000000"/>
</g>
</svg>
