<svg preserveAspectRatio="none" width="100%" height="100%" overflow="visible" style="display: block;" viewBox="0 0 1198.95 265.52" fill="none" xmlns="http://www.w3.org/2000/svg">
<g id="POLISH (Stroke)">
<path id="Stroke" d="M1045.31 6.75977H993.109V258.76H1045.31V154.72H1145.75V258.76H1197.95V6.75977H1145.75V109.359H1045.31V6.75977ZM1198.95 259.76H1144.75V155.72H1046.31V259.76H992.109V5.75977H1046.31V108.359H1144.75V5.75977H1198.95V259.76Z" fill="#000000"/>
<path id="Stroke_2" d="M813.386 177.479L813.492 178.359C814.403 185.87 816.961 192.358 821.152 197.851L821.563 198.379C826.014 204 831.757 208.342 838.815 211.401C846.116 214.461 854.259 216 863.26 216V217L862.407 216.995C853.623 216.901 845.627 215.342 838.419 212.319C831.444 209.297 825.708 205.036 821.211 199.536L820.779 199C816.219 193.24 813.459 186.399 812.499 178.479H757.419C758.139 195.039 763.06 209.8 772.18 222.76C781.3 235.72 793.54 245.919 808.899 253.359C823.78 260.567 840.574 264.284 859.283 264.509L861.1 264.52C892.285 264.519 916.609 258.241 934.073 245.683L934.899 245.08C952.146 232.323 960.903 214.565 961.173 191.808L961.18 190.72C961.18 176.08 958.54 164.08 953.26 154.72C947.98 145.12 940.899 137.44 932.02 131.68C923.649 126.1 914.491 121.646 904.544 118.318L903.579 118C893.259 114.64 882.82 111.88 872.26 109.72C863.23 107.62 854.751 105.428 846.823 103.145L843.459 102.16C835.089 99.6026 828.296 96.3689 823.079 92.46L822.579 92.0801C817.464 88.1276 814.827 82.7107 814.667 75.8301L814.659 75.1602C814.659 67.7201 818.15 61.5181 825.133 56.5557L825.819 56.0801C833.259 51.0401 843.939 48.5195 857.859 48.5195L859.177 48.5293C872.683 48.7328 882.924 52.0896 889.899 58.5996C897.339 65.3196 901.539 74.6797 902.499 86.6797H957.22C957.22 70.3598 952.9 55.7197 944.26 42.7598C936.122 30.2047 925.056 20.2399 911.062 12.8652L909.699 12.1602C895.059 4.72017 878.379 1 859.659 1C840.459 1.00002 823.3 4.23983 808.18 10.7197L806.794 11.3125C792.568 17.5101 781.269 26.0724 772.899 37C764.499 48.04 760.3 60.7602 760.3 75.1602L760.307 76.5479C760.467 90.8101 763.105 102.708 768.22 112.24C773.5 121.84 780.46 129.64 789.1 135.64C797.98 141.64 807.579 146.44 817.899 150.04C828.459 153.4 838.9 156.28 849.22 158.68C859.54 161.08 869.019 163.48 877.659 165.88C886.539 168.28 893.619 171.4 898.899 175.24C904.179 179.08 906.819 184.24 906.819 190.72C906.819 199.84 902.62 206.56 894.22 210.88C885.82 214.96 875.5 217 863.26 217V216C875.383 216 885.537 213.979 893.762 209.989C897.832 207.896 900.834 205.249 902.821 202.069C904.808 198.891 905.819 195.121 905.819 190.72C905.819 184.755 903.487 180.007 898.774 176.395L898.312 176.049C893.483 172.538 887.068 169.613 879.028 167.3L877.398 166.845L877.392 166.844C869.846 164.748 861.655 162.65 852.819 160.553L848.993 159.653C839.293 157.397 829.488 154.719 819.579 151.618L817.596 150.993L817.583 150.988L817.57 150.984C807.495 147.47 798.098 142.819 789.381 137.032L788.539 136.469L788.529 136.461C779.757 130.369 772.694 122.451 767.343 112.722L767.338 112.713C761.958 102.687 759.3 90.1522 759.3 75.1602C759.3 60.5504 763.566 47.6155 772.104 36.3945L772.105 36.3916C780.864 24.9572 792.77 16.0987 807.785 9.80078L809.223 9.19727C824.132 3.05894 840.95 1.72547e-05 859.659 0C877.925 0 894.299 3.51699 908.759 10.5742L910.152 11.2686C924.935 18.7811 936.59 29.0929 945.092 42.2051C953.847 55.3374 958.22 70.1723 958.22 86.6797V87.6797H901.576L901.503 86.7598C900.588 75.3287 896.697 66.4288 889.896 59.96L889.229 59.3418L889.223 59.3359L889.217 59.3311C882.269 52.8467 871.876 49.5195 857.859 49.5195C844.037 49.5195 833.586 52.0254 826.38 56.9072C819.161 61.7977 815.659 67.8721 815.659 75.1602L815.667 75.8037C815.819 82.4102 818.334 87.5352 823.19 91.2881C828.348 95.2732 835.189 98.5867 843.752 101.203H843.751C852.603 103.835 862.177 106.348 872.473 108.742C883.065 110.909 893.537 113.679 903.889 117.049C914.287 120.434 923.847 125.031 932.563 130.841C941.584 136.692 948.774 144.494 954.13 154.229C959.52 163.783 962.18 175.967 962.18 190.72L962.173 191.821C961.899 214.866 953.011 232.926 935.494 245.884C917.74 259.017 892.9 265.519 861.1 265.52C842.141 265.52 825.076 262.005 809.924 254.953L808.464 254.26C792.963 246.752 780.586 236.444 771.361 223.335C762.415 210.621 757.464 196.197 756.501 180.088L756.42 178.523L756.375 177.479H813.386Z" fill="#000000"/>
<path id="Stroke_3" d="M673.188 6.75977V258.76H725.388V6.75977H673.188ZM726.388 259.76H672.188V5.75977H726.388V259.76Z" fill="#000000"/>
<path id="Stroke_4" d="M547.849 213.399V258.76H650.809V213.399H547.849ZM495.648 6.75977V258.76H547.849V6.75977H495.648ZM548.849 212.399H651.809V259.76H494.648V5.75977H548.849V212.399Z" fill="#000000"/>
<path id="Stroke_5" d="M466.823 132.399C466.823 114.4 464.063 97.4795 458.543 81.6396C453.263 65.5597 445.343 51.5195 434.783 39.5195C424.223 27.5196 411.143 18.1594 395.543 11.4395C380.183 4.4796 362.543 1 342.623 1C322.463 1.00004 304.583 4.47953 288.983 11.4395C273.623 18.1594 260.663 27.5196 250.104 39.5195L249.121 40.6504C239.044 52.399 231.331 66.062 225.983 81.6396C220.703 97.4795 218.064 114.4 218.063 132.399L218.077 134.688C218.368 158.265 223.164 179.703 232.464 199C242.064 218.92 256.103 234.88 274.583 246.88C293.303 258.64 315.983 264.519 342.623 264.52C368.847 264.52 391.118 258.822 409.435 247.427L410.304 246.88C428.495 235.067 442.383 219.417 451.97 199.931L452.424 199C462.024 179.08 466.823 156.879 466.823 132.399ZM411.464 132.399C411.464 118.794 409.23 105.868 404.767 93.6162L404.328 92.4326L404.325 92.4268C399.734 80.0318 392.598 69.9957 382.919 62.291L381.975 61.5527L381.969 61.5488L381.963 61.5439C371.859 53.5546 358.773 49.5195 342.623 49.5195C326.474 49.5196 313.264 53.5543 302.915 61.5508L302.912 61.5527C292.751 69.3507 285.3 79.6321 280.562 92.4268L280.559 92.4326C275.803 105.035 273.424 118.355 273.424 132.399L273.431 133.737C273.575 147.533 275.953 160.65 280.562 173.093H280.561C285.298 185.643 292.748 195.927 302.915 203.969C313.264 211.965 326.474 216 342.623 216V217L341.102 216.988C325.466 216.741 312.534 212.665 302.304 204.76C291.984 196.6 284.423 186.159 279.623 173.439C274.973 160.885 272.576 147.654 272.431 133.748L272.424 132.399C272.424 118.24 274.823 104.8 279.623 92.0801C284.273 79.5252 291.513 69.3348 301.344 61.5098L302.304 60.7598C312.864 52.5999 326.303 48.5196 342.623 48.5195C358.943 48.5195 372.263 52.5999 382.583 60.7598C392.903 68.6798 400.464 79.1201 405.264 92.0801C410.064 104.8 412.464 118.24 412.464 132.399L412.456 133.748C412.311 147.654 409.914 160.885 405.264 173.439C400.464 186.159 392.903 196.6 382.583 204.76L381.607 205.513C371.428 213.171 358.433 217 342.623 217V216C358.773 216 371.859 211.965 381.963 203.976C392.134 195.933 399.587 185.646 404.325 173.093L404.765 171.886C409.229 159.4 411.464 146.239 411.464 132.399ZM467.823 132.399C467.823 157.013 462.996 179.364 453.324 199.434C443.645 219.518 429.482 235.619 410.848 247.719L410.84 247.724C392.168 259.606 369.412 265.52 342.623 265.52C316.252 265.519 293.676 259.789 274.94 248.279L274.052 247.727L274.045 247.723L274.039 247.719C255.405 235.619 241.242 219.518 231.562 199.434C221.891 179.364 217.063 157.013 217.063 132.399C217.064 114.3 219.719 97.2728 225.035 81.3232L225.037 81.3154C230.597 65.1198 238.701 50.9636 249.353 38.8594C260.014 26.7443 273.096 17.2991 288.583 10.5234C304.33 3.499 322.351 4.0988e-05 342.623 0C362.652 0 380.432 3.49833 395.938 10.5215H395.939C411.175 17.0846 424.043 26.1531 434.527 37.7305L435.534 38.8594C446.185 50.9624 454.168 65.1171 459.487 81.3105C465.047 97.2637 467.823 114.296 467.823 132.399Z" fill="#000000"/>
<path id="Stroke_6" d="M142.554 90.3662C142.417 80.1879 140.166 72.6213 135.949 67.5166L135.92 67.4795C131.898 62.1176 126.015 58.4482 118.182 56.5166L117.417 56.335L117.4 56.3311L117.385 56.3262C109.836 54.3278 100.795 53.2587 90.249 53.1328L88.1201 53.1201H54.2002V129.6H88.1201C99.5853 129.6 109.341 128.644 117.402 126.748C125.635 124.629 131.78 120.889 135.933 115.583L135.937 115.579C140.304 110.062 142.561 102.036 142.561 91.3594L142.554 90.3662ZM143.554 92.3652C143.416 102.675 141.138 110.62 136.721 116.2C132.401 121.72 126.04 125.56 117.641 127.72C109.481 129.64 99.6401 130.6 88.1201 130.6H53.2002V175.96H88.1201C109.278 175.96 127.845 173.37 143.822 168.189L145.36 167.68C161.92 162.16 174.76 153.16 183.88 140.68C193.24 128.2 197.92 111.759 197.92 91.3594C197.92 70.7196 193.24 54.28 183.88 42.04C174.76 29.5601 161.92 20.56 145.36 15.04C129.04 9.52004 109.96 6.75977 88.1201 6.75977V52.1201C99.6401 52.1201 109.481 53.1994 117.641 55.3594C126.041 57.2794 132.401 61.1199 136.721 66.8799C141.28 72.3998 143.56 80.5597 143.561 91.3594L143.554 92.3652ZM198.92 91.3594C198.92 111.909 194.205 128.58 184.681 141.279C175.423 153.943 162.402 163.053 145.676 168.628C129.481 174.105 110.623 176.872 89.1201 176.955V176.96H54.2002V259.76H0V29.5195H52.2002V5.75977H88.1201V6.75977H53.2002V52.1201H88.1201V5.75977H89.1201V5.76367C110.623 5.84677 129.481 8.61383 145.676 14.0908C162.399 19.6651 175.418 28.7727 184.675 41.4326C194.207 53.8978 198.92 70.5742 198.92 91.3594ZM1 258.76H53.2002V30.5195H1V258.76Z" fill="#000000"/>
</g>
</svg>
