<svg preserveAspectRatio="none" width="100%" height="100%" overflow="visible" style="display: block;" viewBox="0 0 1524.44 265.52" fill="none" xmlns="http://www.w3.org/2000/svg">
<g id="SIMPLIFY (Stroke)">
<path id="Stroke" d="M1365.46 5.75977L1417.36 119.298L1468.94 5.75977H1524.44L1444.3 175.387V259.76H1390.1V175.385L1309.96 5.75977H1365.46ZM1311.54 6.75977L1391.1 175.161V258.76H1443.3V175.161L1522.86 6.75977H1469.58L1417.36 121.709L1364.82 6.75977H1311.54Z" fill="#000000"/>
<path id="Stroke_2" d="M1172.76 116.56V161.92H1277.88V116.56H1172.76ZM1172.76 6.75977V52.1201H1292.28V6.75977H1172.76ZM1120.56 258.76H1172.76V30.5195H1120.56V258.76ZM1293.28 53.1201H1173.76V115.56H1278.88V162.92H1173.76V259.76H1119.56V29.5195H1171.76V5.75977H1293.28V53.1201Z" fill="#000000"/>
<path id="Stroke_3" d="M1030.91 6.75977V258.76H1083.11V6.75977H1030.91ZM1084.11 259.76H1029.91V5.75977H1084.11V259.76Z" fill="#000000"/>
<path id="Stroke_4" d="M905.575 213.399V258.76H1008.54V213.399H905.575ZM853.375 6.75977V258.76H905.575V6.75977H853.375ZM906.575 212.399H1009.54V259.76H852.375V5.75977H906.575V212.399Z" fill="#000000"/>
<path id="Stroke_5" d="M771.335 90.3662C771.198 80.1879 768.947 72.6213 764.73 67.5166L764.701 67.4795C760.68 62.1176 754.797 58.4482 746.963 56.5166L746.198 56.335L746.182 56.3311L746.166 56.3262C738.617 54.3278 729.576 53.2587 719.03 53.1328L716.901 53.1201H682.981V129.6H716.901C728.367 129.6 738.122 128.644 746.184 126.748C754.416 124.629 760.561 120.889 764.714 115.583L764.718 115.579C769.085 110.062 771.342 102.036 771.342 91.3594L771.335 90.3662ZM772.335 92.3652C772.197 102.675 769.919 110.62 765.502 116.2C761.182 121.72 754.822 125.56 746.422 127.72C738.262 129.64 728.421 130.6 716.901 130.6H681.981V175.96H716.901C738.059 175.96 756.626 173.37 772.604 168.189L774.142 167.68C790.701 162.16 803.541 153.16 812.661 140.68C822.021 128.2 826.701 111.759 826.701 91.3594C826.701 70.7196 822.021 54.28 812.661 42.04C803.541 29.5601 790.702 20.56 774.142 15.04C757.822 9.52004 738.741 6.75977 716.901 6.75977V52.1201C728.421 52.1201 738.262 53.1994 746.422 55.3594C754.822 57.2794 761.182 61.1199 765.502 66.8799C770.062 72.3998 772.342 80.5597 772.342 91.3594L772.335 92.3652ZM827.701 91.3594C827.701 111.909 822.986 128.58 813.462 141.279C804.204 153.943 791.183 163.053 774.457 168.628C758.262 174.105 739.405 176.872 717.901 176.955V176.96H682.981V259.76H628.781V29.5195H680.981V5.75977H716.901V6.75977H681.981V52.1201H716.901V5.75977H717.901V5.76367C739.405 5.84677 758.262 8.61383 774.457 14.0908C791.18 19.6651 804.199 28.7727 813.456 41.4326C822.988 53.8978 827.701 70.5742 827.701 91.3594ZM629.781 258.76H681.981V30.5195H629.781V258.76Z" fill="#000000"/>
<path id="Stroke_6" d="M508.183 6.75977L459.402 206.444L410.623 6.75977H326.383V258.76H376.783V81.9434L422.503 258.76H496.303L542.023 81.9395V258.76H592.423V6.75977H508.183ZM593.423 259.76H541.023V89.8037L497.077 259.76H421.729L377.783 89.8037V259.76H325.383V5.75977H411.408L459.402 202.229L507.398 5.75977H593.423V259.76Z" fill="#000000"/>
<path id="Stroke_7" d="M236.734 6.75977V258.76H288.935V6.75977H236.734ZM289.935 259.76H235.734V5.75977H289.935V259.76Z" fill="#000000"/>
<path id="Stroke_8" d="M57.0107 177.479L57.1172 178.359C58.0276 185.87 60.5855 192.358 64.7773 197.851L65.1885 198.379C69.6388 204 75.3819 208.342 82.4404 211.401C89.7406 214.461 97.8841 216 106.885 216V217L106.032 216.995C97.2479 216.901 89.2516 215.342 82.0439 212.319C75.0693 209.297 69.3332 205.036 64.8359 199.536L64.4043 199C59.8443 193.24 57.084 186.399 56.124 178.479H1.04395C1.76395 195.039 6.68469 209.8 15.8047 222.76C24.9247 235.72 37.1645 245.919 52.5244 253.359C67.4045 260.567 84.1991 264.284 102.908 264.509L104.725 264.52C135.91 264.519 160.234 258.241 177.698 245.683L178.524 245.08C195.771 232.323 204.528 214.565 204.798 191.808L204.805 190.72C204.805 176.08 202.165 164.08 196.885 154.72C191.605 145.12 184.524 137.44 175.645 131.68C167.274 126.1 158.116 121.646 148.169 118.318L147.204 118C136.884 114.64 126.445 111.88 115.885 109.72C106.855 107.62 98.3757 105.428 90.4482 103.145L87.084 102.16C78.714 99.6026 71.9208 96.3689 66.7041 92.46L66.2041 92.0801C61.0891 88.1276 58.4518 82.7107 58.292 75.8301L58.2842 75.1602C58.2842 67.7201 61.7754 61.5181 68.7578 56.5557L69.4443 56.0801C76.8843 51.0401 87.5644 48.5195 101.484 48.5195L102.802 48.5293C116.308 48.7328 126.549 52.0896 133.524 58.5996C140.964 65.3196 145.164 74.6797 146.124 86.6797H200.845C200.845 70.3598 196.525 55.7197 187.885 42.7598C179.747 30.2047 168.681 20.2399 154.688 12.8652L153.324 12.1602C138.684 4.72017 122.004 1 103.284 1C84.0844 1.00002 66.9246 4.23983 51.8047 10.7197L50.4189 11.3125C36.1927 17.5101 24.8945 26.0724 16.5244 37C8.12448 48.04 3.9248 60.7602 3.9248 75.1602L3.93164 76.5479C4.09154 90.8101 6.72978 102.708 11.8447 112.24C17.1247 121.84 24.0848 129.64 32.7246 135.64C41.6046 141.64 51.2045 146.44 61.5244 150.04C72.0844 153.4 82.5248 156.28 92.8447 158.68C103.165 161.08 112.644 163.48 121.284 165.88C130.164 168.28 137.244 171.4 142.524 175.24C147.804 179.08 150.444 184.24 150.444 190.72C150.444 199.84 146.245 206.56 137.845 210.88C129.445 214.96 119.125 217 106.885 217V216C119.008 216 129.162 213.979 137.387 209.989C141.457 207.896 144.459 205.249 146.446 202.069C148.433 198.891 149.444 195.121 149.444 190.72C149.444 184.755 147.112 180.007 142.399 176.395L141.937 176.049C137.108 172.538 130.693 169.613 122.653 167.3L121.023 166.845L121.017 166.844C113.471 164.748 105.28 162.65 96.4443 160.553L92.6182 159.653C82.9178 157.397 73.1129 154.719 63.2041 151.618L61.2207 150.993L61.208 150.988L61.1953 150.984C51.1205 147.47 41.7229 142.819 33.0059 137.032L32.1641 136.469L32.1543 136.461C23.3822 130.369 16.319 122.451 10.9678 112.722L10.9629 112.713C5.58331 102.687 2.92485 90.1522 2.9248 75.1602C2.9248 60.5504 7.19085 47.6155 15.7285 36.3945L15.7305 36.3916C24.4887 24.9572 36.3951 16.0987 51.4102 9.80078L52.8477 9.19727C67.7572 3.05894 84.5748 1.72547e-05 103.284 0C121.55 0 137.924 3.51699 152.384 10.5742L153.777 11.2686C168.56 18.7811 180.215 29.0929 188.717 42.2051C197.472 55.3374 201.845 70.1723 201.845 86.6797V87.6797H145.201L145.128 86.7598C144.213 75.3287 140.322 66.4288 133.521 59.96L132.854 59.3418L132.848 59.3359L132.842 59.3311C125.894 52.8467 115.501 49.5195 101.484 49.5195C87.6625 49.5195 77.2114 52.0254 70.0049 56.9072C62.7856 61.7977 59.2842 67.8721 59.2842 75.1602L59.292 75.8037C59.4444 82.4102 61.9589 87.5352 66.8154 91.2881C71.9726 95.2732 78.8142 98.5867 87.377 101.203H87.376C96.2285 103.835 105.802 106.348 116.098 108.742C126.69 110.909 137.162 113.679 147.514 117.049C157.912 120.434 167.472 125.031 176.188 130.841C185.209 136.692 192.399 144.494 197.755 154.229C203.145 163.783 205.805 175.967 205.805 190.72L205.798 191.821C205.524 214.866 196.636 232.926 179.119 245.884C161.365 259.017 136.525 265.519 104.725 265.52C85.7662 265.52 68.7011 262.005 53.5488 254.953L52.0889 254.26C36.5882 246.752 24.2115 236.444 14.9863 223.335C6.03989 210.621 1.08853 196.197 0.125977 180.088L0.0449219 178.523L0 177.479H57.0107Z" fill="#000000"/>
</g>
</svg>
