<svg preserveAspectRatio="none" width="100%" height="100%" overflow="visible" style="display: block;" viewBox="0 0 1352.07 265.52" fill="none" xmlns="http://www.w3.org/2000/svg">
<g id="SKETCH (Stroke)">
<path id="Stroke" d="M1198.43 6.75977H1146.23V258.76H1198.43V154.72H1298.87V258.76H1351.07V6.75977H1298.87V109.359H1198.43V6.75977ZM1352.07 259.76H1297.87V155.72H1199.43V259.76H1145.23V5.75977H1199.43V108.359H1297.87V5.75977H1352.07V259.76Z" fill="#000000"/>
<path id="Stroke_2" d="M932.143 132.399C932.143 118.682 934.395 105.64 938.899 93.2744L939.342 92.0801C943.992 79.5252 951.232 69.3348 961.062 61.5098L962.022 60.7598C972.582 52.5999 986.022 48.5196 1002.34 48.5195C1011.46 48.5195 1019.38 49.7201 1026.1 52.1201C1032.82 54.2801 1038.46 57.6403 1043.02 62.2002C1047.82 66.5201 1051.66 71.9198 1054.54 78.3994C1057.24 84.2495 1059.2 90.9437 1060.43 98.4814L1060.66 100H1116.1C1112.26 69.76 1100.74 45.76 1081.54 28C1062.58 10 1036.18 1 1002.34 1C982.182 1.00004 964.302 4.47953 948.702 11.4395C933.342 18.1594 920.382 27.5196 909.822 39.5195L908.84 40.6504C898.762 52.399 891.05 66.062 885.702 81.6396C880.422 97.4795 877.782 114.4 877.782 132.399L877.796 134.688C878.087 158.265 882.883 179.703 892.183 199C901.783 218.92 915.822 234.88 934.302 246.88C953.022 258.64 975.702 264.519 1002.34 264.52C1025.73 264.52 1045.51 260.217 1061.69 251.612L1062.46 251.2C1078.5 242.365 1091.06 230.151 1100.12 214.56L1100.98 213.04C1110.34 196.72 1115.86 177.76 1117.54 156.16H1062.82C1062.1 165.52 1060.42 173.92 1057.78 181.359L1057.53 182.054C1054.9 189.196 1051.14 195.324 1046.26 200.439C1041.46 205.719 1035.46 209.8 1028.26 212.68C1021.06 215.56 1012.42 217 1002.34 217V216C1012.33 216 1020.84 214.572 1027.89 211.751C1034.96 208.922 1040.83 204.926 1045.52 199.768L1045.53 199.758L1045.54 199.749C1050.47 194.579 1054.24 188.343 1056.84 181.025C1059.45 173.682 1061.11 165.371 1061.83 156.083L1061.9 155.16H1118.62L1118.54 156.237C1116.85 177.958 1111.3 197.062 1101.85 213.526L1101.86 213.527C1092.64 230.013 1079.67 242.867 1062.94 252.076L1062.94 252.078C1046.44 261.057 1026.22 265.52 1002.34 265.52C975.971 265.519 953.395 259.789 934.659 248.279L933.771 247.727L933.764 247.723L933.758 247.719C915.124 235.619 900.96 219.518 891.281 199.434C881.609 179.364 876.782 157.013 876.782 132.399C876.782 114.3 879.437 97.2728 884.754 81.3232L884.756 81.3154C890.316 65.1198 898.42 50.9636 909.071 38.8594C919.733 26.7443 932.815 17.2991 948.302 10.5234C964.049 3.499 982.07 4.0988e-05 1002.34 0C1036.35 0 1063.03 9.04806 1082.22 27.2656C1101.32 44.9307 1112.86 68.6858 1116.91 98.4521L1117.09 99.874L1117.24 101H1059.8L1059.67 100.146C1058.48 92.0618 1056.47 84.9562 1053.63 78.8184L1053.63 78.8125L1053.63 78.8057C1050.89 72.6405 1047.27 67.4915 1042.79 63.3418L1042.35 62.9434L1042.33 62.9258L1042.32 62.9072C1038.02 58.6086 1032.72 55.3939 1026.41 53.2734L1025.8 53.0723L1025.78 53.0664L1025.77 53.0615C1019.18 50.7091 1011.38 49.5195 1002.34 49.5195C986.193 49.5196 972.982 53.5543 962.634 61.5508L962.631 61.5527C952.47 69.3507 945.019 79.6321 940.28 92.4268L940.277 92.4326C935.522 105.035 933.143 118.355 933.143 132.399L933.149 133.737C933.294 147.533 935.672 160.65 940.28 173.093H940.279C945.016 185.643 952.467 195.927 962.634 203.969C972.982 211.965 986.193 216 1002.34 216V217L1000.82 216.988C985.185 216.741 972.252 212.665 962.022 204.76C951.702 196.6 944.142 186.159 939.342 173.439C934.692 160.885 932.295 147.654 932.149 133.748L932.143 132.399Z" fill="#000000"/>
<path id="Stroke_3" d="M663.965 6.75977V52.1201H742.444V258.76H794.645V52.1201H873.125V6.75977H663.965ZM874.125 53.1201H795.645V259.76H741.444V53.1201H662.965V5.75977H874.125V53.1201Z" fill="#000000"/>
<path id="Stroke_4" d="M517.099 109.359V154.72H625.818V109.359H517.099ZM626.818 155.72H518.099V212.399H642.659V259.76H516.099V236H463.898V5.75977H517.099V6.75977H464.898V235H517.099V258.76H641.659V213.399H517.099V52.1201H640.219V6.75977H517.099V5.75977H641.219V53.1201H518.099V108.359H626.818V155.72Z" fill="#000000"/>
<path id="Stroke_5" d="M236.734 6.75977V258.76H288.215V188.82L312.357 158.296L375.335 258.76H439.415L344.561 117.581L432.215 6.75977H368.135L288.215 108.17V6.75977H236.734ZM289.215 105.285L367.649 5.75977H434.28L345.798 117.629L441.291 259.76H374.781L312.263 160.027L289.215 189.168V259.76H235.734V5.75977H289.215V105.285Z" fill="#000000"/>
<path id="Stroke_6" d="M57.0107 177.479L57.1172 178.359C58.0276 185.87 60.5855 192.358 64.7773 197.851L65.1885 198.379C69.6388 204 75.3819 208.342 82.4404 211.401C89.7406 214.461 97.8841 216 106.885 216V217L106.032 216.995C97.2479 216.901 89.2516 215.342 82.0439 212.319C75.0693 209.297 69.3332 205.036 64.8359 199.536L64.4043 199C59.8443 193.24 57.084 186.399 56.124 178.479H1.04395C1.76395 195.039 6.68469 209.8 15.8047 222.76C24.9247 235.72 37.1645 245.919 52.5244 253.359C67.4045 260.567 84.1991 264.284 102.908 264.509L104.725 264.52C135.91 264.519 160.234 258.241 177.698 245.683L178.524 245.08C195.771 232.323 204.528 214.565 204.798 191.808L204.805 190.72C204.805 176.08 202.165 164.08 196.885 154.72C191.605 145.12 184.524 137.44 175.645 131.68C167.274 126.1 158.116 121.646 148.169 118.318L147.204 118C136.884 114.64 126.445 111.88 115.885 109.72C106.855 107.62 98.3757 105.428 90.4482 103.145L87.084 102.16C78.714 99.6026 71.9208 96.3689 66.7041 92.46L66.2041 92.0801C61.0891 88.1276 58.4518 82.7107 58.292 75.8301L58.2842 75.1602C58.2842 67.7201 61.7754 61.5181 68.7578 56.5557L69.4443 56.0801C76.8843 51.0401 87.5644 48.5195 101.484 48.5195L102.802 48.5293C116.308 48.7328 126.549 52.0896 133.524 58.5996C140.964 65.3196 145.164 74.6797 146.124 86.6797H200.845C200.845 70.3598 196.525 55.7197 187.885 42.7598C179.747 30.2047 168.681 20.2399 154.688 12.8652L153.324 12.1602C138.684 4.72017 122.004 1 103.284 1C84.0844 1.00002 66.9246 4.23983 51.8047 10.7197C36.9247 16.9597 25.1644 25.72 16.5244 37C8.12448 48.04 3.9248 60.7602 3.9248 75.1602L3.93164 76.5479C4.09154 90.8101 6.72978 102.708 11.8447 112.24C17.1247 121.84 24.0848 129.64 32.7246 135.64C41.6046 141.64 51.2045 146.44 61.5244 150.04C72.0844 153.4 82.5248 156.28 92.8447 158.68C103.165 161.08 112.644 163.48 121.284 165.88C130.164 168.28 137.244 171.4 142.524 175.24C147.804 179.08 150.444 184.24 150.444 190.72C150.444 199.84 146.245 206.56 137.845 210.88C129.445 214.96 119.125 217 106.885 217V216C119.008 216 129.162 213.979 137.387 209.989C141.457 207.896 144.459 205.249 146.446 202.069C148.433 198.891 149.444 195.121 149.444 190.72C149.444 184.755 147.112 180.007 142.399 176.395L141.937 176.049C137.108 172.538 130.693 169.613 122.653 167.3L121.023 166.845L121.017 166.844C113.471 164.748 105.28 162.65 96.4443 160.553L92.6182 159.653C82.9178 157.397 73.1129 154.719 63.2041 151.618L61.2207 150.993L61.208 150.988L61.1953 150.984C51.1205 147.47 41.7229 142.819 33.0059 137.032L32.1641 136.469L32.1543 136.461C23.3822 130.369 16.319 122.451 10.9678 112.722L10.9629 112.713C5.58331 102.687 2.92485 90.1522 2.9248 75.1602C2.9248 60.5504 7.19085 47.6155 15.7285 36.3945L15.7305 36.3916C24.4887 24.9572 36.3951 16.0987 51.4102 9.80078L52.8477 9.19727C67.7572 3.05894 84.5748 1.72547e-05 103.284 0C121.55 0 137.924 3.51699 152.384 10.5742L153.777 11.2686C168.56 18.7811 180.215 29.0929 188.717 42.2051C197.472 55.3374 201.845 70.1723 201.845 86.6797V87.6797H145.201L145.128 86.7598C144.213 75.3287 140.322 66.4288 133.521 59.96L132.854 59.3418L132.848 59.3359L132.842 59.3311C125.894 52.8467 115.501 49.5195 101.484 49.5195C87.6625 49.5195 77.2114 52.0254 70.0049 56.9072C62.7856 61.7977 59.2842 67.8721 59.2842 75.1602L59.292 75.8037C59.4444 82.4102 61.9589 87.5352 66.8154 91.2881C71.9726 95.2732 78.8142 98.5867 87.377 101.203H87.376C96.2285 103.835 105.802 106.348 116.098 108.742C126.69 110.909 137.162 113.679 147.514 117.049C157.912 120.434 167.472 125.031 176.188 130.841C185.209 136.692 192.399 144.494 197.755 154.229C203.145 163.783 205.805 175.967 205.805 190.72L205.798 191.821C205.524 214.866 196.636 232.926 179.119 245.884C161.365 259.017 136.525 265.519 104.725 265.52C85.7662 265.52 68.7011 262.005 53.5488 254.953L52.0889 254.26C36.5882 246.752 24.2115 236.444 14.9863 223.335C6.03989 210.621 1.08853 196.197 0.125977 180.088L0.0449219 178.523L0 177.479H57.0107Z" fill="#000000"/>
</g>
</svg>
