<svg preserveAspectRatio="none" width="100%" height="100%" overflow="visible" style="display: block;" viewBox="0 0 1022.15 254" fill="none" xmlns="http://www.w3.org/2000/svg">
<g id="THINK (Stroke)">
<path id="Stroke" d="M817.598 1V253H869.078V183.061L893.221 152.536L956.198 253H1020.28L925.424 111.821L1013.08 1H948.998L869.078 102.41V1H817.598ZM870.078 99.5254L948.513 0H1015.14L926.661 111.869L1022.15 254H955.645L893.126 154.268L870.078 183.408V254H816.598V0H870.078V99.5254Z" fill="#000000"/>
<path id="Stroke_2" d="M729.646 1V187.056L644.325 1H567.285V253H617.686V66.9434L703.006 253H780.046V1H729.646ZM781.046 254H702.364L618.686 71.5244V254H566.285V0H644.967L728.646 182.477V0H781.046V254Z" fill="#000000"/>
<path id="Stroke_3" d="M477.637 1V253H529.837V1H477.637ZM530.837 254H476.637V0H530.837V254Z" fill="#000000"/>
<path id="Stroke_4" d="M287.61 1H235.41V253H287.61V148.96H388.051V253H440.25V1H388.051V103.6H287.61V1ZM441.25 254H387.051V149.96H288.61V254H234.41V0H288.61V102.6H387.051V0H441.25V254Z" fill="#000000"/>
<path id="Stroke_5" d="M1 1V46.3604H79.4795V253H131.68V46.3604H210.16V1H1ZM211.16 47.3604H132.68V254H78.4795V47.3604H0V0H211.16V47.3604Z" fill="#000000"/>
</g>
</svg>
